<svg width="44" height="44" viewBox="0 0 44 44" fill="none" xmlns="http://www.w3.org/2000/svg">
<rect width="44" height="44" rx="22" fill="#F59332"/>
<g clip-path="url(#clip0_3006_11366)">
<path d="M28.6667 19.5H21.1667C20.2462 19.5 19.5 20.2462 19.5 21.1667V28.6667C19.5 29.5871 20.2462 30.3333 21.1667 30.3333H28.6667C29.5871 30.3333 30.3333 29.5871 30.3333 28.6667V21.1667C30.3333 20.2462 29.5871 19.5 28.6667 19.5Z" stroke="white" stroke-width="2" stroke-linecap="round" stroke-linejoin="round"/>
<path d="M16.1667 24.4993H15.3334C14.8914 24.4993 14.4675 24.3238 14.1549 24.0112C13.8423 23.6986 13.6667 23.2747 13.6667 22.8327V15.3327C13.6667 14.8907 13.8423 14.4667 14.1549 14.1542C14.4675 13.8416 14.8914 13.666 15.3334 13.666H22.8334C23.2754 13.666 23.6994 13.8416 24.0119 14.1542C24.3245 14.4667 24.5001 14.8907 24.5001 15.3327V16.166" stroke="white" stroke-width="2" stroke-linecap="round" stroke-linejoin="round"/>
</g>
<defs>
<clipPath id="clip0_3006_11366">
<rect width="20" height="20" fill="white" transform="translate(12 12)"/>
</clipPath>
</defs>
</svg>
