<svg width="561" height="404" viewBox="0 0 561 404" fill="none" xmlns="http://www.w3.org/2000/svg">
<path d="M273.354 76.8711V569.395C225.703 539.199 185.708 504.733 153.53 466.166C163.857 465.979 178.385 465.316 195.805 463.419C231.64 459.506 263.563 428.884 266.821 383.275C270.079 337.674 230.986 312.267 216.653 303.795C202.32 295.323 157.367 283.593 153.258 262.745C149.141 241.896 180.171 238.639 186.687 237.337C193.202 236.036 260.96 235.381 260.96 235.381V181.955H187.988C159.323 181.955 132.606 192.383 113.068 209.318C93.521 226.262 85.0491 266.658 100.683 299.882C116.325 333.115 161.926 344.19 161.926 344.19C207.535 359.824 213.855 387.094 196.766 400.687C165.839 425.278 117.669 396.196 99.4922 383.462C86.1719 356.481 75.8286 328.011 68.505 298.096C52.4118 232.37 56.2394 177.795 59.1315 154.752C129.042 151.443 186.508 128.145 223.22 108.548C244.867 96.9878 261.82 85.4877 273.354 76.8711Z" fill="#333333"/>
<path d="M30.9768 136.666C30.3473 139.635 15.8617 210.456 38.4024 303.912C51.6292 358.733 74.9355 410.016 107.666 456.331C148.427 514.002 203.945 563.992 272.673 604.923L273.354 605.331V642.46C226.69 617.036 -31.4143 459.546 3.17934 103.51C3.17934 103.51 184.934 96.9687 273.354 0V37.1883L270.121 40.1654C269.892 40.3696 247.011 61.2689 207.909 82.0151C172.141 100.992 114.973 123.771 45.7941 124.52L33.5115 124.656L30.9768 136.666Z" fill="#333333"/>
<path d="M290.892 225.445H287.66V241.777H290.892V225.445Z" fill="#333333"/>
<path d="M309.605 235.375H293.444V241.763H309.605V235.375Z" fill="#333333"/>
<path d="M328.319 235.375H312.157V241.763H328.319V235.375Z" fill="#333333"/>
<path d="M347.032 235.375H330.87V241.763H347.032V235.375Z" fill="#333333"/>
<path d="M366.595 235.375H349.583V241.763H366.595V235.375Z" fill="#333333"/>
<path d="M385.309 235.375H369.147V241.763H385.309V235.375Z" fill="#333333"/>
<path d="M387.86 235.375C393.695 235.452 399.19 236.949 404.021 239.526V241.755H387.86V235.375Z" fill="#333333"/>
<path d="M407.654 241.755H406.573V241.023C406.939 241.262 407.296 241.508 407.654 241.755Z" fill="#333333"/>
<path d="M290.892 206.578H287.66V222.901H290.892V206.578Z" fill="#333333"/>
<path d="M290.892 244.309H287.66V260.632H290.892V244.309Z" fill="#333333"/>
<path d="M309.605 244.309H293.444V260.632H309.605V244.309Z" fill="#333333"/>
<path d="M328.319 244.309H312.157V260.632H328.319V244.309Z" fill="#333333"/>
<path d="M347.032 244.309H330.87V260.632H347.032V244.309Z" fill="#333333"/>
<path d="M366.595 244.309H349.583V260.632H366.595V244.309Z" fill="#333333"/>
<path d="M385.308 244.309H369.147V260.632H385.308V244.309Z" fill="#333333"/>
<path d="M404.021 244.309H387.86V260.632H404.021V244.309Z" fill="#333333"/>
<path d="M421.357 260.632H406.573V244.309H410.894C415.76 248.621 419.434 254.244 421.357 260.632Z" fill="#333333"/>
<path d="M290.892 187.676H287.66V203.999H290.892V187.676Z" fill="#333333"/>
<path d="M290.892 338.711H287.66V355.034H290.892V338.711Z" fill="#333333"/>
<path d="M290.892 263.211H287.66V279.534H290.892V263.211Z" fill="#333333"/>
<path d="M309.605 263.211H293.444V279.534H309.605V263.211Z" fill="#333333"/>
<path d="M328.319 263.211H312.157V279.534H328.319V263.211Z" fill="#333333"/>
<path d="M347.032 263.211H330.87V279.534H347.032V263.211Z" fill="#333333"/>
<path d="M366.595 263.211H349.583V279.534H366.595V263.211Z" fill="#333333"/>
<path d="M385.308 263.211H369.147V279.534H385.308V263.211Z" fill="#333333"/>
<path d="M404.021 263.211H387.86V279.534H404.021V263.211Z" fill="#333333"/>
<path d="M422.862 270.909C422.862 271.913 422.82 272.908 422.735 273.886C422.573 275.817 422.258 277.705 421.799 279.534H406.573V263.211H422.012C422.36 264.759 422.607 266.341 422.735 267.966C422.82 268.935 422.862 269.914 422.862 270.909Z" fill="#333333"/>
<path d="M290.892 319.812H287.66V336.144H290.892V319.812Z" fill="#333333"/>
<path d="M290.892 282.078H287.66V298.401H290.892V282.078Z" fill="#333333"/>
<path d="M309.606 282.078H293.444V298.401H309.606V282.078Z" fill="#333333"/>
<path d="M328.319 282.078H312.157V298.401H328.319V282.078Z" fill="#333333"/>
<path d="M347.032 282.078H330.871V298.401H347.032V282.078Z" fill="#333333"/>
<path d="M366.596 282.078H349.584V298.401H366.596V282.078Z" fill="#333333"/>
<path d="M385.309 282.078H369.147V298.401H385.309V282.078Z" fill="#333333"/>
<path d="M404.022 282.078H387.86V298.401H404.022V282.078Z" fill="#333333"/>
<path d="M421.059 282.078C418.915 288.543 414.969 294.182 409.806 298.401H406.573V282.078H421.059Z" fill="#333333"/>
<path d="M290.892 149.938H287.66V166.261H290.892V149.938Z" fill="#333333"/>
<path d="M309.606 149.938H293.444V166.261H309.606V149.938Z" fill="#333333"/>
<path d="M328.319 149.938H312.157V166.261H328.319V149.938Z" fill="#333333"/>
<path d="M347.032 149.938H330.871V166.261H347.032V149.938Z" fill="#333333"/>
<path d="M366.596 149.938H349.584V166.261H366.596V149.938Z" fill="#333333"/>
<path d="M385.309 149.938H369.147V166.261H385.309V149.938Z" fill="#333333"/>
<path d="M404.022 149.938H387.86V166.261H404.022V149.938Z" fill="#333333"/>
<path d="M422.735 149.938H406.573V166.261H422.735V149.938Z" fill="#333333"/>
<path d="M441.448 149.938H425.286V166.261H441.448V149.938Z" fill="#333333"/>
<path d="M457.737 149.938C458.825 150.125 459.914 150.303 461.011 150.482V166.261H444V149.938H457.737Z" fill="#333333"/>
<path d="M463.563 150.867C468.862 151.692 474.246 152.407 479.724 153.002V166.246H463.563V150.867Z" fill="#333333"/>
<path d="M482.276 153.297C487.584 153.841 492.968 154.267 498.438 154.581V166.269H482.276V153.297Z" fill="#333333"/>
<path d="M503.082 166.254H500.989V154.703C501.278 154.72 501.576 154.729 501.874 154.746C502.282 157.978 502.699 161.84 503.082 166.254Z" fill="#333333"/>
<path d="M475.591 282.078H479.724V298.401H471.95C473.651 293.153 474.885 287.701 475.591 282.078Z" fill="#333333"/>
<path d="M496.081 282.078C495.018 287.335 493.836 292.677 492.509 298.103C492.484 298.206 492.458 298.299 492.432 298.401H482.276V282.078H496.081Z" fill="#333333"/>
<path d="M418.822 187.676H422.735V189.266C421.442 188.705 420.141 188.178 418.822 187.676Z" fill="#333333"/>
<path d="M425.286 187.676H441.448V200.282C436.455 196.454 431.045 193.137 425.286 190.423V187.676Z" fill="#333333"/>
<path d="M444 187.676H461.011V203.999H445.973C445.326 203.429 444.663 202.868 444 202.323V187.676Z" fill="#333333"/>
<path d="M479.725 187.676H463.563V203.999H479.725V187.676Z" fill="#333333"/>
<path d="M498.438 187.676H482.276V203.999H498.438V187.676Z" fill="#333333"/>
<path d="M504.434 203.999H500.99V187.676H504.307C504.451 192.762 504.502 198.215 504.434 203.999Z" fill="#333333"/>
<path d="M290.892 357.578H287.66V373.901H290.892V357.578Z" fill="#333333"/>
<path d="M290.892 93.3086H287.66V109.632H290.892V93.3086Z" fill="#333333"/>
<path d="M309.606 93.3086H293.444V109.632H309.606V93.3086Z" fill="#333333"/>
<path d="M328.319 103.32V109.623H312.157V93.6484C317.142 96.7872 322.535 100.036 328.319 103.32Z" fill="#333333"/>
<path d="M339.844 109.643H330.871V104.777C333.125 106.036 335.43 107.295 337.794 108.563C338.466 108.92 339.164 109.286 339.844 109.643Z" fill="#333333"/>
<path d="M290.892 300.945H287.66V317.268H290.892V300.945Z" fill="#333333"/>
<path d="M309.605 300.945H293.444V306.398H309.605V300.945Z" fill="#333333"/>
<path d="M328.319 300.945H312.157V306.398H328.319V300.945Z" fill="#333333"/>
<path d="M347.032 300.945H330.87V306.398H347.032V300.945Z" fill="#333333"/>
<path d="M366.595 300.945H349.583V306.398H366.595V300.945Z" fill="#333333"/>
<path d="M385.308 300.945H369.147V306.398H385.308V300.945Z" fill="#333333"/>
<path d="M404.021 300.945V302.238C399.19 304.816 393.704 306.313 387.86 306.389V300.945H404.021Z" fill="#333333"/>
<path d="M461.011 320.738V336.168H447.768C452.744 331.558 457.201 326.378 461.011 320.738Z" fill="#333333"/>
<path d="M479.724 319.812H463.563V336.144H479.724V319.812Z" fill="#333333"/>
<path d="M486.58 319.812C485.219 324.329 483.782 328.812 482.276 333.261V319.812H486.58Z" fill="#333333"/>
<path d="M448.763 206.578H461.011V221.064C457.456 215.807 453.348 210.959 448.763 206.578Z" fill="#333333"/>
<path d="M479.724 206.578H463.563V222.901H479.724V206.578Z" fill="#333333"/>
<path d="M498.437 206.578H482.276V222.901H498.437V206.578Z" fill="#333333"/>
<path d="M504.392 206.578C504.298 211.775 504.094 217.228 503.762 222.901H500.989V206.578H504.392Z" fill="#333333"/>
<path d="M472.247 244.309H479.724V260.632H475.692C475.054 255.009 473.889 249.557 472.247 244.309Z" fill="#333333"/>
<path d="M498.437 244.309H482.276V260.632H498.437V244.309Z" fill="#333333"/>
<path d="M501.967 244.309C501.67 246.996 501.347 249.727 500.989 252.491V244.309H501.967Z" fill="#333333"/>
<path d="M290.892 376.445H287.66V392.768H290.892V376.445Z" fill="#333333"/>
<path d="M471.074 300.945H479.724V317.268H463.248C463.359 317.098 463.461 316.92 463.563 316.741C466.566 311.773 469.083 306.491 471.074 300.945Z" fill="#333333"/>
<path d="M491.794 300.945C490.408 306.44 488.928 311.876 487.337 317.268H482.276V300.945H491.794Z" fill="#333333"/>
<path d="M463.81 225.445H479.724V241.777H471.405C469.415 236.044 466.863 230.583 463.81 225.445Z" fill="#333333"/>
<path d="M498.437 225.445H482.276V241.777H498.437V225.445Z" fill="#333333"/>
<path d="M503.609 225.445C503.277 230.711 502.818 236.163 502.24 241.777H500.989V225.445H503.609Z" fill="#333333"/>
<path d="M287.66 76.8711C288.698 77.6451 289.77 78.4447 290.893 79.2613V90.7529H287.66V76.8711Z" fill="#333333"/>
<path d="M307.624 90.7364H293.444V81.082C297.646 84.0847 302.384 87.334 307.624 90.7364Z" fill="#333333"/>
<path d="M290.892 168.812H287.66V185.136H290.892V168.812Z" fill="#333333"/>
<path d="M309.605 168.812H293.444V181.954H309.605V168.812Z" fill="#333333"/>
<path d="M328.319 168.812H312.157V181.954H328.319V168.812Z" fill="#333333"/>
<path d="M347.032 168.812H330.87V181.954H347.032V168.812Z" fill="#333333"/>
<path d="M366.595 168.812H349.583V181.954H366.595V168.812Z" fill="#333333"/>
<path d="M385.308 168.812H369.147V181.954H385.308V168.812Z" fill="#333333"/>
<path d="M387.86 168.812H404.021V183.528C398.782 182.524 393.38 181.988 387.86 181.963V168.812Z" fill="#333333"/>
<path d="M406.573 168.812H422.735V185.136H410.988C409.533 184.736 408.062 184.37 406.573 184.047V168.812Z" fill="#333333"/>
<path d="M441.448 168.812H425.286V185.136H441.448V168.812Z" fill="#333333"/>
<path d="M461.011 168.812H443.999V185.136H461.011V168.812Z" fill="#333333"/>
<path d="M479.724 168.812H463.563V185.136H479.724V168.812Z" fill="#333333"/>
<path d="M498.437 168.812H482.276V185.136H498.437V168.812Z" fill="#333333"/>
<path d="M504.23 185.136H500.989V168.812H503.294C503.686 173.669 504.017 179.122 504.23 185.136Z" fill="#333333"/>
<path d="M290.892 112.172H287.66V128.503H290.892V112.172Z" fill="#333333"/>
<path d="M309.606 112.172H293.444V128.503H309.606V112.172Z" fill="#333333"/>
<path d="M328.319 112.172H312.157V128.503H328.319V112.172Z" fill="#333333"/>
<path d="M344.769 112.172C345.518 112.555 346.266 112.937 347.032 113.312V128.503H330.871V112.172H344.769Z" fill="#333333"/>
<path d="M349.584 114.57C354.917 117.199 360.599 119.853 366.596 122.472V128.495H349.584V114.57Z" fill="#333333"/>
<path d="M381.141 128.526H369.147V123.609C373.017 125.268 377.015 126.91 381.141 128.526Z" fill="#333333"/>
<path d="M290.892 131.074H287.66V147.397H290.892V131.074Z" fill="#333333"/>
<path d="M309.606 131.074H293.444V147.397H309.606V131.074Z" fill="#333333"/>
<path d="M328.319 131.074H312.157V147.397H328.319V131.074Z" fill="#333333"/>
<path d="M347.032 131.074H330.871V147.397H347.032V131.074Z" fill="#333333"/>
<path d="M366.596 131.074H349.584V147.397H366.596V131.074Z" fill="#333333"/>
<path d="M385.308 131.074H369.147V147.397H385.308V131.074Z" fill="#333333"/>
<path d="M387.86 131.074C393.066 132.997 398.459 134.876 404.022 136.68V147.38H387.86V131.074Z" fill="#333333"/>
<path d="M406.573 137.477C411.813 139.135 417.197 140.717 422.735 142.206V147.369H406.573V137.477Z" fill="#333333"/>
<path d="M425.286 142.887C430.552 144.265 435.936 145.566 441.448 146.757V147.369H425.286V142.887Z" fill="#333333"/>
<path d="M444.323 147.373H444V147.305C444.11 147.33 444.212 147.347 444.323 147.373Z" fill="#333333"/>
<path d="M475.956 263.211H479.724V279.534H475.871C476.143 276.693 476.288 273.818 476.288 270.909C476.288 268.315 476.169 265.746 475.956 263.211Z" fill="#333333"/>
<path d="M498.437 263.211V269.514C497.876 272.814 497.264 276.157 496.6 279.534H482.276V263.211H498.437Z" fill="#333333"/>
<path d="M290.892 395.312H287.66V411.636H290.892V395.312Z" fill="#333333"/>
<path d="M366.595 395.312H353.258V411.636H366.595V395.312Z" fill="#333333"/>
<path d="M385.309 395.312H369.147V411.636H385.309V395.312Z" fill="#333333"/>
<path d="M404.022 395.312H387.86V411.636H404.022V395.312Z" fill="#333333"/>
<path d="M422.735 395.312H406.573V411.636H422.735V395.312Z" fill="#333333"/>
<path d="M441.448 395.312H425.286V411.636H441.448V395.312Z" fill="#333333"/>
<path d="M455.414 395.312C452.463 400.816 449.392 406.26 446.185 411.636H443.999V395.312H455.414Z" fill="#333333"/>
<path d="M366.595 376.445H353.258V392.768H366.595V376.445Z" fill="#333333"/>
<path d="M385.308 376.445H369.147V392.768H385.308V376.445Z" fill="#333333"/>
<path d="M404.021 376.445H387.86V392.768H404.021V376.445Z" fill="#333333"/>
<path d="M422.735 376.445H406.573V392.768H422.735V376.445Z" fill="#333333"/>
<path d="M441.448 376.445H425.286V392.768H441.448V376.445Z" fill="#333333"/>
<path d="M461.011 376.445V384.467C459.633 387.248 458.213 390.021 456.767 392.768H444V376.445H461.011Z" fill="#333333"/>
<path d="M464.89 376.445C464.456 377.372 464.014 378.3 463.563 379.227V376.445H464.89Z" fill="#333333"/>
<path d="M366.595 359.84H353.258V373.917H366.595V359.84Z" fill="#333333"/>
<path d="M385.308 359.84H369.147V373.917H385.308V359.84Z" fill="#333333"/>
<path d="M404.022 358.266V373.908H387.86V359.831C393.381 359.797 398.782 359.269 404.022 358.266Z" fill="#333333"/>
<path d="M422.735 357.578V373.901H406.573V357.731C406.82 357.689 407.058 357.638 407.305 357.578H422.735Z" fill="#333333"/>
<path d="M441.448 357.578H425.286V373.901H441.448V357.578Z" fill="#333333"/>
<path d="M461.011 357.578H444V373.901H461.011V357.578Z" fill="#333333"/>
<path d="M473.2 357.578C470.938 363.073 468.573 368.517 466.081 373.901H463.563V357.578H473.2Z" fill="#333333"/>
<path d="M416.236 355.038C418.447 354.281 420.608 353.439 422.734 352.512V355.038H416.236Z" fill="#333333"/>
<path d="M441.448 341.488V355.038H425.286V351.347C431.036 348.642 436.455 345.324 441.448 341.488Z" fill="#333333"/>
<path d="M461.011 338.711V355.034H443.999V339.451C444.297 339.213 444.595 338.958 444.892 338.711H461.011Z" fill="#333333"/>
<path d="M480.405 338.711C480.184 339.34 479.954 339.97 479.724 340.599C477.981 345.456 476.152 350.262 474.229 355.034H463.563V338.711H480.405Z" fill="#333333"/>
<path d="M498.396 395.312V411.636H482.073V409.943C484.685 405.111 487.185 400.229 489.601 395.312H498.396Z" fill="#333333"/>
<path d="M513.741 395.312C511.24 400.858 508.671 406.294 506.034 411.636H500.948V395.312H513.741Z" fill="#333333"/>
<path d="M376.31 93.3047H385.139V97.0984C382.111 95.848 379.168 94.5806 376.31 93.3047Z" fill="#333333"/>
<path d="M387.691 93.3047H404.014V104.354C398.349 102.355 392.906 100.28 387.691 98.1446V93.3047Z" fill="#333333"/>
<path d="M406.566 93.3047H422.889V109.628H420.108C415.472 108.224 410.955 106.761 406.566 105.247V93.3047Z" fill="#333333"/>
<path d="M441.772 93.3047H425.441V109.628H441.772V93.3047Z" fill="#333333"/>
<path d="M460.647 93.3047H444.324V109.628H460.647V93.3047Z" fill="#333333"/>
<path d="M479.386 93.3047C479.428 93.3047 479.479 93.3217 479.522 93.3302V109.628H463.199V93.3047H479.386Z" fill="#333333"/>
<path d="M482.073 93.8203C487.729 94.9261 493.182 95.9043 498.396 96.7719V109.616H482.073V93.8203Z" fill="#333333"/>
<path d="M500.948 97.2109C506.723 98.1466 512.184 98.9462 517.271 99.6267V109.638H500.948V97.2109Z" fill="#333333"/>
<path d="M519.823 99.9531C525.87 100.736 531.348 101.357 536.145 101.833V109.624H519.823V99.9531Z" fill="#333333"/>
<path d="M538.697 102.07C546.293 102.802 551.907 103.168 555.029 103.346V109.607H538.697V102.07Z" fill="#333333"/>
<path d="M558.388 109.609H557.58V103.477C557.742 103.485 557.827 103.485 557.827 103.485C558.023 105.535 558.21 107.576 558.388 109.609Z" fill="#333333"/>
<path d="M290.758 3.30884V15.2428H287.662V0C288.682 1.11429 289.712 2.22007 290.758 3.30884Z" fill="#333333"/>
<path d="M303.117 15.2314H293.31V5.92578C296.482 9.13255 299.757 12.2373 303.117 15.2314Z" fill="#333333"/>
<path d="M498.328 376.453H498.396V392.776H490.852C493.463 387.383 495.947 381.94 498.328 376.453Z" fill="#333333"/>
<path d="M517.271 376.453V387.315C516.488 389.144 515.689 390.964 514.889 392.776H500.948V376.453H517.271Z" fill="#333333"/>
<path d="M521.813 376.453C521.158 378.078 520.494 379.694 519.823 381.302V376.453H521.813Z" fill="#333333"/>
<path d="M290.758 17.8047H287.661V34.1363H290.758V17.8047Z" fill="#333333"/>
<path d="M306.034 17.8047C307.225 18.8254 308.425 19.8376 309.632 20.8328V34.1363H293.31V17.8047H306.034Z" fill="#333333"/>
<path d="M327.308 34.1342H312.184V22.9062C317.075 26.836 322.128 30.5787 327.308 34.1342Z" fill="#333333"/>
<path d="M428.954 112.18H441.772V115.455C437.409 114.425 433.139 113.328 428.954 112.18Z" fill="#333333"/>
<path d="M444.324 112.18H460.647V119.35C455.084 118.364 449.64 117.258 444.324 116.05V112.18Z" fill="#333333"/>
<path d="M463.198 112.18H479.521V122.166C473.976 121.502 468.532 120.703 463.198 119.793V112.18Z" fill="#333333"/>
<path d="M482.073 112.18H498.396V123.892C492.867 123.552 487.423 123.067 482.073 122.463V112.18Z" fill="#333333"/>
<path d="M500.948 112.18H517.271V124.539L515.212 124.513C510.398 124.462 505.643 124.301 500.948 124.046V112.18Z" fill="#333333"/>
<path d="M519.823 112.18H536.145V128.511H528.311L527.495 124.65L519.823 124.564V112.18Z" fill="#333333"/>
<path d="M555.029 112.18H538.697V128.511H555.029V112.18Z" fill="#333333"/>
<path d="M559.801 128.511H557.581V112.18H558.61C559.078 117.675 559.477 123.11 559.801 128.511Z" fill="#333333"/>
<path d="M532.182 149.941H536.145V166.264H533.9C533.381 159.859 532.769 154.382 532.182 149.941Z" fill="#333333"/>
<path d="M555.029 149.941H538.697V166.264H555.029V149.941Z" fill="#333333"/>
<path d="M561 166.264H557.58V149.941H560.745C560.898 155.428 560.983 160.872 561 166.264Z" fill="#333333"/>
<path d="M528.848 131.074H536.146V147.397H531.833C530.932 141.035 530.166 137.301 530.03 136.671L528.848 131.074Z" fill="#333333"/>
<path d="M555.029 131.074H538.697V147.397H555.029V131.074Z" fill="#333333"/>
<path d="M560.668 147.397H557.58V131.074H559.936C560.251 136.561 560.489 142.004 560.668 147.397Z" fill="#333333"/>
<path d="M517.271 357.578V373.901H500.948V370.312C502.7 366.101 504.384 361.848 506.009 357.578H517.271Z" fill="#333333"/>
<path d="M529.017 357.578C527.027 363.107 524.969 368.542 522.834 373.901H519.823V357.578H529.017Z" fill="#333333"/>
<path d="M535.04 187.676H536.146V203.999H535.159C535.227 198.249 535.176 192.805 535.04 187.676Z" fill="#333333"/>
<path d="M555.029 187.676H538.697V203.999H555.029V187.676Z" fill="#333333"/>
<path d="M560.685 187.676C560.506 193.171 560.26 198.615 559.945 203.999H557.58V187.676H560.685Z" fill="#333333"/>
<path d="M339.505 74.4375H347.39V78.9202C344.677 77.4146 342.048 75.9175 339.505 74.4375Z" fill="#333333"/>
<path d="M349.942 74.4375H366.265V88.6681C361.612 86.4225 357.214 84.1939 353.106 82.0164C352.034 81.4465 350.98 80.8851 349.942 80.3152V74.4375Z" fill="#333333"/>
<path d="M368.817 74.4375H385.14V90.7606H370.697C370.067 90.4628 369.438 90.1736 368.817 89.8759V74.4375Z" fill="#333333"/>
<path d="M404.014 74.4375H387.691V90.7606H404.014V74.4375Z" fill="#333333"/>
<path d="M409.314 74.4375C413.856 76.0281 418.389 77.5252 422.889 78.9372V90.7606H406.566V74.4375H409.314Z" fill="#333333"/>
<path d="M425.441 79.7148C430.936 81.416 436.388 82.9982 441.772 84.4612V90.7472H425.441V79.7148Z" fill="#333333"/>
<path d="M444.324 85.1562C449.853 86.6363 455.305 87.9888 460.647 89.2391V90.7532H444.324V85.1562Z" fill="#333333"/>
<path d="M467.273 90.7663H463.198V89.8477C464.568 90.1624 465.92 90.4686 467.273 90.7663Z" fill="#333333"/>
<path d="M287.661 36.6719H290.758V40.0147L287.661 37.1567V36.6719Z" fill="#333333"/>
<path d="M293.31 36.6719H309.632V52.9949H306.911C300.48 48.2316 295.878 44.4464 293.31 42.2603V36.6719Z" fill="#333333"/>
<path d="M328.507 36.6719H312.184V52.9949H328.507V36.6719Z" fill="#333333"/>
<path d="M331.101 36.6719C336.418 40.1849 341.853 43.5107 347.39 46.6665V52.9949H331.059V36.6719H331.101Z" fill="#333333"/>
<path d="M359.026 53.0003H349.942V48.1094C352.945 49.7936 355.973 51.4182 359.026 53.0003Z" fill="#333333"/>
<path d="M312.184 55.5391H328.507V67.7367C322.357 63.8495 316.897 60.1578 312.184 56.8065V55.5391Z" fill="#333333"/>
<path d="M331.059 55.5391H347.39V71.8621H335.21C333.798 71.0115 332.411 70.1694 331.059 69.3273V55.5391Z" fill="#333333"/>
<path d="M364.07 55.5391C364.802 55.9048 365.533 56.2621 366.265 56.6193V71.8621H349.942V55.5391H364.07Z" fill="#333333"/>
<path d="M368.817 57.8672C374.218 60.4445 379.67 62.8772 385.14 65.1739V71.8851H368.817V57.8672Z" fill="#333333"/>
<path d="M402.202 71.8707H387.691V66.2227C392.522 68.2131 397.362 70.0929 402.202 71.8707Z" fill="#333333"/>
<path d="M534.095 168.809H536.145V185.132H534.963C534.776 179.22 534.47 173.759 534.095 168.809Z" fill="#333333"/>
<path d="M555.029 168.809H538.697V185.132H555.029V168.809Z" fill="#333333"/>
<path d="M561 168.809C560.991 174.303 560.906 179.747 560.762 185.132H557.581V168.809H561Z" fill="#333333"/>
<path d="M513.528 336.151C514.83 332.102 516.08 328.036 517.271 323.953V336.151H513.528Z" fill="#333333"/>
<path d="M536.145 319.812H519.823V336.144H536.145V319.812Z" fill="#333333"/>
<path d="M540.994 319.812C540.245 322.526 539.48 325.214 538.697 327.893V319.812H540.994Z" fill="#333333"/>
<path d="M535.116 206.578H536.145V222.901H534.521C534.827 217.245 535.023 211.792 535.116 206.578Z" fill="#333333"/>
<path d="M555.029 206.578H538.697V222.901H555.029V206.578Z" fill="#333333"/>
<path d="M559.792 206.578C559.443 212.082 559.018 217.517 558.524 222.901H557.58V206.578H559.792Z" fill="#333333"/>
<path d="M523.301 300.945H536.145V317.268H519.151C519.38 316.443 519.601 315.618 519.823 314.793C520.792 311.178 521.728 307.555 522.604 303.905C522.842 302.919 523.072 301.932 523.301 300.945Z" fill="#333333"/>
<path d="M545.842 300.945C544.532 306.457 543.154 311.901 541.7 317.268H538.697V300.945H545.842Z" fill="#333333"/>
<path d="M512.703 338.715H517.271V355.038H506.97C508.986 349.637 510.9 344.193 512.703 338.715Z" fill="#333333"/>
<path d="M535.397 338.715C533.645 344.235 531.824 349.679 529.928 355.038H519.823V338.715H535.397Z" fill="#333333"/>
<path d="M527.299 282.078H536.146V298.401H523.888C525.156 292.872 526.287 287.428 527.299 282.078Z" fill="#333333"/>
<path d="M549.976 282.078C548.87 287.59 547.697 293.034 546.446 298.401H538.697V282.078H549.976Z" fill="#333333"/>
<path d="M534.367 225.445H536.145V241.777H533.074C533.627 236.163 534.053 230.719 534.367 225.445Z" fill="#333333"/>
<path d="M555.029 225.445H538.697V241.777H555.029V225.445Z" fill="#333333"/>
<path d="M558.286 225.445C558.065 227.767 557.827 230.073 557.58 232.369V225.445H558.286Z" fill="#333333"/>
<path d="M532.82 244.309H536.146V260.632H530.829C531.612 255.052 532.267 249.608 532.82 244.309Z" fill="#333333"/>
<path d="M555.029 244.309V252.627C554.637 255.307 554.238 257.978 553.812 260.632H538.697V244.309H555.029Z" fill="#333333"/>
<path d="M530.464 263.18H536.146V279.503H527.776C528.796 273.957 529.69 268.513 530.464 263.18Z" fill="#333333"/>
<path d="M553.413 263.18C552.511 268.692 551.524 274.127 550.478 279.503H538.697V263.18H553.413Z" fill="#333333"/>
<path d="M422.863 270.916C422.863 271.919 422.82 272.915 422.735 273.893V267.973C422.82 268.942 422.863 269.921 422.863 270.916Z" fill="#333333"/>
<path d="M463.249 317.294C463.359 317.123 463.461 316.945 463.564 316.766V317.294H463.249Z" fill="#333333"/>
<path d="M480.405 338.715C480.184 339.344 479.954 339.974 479.725 340.603V338.715H480.405Z" fill="#333333"/>
<path d="M519.15 317.288C519.38 316.463 519.601 315.638 519.822 314.812V317.288H519.15Z" fill="#333333"/>
</svg>
