<svg width="24" height="24" viewBox="0 0 24 24" fill="none" xmlns="http://www.w3.org/2000/svg">
<path d="M12.1253 2V9.36194C12.1253 9.39319 12.094 9.42444 12.0628 9.42444C11.844 9.51998 11.6565 9.61463 11.4377 9.70927C11.1565 9.83517 10.844 9.96196 10.5627 10.12L9.53141 10.5932L8.68762 10.9727L7.65632 11.4469C7.37506 11.5736 7.0938 11.6995 6.78128 11.8576C6.56253 11.9522 6.31251 12.079 6.09375 12.1737C6.0625 12.1737 6.0625 12.2049 6.03125 12.1737H6C6.09375 12.0156 6.18751 11.8888 6.28126 11.7317C6.78128 10.8781 7.31256 10.0254 7.81258 9.17175C8.34385 8.25653 8.90638 7.33952 9.43765 6.42341C9.93768 5.5707 10.4377 4.71798 10.9377 3.89651C11.3127 3.26345 11.6878 2.66432 12.0315 2.03125C12.094 2.03125 12.094 2 12.1253 2C12.1253 2 12.094 2 12.1253 2Z" fill="#8C8C8C"/>
<path d="M18.188 12.1731C17.7192 12.4891 17.2192 12.7731 16.7505 13.057C15.2191 13.974 13.7191 14.8589 12.1877 15.775C12.1565 15.775 12.1565 15.8063 12.1252 15.8063C12.094 15.8063 12.094 15.775 12.094 15.775V9.42383C12.094 9.39258 12.1252 9.39258 12.1565 9.39258C12.2815 9.45508 12.4065 9.51937 12.5628 9.58187C12.9378 9.77206 13.344 9.9301 13.7191 10.1194C14.0628 10.2774 14.3753 10.4355 14.7191 10.5614C15.0629 10.7194 15.3754 10.8775 15.7192 11.0355C16.0004 11.1623 16.3129 11.2882 16.5942 11.4462C16.8755 11.573 17.188 11.6989 17.4692 11.857C17.688 11.9516 17.9068 12.0784 18.1568 12.1731C18.1568 12.1418 18.1568 12.1731 18.188 12.1731Z" fill="#141414"/>
<path d="M12.1253 22.0004C12.094 22.0004 12.1253 22.0004 12.1253 22.0004C12.094 22.0004 12.094 22.0004 12.0628 21.9682C11.4377 21.0843 10.844 20.2307 10.2189 19.3458L8.34385 16.6921C7.75008 15.8394 7.12505 14.9867 6.53127 14.1009L6.0625 13.4375C6.0625 13.4063 6.03125 13.4063 6.03125 13.375C6.0625 13.375 6.0625 13.4063 6.09375 13.4063C6.93754 13.9116 7.81258 14.417 8.65637 14.9224C9.62516 15.5233 10.6252 16.0921 11.594 16.6921C11.7503 16.7868 11.9378 16.8814 12.094 16.9761C12.1253 16.9761 12.1253 17.0082 12.1253 17.0394V22.0004Z" fill="#8C8C8C"/>
<path d="M6 11.843C6 11.8117 6 11.8117 6 11.843C6.31251 11.6849 6.62503 11.559 6.93754 11.401L8.15635 10.8322C8.46886 10.6742 8.78137 10.5483 9.09389 10.3902C9.53141 10.1688 10.0002 9.97951 10.4377 9.75807C10.7502 9.63128 11.0627 9.47324 11.3752 9.34734C11.594 9.25269 11.8128 9.15804 12.0315 9.03125C12.0628 9.03125 12.0628 9 12.094 9V15.4449C12.0628 15.4771 12.0628 15.4449 12.0315 15.4449C11.9378 15.3824 11.844 15.3503 11.7815 15.2869L6.0625 11.8751C6.03125 11.843 6 11.843 6 11.843ZM18.0943 13.0127C18.0943 13.0439 18.0943 13.0439 18.063 13.0752C16.2505 15.6664 14.4379 18.2254 12.6253 20.8166C12.4378 21.1005 12.2503 21.3532 12.0628 21.6381V16.6137C12.469 16.361 12.8753 16.1084 13.2816 15.8878L18.063 13.0439C18.063 13.0127 18.0943 13.0127 18.0943 13.0127Z" fill="#3C3C3B"/>
<path d="M12.1252 9.39335V2.0332L18.1255 12.0801C18.1568 12.1113 18.188 12.1426 18.188 12.1747C18.063 12.1122 17.938 12.0479 17.7817 11.9854C17.6255 11.922 17.4692 11.8274 17.313 11.764C17.2192 11.7327 17.1255 11.6693 17.0005 11.6372C16.8442 11.5747 16.6567 11.4792 16.5004 11.4167C16.4067 11.3845 16.3129 11.322 16.2192 11.2899L15.5629 11.0059C15.4379 10.9425 15.3441 10.9113 15.2191 10.8479C15.0629 10.7845 14.9066 10.6898 14.7504 10.6264C14.6566 10.5952 14.5629 10.5318 14.4691 10.5005L13.8128 10.2157C13.6878 10.1532 13.5941 10.1211 13.4691 10.0577C13.3128 9.99517 13.1565 9.89963 13.0003 9.83623C12.9065 9.77373 12.7815 9.74158 12.6878 9.67908L12.1252 9.39425V9.39335Z" fill="#343434"/>
</svg>
