<svg width="48" height="48" viewBox="0 0 48 48" fill="none" xmlns="http://www.w3.org/2000/svg">
<path d="M17.211 10.0809C17.211 10.0809 15.7465 7.26861 14.0191 7.93112C12.2918 8.59362 11.8914 9.00918 12.0039 10.6102C12.1163 12.2112 12.3967 14.0054 12.5173 14.5302C12.6373 15.0557 13.7318 14.9843 15.0208 13.7863C16.3098 12.5888 16.6603 13.0675 16.7228 12.7777C16.7854 12.4878 17.271 10.8262 17.3424 10.6411C17.4138 10.4561 17.211 10.0803 17.211 10.0803V10.0809Z" fill="#541A19"/>
<path d="M32.8503 10.6442C32.8503 10.6442 33.7642 12.3431 34.3086 11.4355C34.853 10.528 35.6481 11.9458 35.7043 12.3809C35.7605 12.8161 36.7559 12.0955 36.831 12.0967C36.9062 12.098 37.8636 12.9405 37.8636 12.9405C37.8636 12.9405 39.4785 11.0503 39.1406 10.1749C38.8027 9.29959 37.9015 8.07059 37.4506 7.27609C36.9996 6.48223 37.8447 5.84562 36.2866 5.59679C34.7279 5.34732 34.4842 5.00755 33.3954 5.70668C32.3066 6.40581 31.9308 6.19803 31.0674 7.2382C30.2035 8.27837 29.3023 9.52632 29.0395 9.772C28.7768 10.0177 32.851 10.6442 32.851 10.6442H32.8503Z" fill="#141217"/>
<path d="M11.6451 34.9259C11.6451 34.9259 13.2297 30.3344 15.5765 30.2397C17.9234 30.145 20.2519 31.4687 22.1479 30.2397C24.0444 29.0107 26.7292 26.0336 26.9167 25.0357C27.1043 24.0379 27.6304 18.9892 26.8043 16.2476C25.9782 13.506 21.2094 9.36494 20.0265 9.11926C18.8436 8.87359 18.2051 8.81675 17.7548 10.0836C17.3038 11.3505 16.9849 12.7494 16.9097 12.8821C16.8346 13.0147 13.361 23.0356 12.6474 23.5086C11.9337 23.981 10.8051 24.2109 9.58687 24.2835C8.3686 24.3562 9.4713 35.4898 9.84644 35.433C10.2222 35.3762 11.6445 34.9252 11.6445 34.9252L11.6451 34.9259Z" fill="#F59331"/>
<path d="M30.5979 13.5349C30.5979 13.5349 27.8191 18.8482 28.0256 20.8331C28.2321 22.8187 28.0629 25.6355 28.4197 26.2032C28.7765 26.7704 34.6531 27.5649 35.1224 28.2261C35.5916 28.888 37.5634 29.7576 37.9953 29.5688C38.4273 29.38 40.3049 29.5877 40.718 30.2496C41.131 30.9115 42.0133 31.6112 42.1263 31.6302C42.2394 31.6491 43.0276 31.4035 42.7838 30.2496C42.54 29.0964 42.8589 28.8507 42.0139 27.6217C41.1689 26.3927 39.686 21.25 39.686 19.1696C39.686 17.0893 37.6581 11.3604 35.9308 10.7554C34.2035 10.1504 31.2775 12.1549 30.5986 13.5349H30.5979Z" fill="#F59331"/>
<path d="M33.9081 26.8961C33.9081 26.8961 30.5532 23.2912 25.0208 25.232C23.4438 25.7865 21.7683 28.1485 21.0401 28.4087C21.0401 28.4087 19.424 30.155 18.555 30.1771C17.6859 30.1985 20.7648 30.9678 20.7648 30.9678C20.7648 30.9678 24.0192 29.5935 24.1947 29.3415C24.3703 29.0895 25.8399 27.839 26.2315 27.5188C26.6231 27.1986 30.7288 27.2081 32.0052 27.4178C33.2822 27.6275 35.1781 28.0096 35.5526 28.1106C35.9271 28.2123 34.1512 27.1273 33.9081 26.8961Z" fill="#B0582B"/>
<path d="M17.5107 10.1818C17.5107 10.1818 25.0711 10.1818 26.0222 23.0895C26.0222 23.0895 28.4253 22.6354 28.6255 22.7364C28.8257 22.8375 28.4752 17.1396 31.7801 14.165L32.1679 14.2155C32.1679 14.2155 31.4921 13.4842 31.1662 13.4589C31.1662 13.4589 32.4931 13.3578 33.1815 13.7109C33.1815 13.7109 32.6308 12.9296 31.9298 12.8791C31.9298 12.8791 33.0811 12.7781 33.9324 13.2195C33.9324 13.2195 33.3691 12.1857 31.9045 12.0095C31.9045 12.0095 33.1815 11.5181 34.8836 12.0474C34.8836 12.0474 33.9823 10.9257 31.7289 10.7236C31.7289 10.7236 33.6691 9.86661 34.3575 8.75696C34.3575 8.75696 31.153 8.98369 30.1267 9.21105C30.1267 9.21105 31.7605 7.53428 31.7226 6.77767C31.1151 7.19829 27.9169 7.56459 25.6528 8.26877C25.3098 8.3755 24.833 8.82391 24.5684 8.9338C24.5684 8.9338 24.982 6.62673 26.2717 5.92065C26.2717 5.92065 23.856 6.60147 22.279 8.06352C22.279 8.06352 23.568 6.99177 23.6937 5.35352C23.6937 5.35352 20.6521 8.03826 17.147 9.61398L17.5101 10.1811L17.5107 10.1818Z" fill="#FBFBFB"/>
<mask id="mask0_2844_4744" style="mask-type:luminance" maskUnits="userSpaceOnUse" x="17" y="5" width="18" height="19">
<path d="M17.5112 10.1818C17.5112 10.1818 25.0716 10.1818 26.0227 23.0895C26.0227 23.0895 28.4258 22.6354 28.626 22.7364C28.8262 22.8375 28.4757 17.1396 31.7806 14.165L32.1684 14.2155C32.1684 14.2155 31.4926 13.4842 31.1667 13.4589C31.1667 13.4589 32.4936 13.3578 33.182 13.7109C33.182 13.7109 32.6313 12.9296 31.9303 12.8791C31.9303 12.8791 33.0816 12.7781 33.9329 13.2195C33.9329 13.2195 33.3696 12.1857 31.905 12.0095C31.905 12.0095 33.182 11.5181 34.884 12.0474C34.884 12.0474 33.9828 10.9257 31.7294 10.7236C31.7294 10.7236 33.6696 9.86661 34.358 8.75696C34.358 8.75696 31.1535 8.98369 30.1272 9.21105C30.1272 9.21105 31.761 7.53428 31.7231 6.77767C31.1156 7.19829 27.9174 7.56459 25.6532 8.26877C25.3103 8.3755 24.8335 8.82391 24.5689 8.9338C24.5689 8.9338 24.9825 6.62673 26.2722 5.92065C26.2722 5.92065 23.8565 6.60147 22.2795 8.06352C22.2795 8.06352 23.5685 6.99177 23.6942 5.35352C23.6942 5.35352 20.6526 8.03826 17.1475 9.61398L17.5106 10.1811L17.5112 10.1818Z" fill="white"/>
</mask>
<g mask="url(#mask0_2844_4744)">
<path d="M22.394 10.0297C22.394 10.0297 24.4068 8.71232 26.2168 8.43822L25.1981 5.71875C25.1981 5.71875 23.5769 9.0622 22.394 10.0297Z" fill="#FBFBFB"/>
</g>
<path d="M11.9152 33.351C12.2657 30.641 15.1361 29.0255 17.6604 29.9096C21.115 31.1197 21.6032 29.5692 23.8187 26.9603C26.7523 23.505 32.0049 25.5614 33.2819 26.9603C33.2819 26.9603 34.6713 27.3765 36.3986 28.5107C36.3986 28.5107 37.9573 28.3472 38.7834 27.9183C39.6095 27.4895 40.9989 29.1094 41.381 29.885C41.7624 30.6599 41.9443 34.7884 38.5396 36.402C35.1349 38.0156 34.5842 40.9903 32.0807 41.2422C29.5772 41.4942 25.822 41.5953 24.2197 41.1412C22.6175 40.6871 18.0615 40.2842 16.5091 38.7211C14.9567 37.158 11.7522 34.6134 11.9152 33.351Z" fill="#FAF7EE"/>
<path d="M23.1929 17.0397C23.1929 17.0397 17.5101 20.0649 15.6325 22.3593C13.7549 24.6538 12.8537 24.578 12.8789 24.4517C12.9042 24.3254 14.5311 22.7623 14.7818 20.0902C15.0319 17.418 16.559 13.611 17.9857 12.653C17.9857 12.653 18.3362 12.0732 18.0356 12.0985C17.7356 12.1237 16.5836 12.5273 15.9578 12.25C15.3319 11.9728 13.5547 13.0818 13.2793 13.6868C13.004 14.2918 13.3785 14.7706 12.8783 17.0145C12.3781 19.2584 12.7539 21.1992 11.6272 21.7796C10.5005 22.3593 8.42584 22.3252 7.95028 24.2407C7.47472 26.1569 7.84229 26.8629 7.89723 27.1743C7.82208 27.3505 9.22413 26.796 9.29928 26.4682C9.22097 27.0322 9.35865 30.9087 8.15996 32.1787C8.15996 32.1787 10.3635 32.9726 11.9089 26.1657C11.9089 26.1657 13.0665 25.3592 14.8311 26.0141C16.5963 26.6697 19.3 28.2328 20.714 27.1863C22.1287 26.1398 24.0436 24.9929 24.0808 22.7111C24.1181 20.4293 23.1297 17.7951 23.2547 17.3663C23.3798 16.9374 23.239 17.0132 23.1922 17.0385L23.1929 17.0397Z" fill="#A24924"/>
<path d="M31.9055 12.0083C33.7452 11.5157 36.8872 13.2689 37.5257 16.5966C38.1642 19.9242 38.2014 20.5293 38.2014 20.5293C36.8872 18.0334 31.8928 16.1425 31.8928 16.1425C29.8024 21.5 31.8303 23.5418 31.8303 23.5418L38.4831 25.0007C38.4831 25.0007 38.9429 24.7361 39.2997 24.5378C39.6565 24.3394 40.9241 24.8971 40.9241 24.8971C40.9241 24.8971 41.0182 24.6135 41.243 23.706C41.4685 22.7984 40.7176 21.6642 39.4778 20.7566C38.2387 19.8491 37.6943 14.2643 36.8682 12.9399C36.0422 11.6155 34.9256 10.4522 31.7299 10.7231C31.7299 10.7231 33.5399 10.7124 34.8845 12.0469C34.0288 11.7709 32.5781 11.6389 31.9055 12.009" fill="#AD3F21"/>
<path d="M17.8359 18.2492C17.8359 18.2492 21.0152 16.5099 22.6427 16.5352C22.4678 16.1063 19.8386 14.5186 17.8359 18.2492Z" fill="#101032"/>
<path d="M36.4612 17.4699C36.4612 17.4699 33.6129 15.7306 32.1553 15.7559C32.3125 15.327 34.667 13.7393 36.4612 17.4699Z" fill="#101032"/>
<path d="M28.6254 22.7371C28.6254 22.7371 28.4423 24.4107 29.4818 25.1888C29.4818 25.1888 27.1192 24.8055 25.5908 25.5943C25.5908 25.5943 26.0089 24.1272 26.0215 23.0902C26.0215 23.0902 28.4372 22.5799 28.6248 22.7371H28.6254Z" fill="#E8E1D1"/>
<path d="M10.1097 31.1348C10.1893 32.8052 10.1306 34.7769 9.79395 35.3542C9.79395 35.3542 11.2743 34.6393 11.2869 33.6559C11.2996 32.6726 10.0977 31.3868 10.1104 31.1348H10.1097Z" fill="#A24924"/>
<path d="M24.6916 31.0055C24.6916 31.0055 24.6203 34.1064 29.0266 34.6862C29.0266 34.6862 27.3745 36.6276 22.6176 35.1901C22.6176 35.1901 21.0065 34.8504 19.8887 33.0473C18.7708 31.2442 17.6106 32.3917 17.3852 32.6437C17.1597 32.8957 16.8427 34.1923 16.9393 33.9946C17.2961 33.2639 21.1549 38.394 20.6143 39.3243C20.1868 40.0607 14.2053 37.3576 11.8022 33.5513C11.8022 33.5513 11.5894 34.1879 11.6582 34.5472C11.7271 34.9066 12.9289 40.0304 20.4141 41.997C20.4141 41.997 24.6449 44.1917 26.5724 44.6957C28.4999 45.1996 31.88 44.846 32.756 43.3075C33.6319 41.7697 33.7898 41.1495 34.0885 40.8621C34.3873 40.5748 40.2165 37.0936 40.7672 35.3663C41.3179 33.639 41.9918 32.3437 41.58 31.2208C41.1683 30.0973 41.4683 30.5008 41.143 31.913C40.8177 33.3245 38.4892 36.577 34.9847 37.8881C34.9847 37.8881 36.9874 35.972 37.288 32.6696C37.288 32.6696 34.6096 34.863 32.5564 34.611C30.5038 34.359 31.1543 34.1323 31.1543 34.1323C31.1543 34.1323 33.4747 32.7113 33.4538 31.4179C33.4323 30.1238 24.6916 31.0061 24.6916 31.0061V31.0055Z" fill="#9E9083"/>
<path d="M16.8343 34.219C16.8343 34.219 16.9467 32.1772 17.9982 32.6306C19.0498 33.0847 19.4628 35.2901 21.1648 36.185C21.1648 36.185 25.496 38.9329 29.9018 35.58C29.9018 35.58 30.2024 35.4411 30.227 34.1811C30.227 34.1811 30.2643 35.4796 30.4651 35.58C30.6659 35.6804 34.233 37.5719 36.7611 33.5256C36.7611 33.5256 37.9699 30.6741 34.6492 27.5176C34.6492 27.5176 39.0814 29.6093 36.8861 34.6238C36.8861 34.6238 35.9097 35.8162 34.9334 36.336C33.957 36.8557 33.3178 39.7609 32.4457 40.4202C31.4661 41.1611 29.7887 42.1595 27.0004 40.5244C27.0004 40.5244 25.5826 38.9077 22.1842 37.8871C22.1842 37.8871 20.2125 36.9416 18.3917 34.3327C18.3917 34.3327 17.678 32.253 16.833 34.219H16.8343Z" fill="#0B0A0F"/>
<mask id="mask1_2844_4744" style="mask-type:luminance" maskUnits="userSpaceOnUse" x="25" y="36" width="9" height="5">
<path d="M29.3019 40.6868C29.3019 40.6868 27.8493 40.8642 25.9787 38.2098C25.9787 38.2098 25.3964 37.7936 25.7159 37.7557C26.0349 37.7178 28.1379 37.5669 30.1096 36.3379C30.1096 36.3379 31.1233 36.9619 33.0388 36.6972C33.2971 37.1014 33.2952 41.324 29.3025 40.6868H29.3019Z" fill="white"/>
</mask>
<g mask="url(#mask1_2844_4744)">
<path d="M25.7347 38.6192C25.7347 38.6192 25.3589 37.5853 25.3589 37.5102C25.3589 37.435 28.5508 35.6831 29.2891 35.3547C30.0273 35.0269 32.3685 35.3547 32.4058 35.3547C32.443 35.3547 33.7453 36.5521 33.7699 36.7283C33.7952 36.9045 34.0706 38.016 33.8325 38.5446C33.5944 39.0726 33.0436 40.3458 32.4058 40.5227C31.7673 40.6989 31.317 41.1909 30.1404 40.9768C28.9638 40.7627 27.1727 40.469 26.8424 40.2707C26.5121 40.0724 25.7347 38.6192 25.7347 38.6192Z" fill="#702C2D"/>
<path d="M29.3771 40.4777C29.3771 40.4777 26.6867 39.4703 27.4439 38.5438C28.2264 37.587 29.9973 37.5093 30.3169 37.7929C30.6364 38.0765 30.9554 38.5577 31.0305 38.5438C31.1057 38.5299 30.6927 37.7215 30.7868 37.587C30.8809 37.4525 32.7016 37.6041 32.8709 37.15C33.0401 36.6959 33.2277 36.6776 33.3029 36.7906C33.378 36.9037 33.6218 38.7383 33.3218 39.1729C33.0212 39.608 31.136 41.4862 29.3778 40.4777H29.3771Z" fill="#A14E4D"/>
<path d="M27.5115 39.1362C27.5115 39.1362 27.0865 38.8527 27.7812 38.6638C28.4759 38.475 30.1659 38.4939 30.6725 38.7775C31.1796 39.0611 31.4985 38.5508 31.4423 38.1535C31.4423 38.1535 32.9637 38.2457 33.1961 37.9123C33.4286 37.5788 33.282 40.3842 32.5501 40.5547C31.8181 40.7246 28.7393 41.4446 27.5109 39.1369L27.5115 39.1362Z" fill="#E78A85"/>
<path d="M29.1893 39.8554C29.7216 39.8554 30.1531 39.6945 30.1531 39.4961C30.1531 39.2976 29.7216 39.1367 29.1893 39.1367C28.6571 39.1367 28.2256 39.2976 28.2256 39.4961C28.2256 39.6945 28.6571 39.8554 29.1893 39.8554Z" fill="#F5B3A7"/>
</g>
<path d="M29.3014 40.6868C29.3014 40.6868 27.8488 40.8642 25.9782 38.2098C25.9782 38.2098 25.3959 37.7936 25.7154 37.7557C26.0344 37.7178 28.1374 37.5669 30.1092 36.3379C30.1092 36.3379 31.1228 36.9619 33.0383 36.6972C33.2966 37.1014 33.2947 41.324 29.302 40.6868H29.3014Z" stroke="#231F20" stroke-width="0.0631555" stroke-linecap="round" stroke-linejoin="round"/>
<path d="M19.2772 28.1095C21.2203 28.1095 22.7956 26.5232 22.7956 24.5665C22.7956 22.6097 21.2203 21.0234 19.2772 21.0234C17.334 21.0234 15.7588 22.6097 15.7588 24.5665C15.7588 26.5232 17.334 28.1095 19.2772 28.1095Z" fill="#E57326"/>
<mask id="mask2_2844_4744" style="mask-type:luminance" maskUnits="userSpaceOnUse" x="15" y="21" width="8" height="8">
<path d="M19.2772 28.1095C21.2203 28.1095 22.7956 26.5232 22.7956 24.5665C22.7956 22.6097 21.2203 21.0234 19.2772 21.0234C17.334 21.0234 15.7588 22.6097 15.7588 24.5665C15.7588 26.5232 17.334 28.1095 19.2772 28.1095Z" fill="white"/>
</mask>
<g mask="url(#mask2_2844_4744)">
<path d="M14.1619 26.9019C14.1619 26.9019 17.3165 24.4818 20.2204 23.8262C23.1243 23.1707 20.7458 21.2798 20.2204 20.9773C19.6949 20.6748 14.5629 21.1036 14.0116 21.6329C13.4608 22.1621 13.8114 24.8601 13.7861 25.5403C13.7608 26.2205 14.1619 26.9019 14.1619 26.9019Z" fill="#7D3421"/>
<path d="M20.5903 26.7818C22.208 26.7818 23.5194 25.3686 23.5194 23.6253C23.5194 21.882 22.208 20.4688 20.5903 20.4688C18.9726 20.4688 17.6611 21.882 17.6611 23.6253C17.6611 25.3686 18.9726 26.7818 20.5903 26.7818Z" fill="#171216"/>
<path d="M19.0941 24.6141C19.6298 24.6141 20.0642 24.1286 20.0642 23.5297C20.0642 22.9308 19.6298 22.4453 19.0941 22.4453C18.5583 22.4453 18.124 22.9308 18.124 23.5297C18.124 24.1286 18.5583 24.6141 19.0941 24.6141Z" fill="#FFFFFA"/>
<path d="M21.6471 24.4633C21.8578 24.4633 22.0285 24.2914 22.0285 24.0793C22.0285 23.8672 21.8578 23.6953 21.6471 23.6953C21.4364 23.6953 21.2656 23.8672 21.2656 24.0793C21.2656 24.2914 21.4364 24.4633 21.6471 24.4633Z" fill="#FFFFFA"/>
<path d="M18.7852 26.9839C18.9052 26.7781 18.61 26.3824 18.1258 26.1C17.6416 25.8177 17.1518 25.7556 17.0318 25.9614C16.9117 26.1672 17.207 26.5629 17.6912 26.8453C18.1754 27.1276 18.6652 27.1897 18.7852 26.9839Z" fill="#E8F4E6"/>
</g>
<path d="M19.2772 28.1095C21.2203 28.1095 22.7956 26.5232 22.7956 24.5665C22.7956 22.6097 21.2203 21.0234 19.2772 21.0234C17.334 21.0234 15.7588 22.6097 15.7588 24.5665C15.7588 26.5232 17.334 28.1095 19.2772 28.1095Z" stroke="#231F20" stroke-width="0.378933" stroke-miterlimit="10"/>
<mask id="mask3_2844_4744" style="mask-type:luminance" maskUnits="userSpaceOnUse" x="31" y="19" width="8" height="8">
<path d="M38.1696 23.2538C38.0881 24.7058 38.2448 24.9502 37.7149 25.5944C37.2987 26.0996 36.5743 26.1659 35.8625 26.1659C33.5536 26.1659 31.6816 24.4614 31.6816 22.3589C31.6816 21.3977 32.0732 20.5198 32.7187 19.8497C33.4847 19.0546 34.9285 19.5289 36.0381 20.115C36.2882 20.2476 38.258 21.6958 38.1702 23.2538H38.1696Z" fill="white"/>
</mask>
<g mask="url(#mask3_2844_4744)">
<path d="M35.2834 26.8094C37.704 26.8094 39.6664 24.4062 39.6664 21.4418C39.6664 18.4774 37.704 16.0742 35.2834 16.0742C32.8627 16.0742 30.9004 18.4774 30.9004 21.4418C30.9004 24.4062 32.8627 26.8094 35.2834 26.8094Z" fill="#F7F7F7"/>
<path d="M34.5225 26.6702C36.2438 26.6702 37.6392 24.9151 37.6392 22.7501C37.6392 20.5851 36.2438 18.8301 34.5225 18.8301C32.8012 18.8301 31.4058 20.5851 31.4058 22.7501C31.4058 24.9151 32.8012 26.6702 34.5225 26.6702Z" fill="#F26F1A"/>
<path d="M32.1563 23.4809C32.1563 23.4809 34.2215 21.2117 38.878 25.3338C38.878 25.3338 42.1639 23.3905 38.4087 21.0247C34.6535 18.6589 34.7476 16.0999 33.0765 18.2497C31.4054 20.3989 30.3065 21.5616 30.8983 22.6112C31.49 23.6609 31.365 23.7657 32.1563 23.4809Z" fill="#7D3421"/>
<path d="M35.283 25.2181C36.7399 25.2181 37.921 23.5275 37.921 21.4421C37.921 19.3566 36.7399 17.666 35.283 17.666C33.8261 17.666 32.645 19.3566 32.645 21.4421C32.645 23.5275 33.8261 25.2181 35.283 25.2181Z" fill="#131017"/>
<path d="M34.034 22.7385C34.5041 22.7385 34.8853 22.3152 34.8853 21.7931C34.8853 21.2709 34.5041 20.8477 34.034 20.8477C33.5638 20.8477 33.1826 21.2709 33.1826 21.7931C33.1826 22.3152 33.5638 22.7385 34.034 22.7385Z" fill="#F7F7F7"/>
<path d="M36.0798 22.9268C36.2909 22.9268 36.4619 22.7263 36.4619 22.479C36.4619 22.2317 36.2909 22.0312 36.0798 22.0312C35.8688 22.0312 35.6978 22.2317 35.6978 22.479C35.6978 22.7263 35.8688 22.9268 36.0798 22.9268Z" fill="#F7F7F7"/>
</g>
<path d="M38.1686 23.2538C38.0872 24.7058 38.2438 24.9502 37.7139 25.5944C37.2977 26.0996 36.5733 26.1659 35.8616 26.1659C33.5526 26.1659 31.6807 24.4614 31.6807 22.3589C31.6807 21.3977 32.0722 20.5198 32.7177 19.8497C33.4838 19.0546 34.9275 19.5289 36.0371 20.115C36.2872 20.2476 38.257 21.6958 38.1693 23.2538H38.1686Z" stroke="#231F20" stroke-width="0.378933" stroke-linecap="round" stroke-linejoin="round"/>
<path d="M29.842 34.1563C24.2887 33.7439 21.8623 27.6462 29.4536 29.0647C34.4378 26.0307 36.3899 31.5884 30.267 34.0881C30.1325 34.143 29.9866 34.167 29.842 34.1563Z" fill="#E91C24"/>
<mask id="mask4_2844_4744" style="mask-type:luminance" maskUnits="userSpaceOnUse" x="24" y="28" width="11" height="7">
<path d="M29.841 34.1563C24.2878 33.7439 21.8613 27.6462 29.4526 29.0647C34.4368 26.0307 36.389 31.5884 30.266 34.0881C30.1315 34.143 29.9856 34.167 29.841 34.1563Z" fill="white"/>
</mask>
<g mask="url(#mask4_2844_4744)">
<path d="M30.4844 29.0893C31.4418 28.7173 33.1281 28.5089 33.5114 29.7549C33.5607 29.9135 33.5689 30.0789 33.5702 30.2406C33.5411 30.0808 33.5165 29.921 33.4527 29.7752C33.0036 28.6421 31.4418 28.8941 30.4844 29.0893Z" fill="white"/>
<path d="M24.8516 29.3602C24.8516 29.3602 23.7236 31.8283 29.8731 33.5531C29.8731 33.5531 31.9111 33.4527 33.1319 32.3424C34.352 31.2322 34.8219 34.4461 34.6154 34.6918C34.4089 34.9375 31.2359 36.1097 29.0577 35.9587C26.8795 35.8071 24.364 35.0663 23.9882 34.4632C23.6124 33.8601 23.0497 31.1747 23.3308 30.0973C23.6124 29.0192 24.8516 29.3596 24.8516 29.3596V29.3602Z" fill="#D00B1A"/>
</g>
<path d="M12.29 5.89676L0.874023 15.0543C0.874023 15.0543 3.01436 24.4904 10.5684 24.011C10.5684 24.011 12.6273 24.4651 13.0782 17.6582C13.5291 10.8513 12.4397 8.84738 13.7918 8.46908C15.144 8.09078 17.4612 10.9884 16.8107 12.331C20.7295 11.5511 16.0067 3.98946 12.29 5.89739V5.89676Z" fill="#4B4243"/>
<mask id="mask5_2844_4744" style="mask-type:luminance" maskUnits="userSpaceOnUse" x="0" y="5" width="19" height="20">
<path d="M12.289 5.89676L0.873047 15.0543C0.873047 15.0543 3.01339 24.4904 10.5674 24.011C10.5674 24.011 12.6263 24.4651 13.0772 17.6582C13.5281 10.8513 12.4387 8.84738 13.7909 8.46908C15.143 8.09078 17.4602 10.9884 16.8097 12.331C20.7285 11.5511 16.0057 3.98946 12.289 5.89739V5.89676Z" fill="white"/>
</mask>
<g mask="url(#mask5_2844_4744)">
<path d="M6.99462 8.95931C7.02746 9.14562 6.2437 14.0269 8.19647 16.8253C10.1492 19.6237 12.5649 22.0224 10.0236 24.1507C7.48218 26.2791 3.46486 25.2313 1.77482 22.4462C0.0847798 19.6616 0.460555 16.5058 0.53571 14.8126C0.610865 13.1194 1.21147 10.3967 2.1127 9.71591C3.01393 9.03509 6.88157 8.31702 6.99462 8.95931Z" fill="#BC5928"/>
<path opacity="0.34" d="M1.28583 14.2221C1.28583 14.2221 1.06037 16.087 1.43614 15.8319C1.81192 15.5767 11.5751 6.76592 13.1148 6.4634C14.6546 6.16089 17.2629 8.99026 17.705 9.93948C18.1471 10.8881 20.0247 9.14878 19.9868 8.77047C19.9495 8.39217 21.4829 5.59375 17.7681 4.23275C14.0533 2.87112 9.32173 4.77463 8.23293 5.3544C7.14413 5.93416 5.20905 7.90461 4.31792 8.94289C3.4268 9.98116 1.28583 14.2227 1.28583 14.2227V14.2221Z" fill="white"/>
<path d="M12.2136 8.20312C12.0368 9.46623 11.8783 10.742 11.7962 12.0152C11.7141 13.2859 11.6957 14.5705 11.9073 15.8323C11.2556 13.5473 11.6395 10.4906 12.2136 8.20312Z" fill="white"/>
<path opacity="0.43" d="M1.0611 14.221C1.0611 14.221 3.04607 22.0087 8.19577 21.9292C13.3461 21.8496 12.3261 16.7485 12.5895 15.3869C12.8522 14.0252 12.4746 8.31852 13.5659 7.59665C14.6572 6.87478 18.2223 22.4022 15.1429 24.5665C12.0634 26.7315 7.21939 28.3306 6.20574 27.7767C5.1921 27.2228 3.36564 25.8328 2.70188 23.5971C2.03748 21.3614 0.535643 15.853 1.0611 14.2204V14.221Z" fill="#271100"/>
</g>
<path d="M32.292 8.5624C31.9611 8.66155 31.6238 8.41399 31.5916 8.06789C31.5259 7.36245 31.6244 6.04692 32.9816 5.03769C32.9816 5.03769 35.8817 2.87336 37.0375 3.92868C37.9324 4.74592 45.2174 12.0726 46.807 13.9199C46.9643 14.1024 47.0249 14.3493 46.9674 14.5843C46.5613 16.2573 44.6559 23.0989 40.8584 22.1509C36.5367 21.0722 38.4926 7.74643 35.8369 6.10313C34.4993 5.27579 33.6467 8.15694 32.2926 8.5624H32.292Z" fill="#41433E"/>
<mask id="mask6_2844_4744" style="mask-type:luminance" maskUnits="userSpaceOnUse" x="31" y="3" width="16" height="20">
<path d="M32.2915 8.5624C31.9606 8.66155 31.6233 8.41399 31.5911 8.06789C31.5254 7.36245 31.6239 6.04692 32.9812 5.03769C32.9812 5.03769 35.8813 2.87336 37.037 3.92868C37.9319 4.74592 45.2169 12.0726 46.8065 13.9199C46.9638 14.1024 47.0244 14.3493 46.9669 14.5843C46.5608 16.2573 44.6554 23.0989 40.8579 22.1509C36.5362 21.0722 38.4921 7.74643 35.8364 6.10313C34.4988 5.27579 33.6462 8.15694 32.2921 8.5624H32.2915Z" fill="white"/>
</mask>
<g mask="url(#mask6_2844_4744)">
<path d="M42.9677 21.8572C40.8634 20.02 40.7067 19.0386 41.5669 14.5432C42.3677 10.3585 41.2815 7.98828 41.2815 7.98828C41.2815 7.98828 47.1751 13.0306 47.1998 13.4083C47.2244 13.786 47.4252 16.7865 47.0494 17.7445C47.0494 17.7445 45.4447 23.4481 42.9677 21.8572Z" fill="#F0872F"/>
<g opacity="0.71">
<path d="M37.1865 5.35352C40.0633 8.0092 42.9141 10.7565 45.6734 13.534C42.796 10.8784 39.9464 8.13046 37.1865 5.35352Z" fill="white"/>
</g>
<path d="M37.9629 7.78711C38.8332 9.66409 39.5014 12.1575 39.1395 14.222C39.2203 12.0179 38.6121 9.87187 37.9629 7.78711Z" fill="white"/>
<path opacity="0.26" d="M46.7004 13.4088C46.7004 13.4088 43.8887 23.04 39.6371 18.527C39.6371 18.527 37.918 16.2666 37.8511 15.0534C37.8511 15.0534 38.0892 21.1233 39.015 22.5601C39.9415 23.9968 43.3462 25.056 44.3971 24.2994C45.4487 23.5428 46.8166 21.1763 47.1507 19.2318C47.9768 14.4294 46.6998 13.4082 46.6998 13.4082L46.7004 13.4088Z" fill="#181319"/>
</g>
<path d="M35.8388 4.3457C34.2966 4.52317 33.0739 5.64418 32.2402 6.88771C32.3407 6.72666 32.4404 6.56372 32.5503 6.40836C33.3114 5.3284 34.4785 4.42023 35.8382 4.3457H35.8388Z" fill="white"/>
<path d="M24.2204 39.7291C24.5747 40.3354 25.1342 40.775 25.7077 41.1558C27.0819 42.0198 28.789 42.6532 30.4266 42.5377C31.2104 42.4751 31.9695 42.1676 32.5064 41.5695C32.2234 42.0514 31.7409 42.4253 31.2155 42.6273C29.8001 43.168 28.1897 42.7922 26.8609 42.1752C25.8245 41.6674 24.6264 40.8533 24.2197 39.7285L24.2204 39.7291Z" fill="#CAC3B9"/>
<path d="M11.9094 33.4824C11.9094 33.4824 13.6992 37.1865 21.6227 41.1773C21.6227 41.1773 16.7957 42.724 11.5298 34.6148C11.5298 34.6148 11.7723 33.7666 11.9094 33.4824Z" fill="#D0BEB0"/>
<path d="M33.2262 10.1878C33.1043 10.383 34.1849 9.81834 35.4619 8.25335C35.9103 7.70327 35.9495 10.6634 36.2918 11.2539C36.6341 11.8444 36.7471 12.0477 36.6341 11.8444C36.2318 11.1206 33.3992 10.0268 33.2256 10.1878H33.2262Z" fill="#521D19"/>
<path d="M36.2316 3.6765C36.4785 3.6765 36.6951 3.72071 36.8682 3.81481C37.9077 4.69394 46.9882 14.2203 46.9882 14.2203C46.9914 14.622 46.1274 18.6797 44.0995 20.7594C42.9494 21.9385 41.9932 22.1943 41.38 22.1943C40.912 22.1943 40.6442 22.0453 40.6442 22.0453C41.5739 23.1745 40.9228 24.8967 40.9228 24.8967C41.195 26.1731 41.7678 26.9764 42.2522 27.9945C42.7366 29.0126 42.7 29.7464 42.7 29.7464C43.0498 31.1832 42.6507 31.2963 42.3577 31.5584C42.3052 31.6051 42.2465 31.6247 42.1859 31.6247C41.9067 31.6247 41.5802 31.2199 41.5802 31.2199C41.4665 33.4019 41.3181 33.1411 40.3872 34.9246C38.6296 38.2908 33.8929 40.4898 33.8929 40.4898C32.8888 42.9415 32.0823 43.5238 32.0823 43.5238C31.2353 44.2766 30.139 44.557 28.9763 44.557C25.8116 44.557 22.1586 42.4773 21.7267 42.1754C21.1368 41.7618 20.6145 41.6184 20.6145 41.6184C13.6548 40.169 11.5769 34.4837 11.5769 34.4837C11.2201 35.0888 9.79343 35.3534 9.79343 35.3534C10.149 34.5002 10.3214 31.4624 9.80417 31.4624C9.74796 31.4624 9.68354 31.4984 9.61091 31.5761C9.11198 32.1104 8.63137 32.1988 8.36801 32.1988C8.23728 32.1988 8.16023 32.1773 8.16023 32.1773C9.30524 31.2319 9.29956 26.4668 9.29956 26.4668C8.97746 26.9114 7.89751 27.1729 7.89751 27.1729C7.61583 25.383 8.16023 23.801 8.16023 23.801C3.39136 22.9882 0.990823 15.5794 1.00977 15.239C1.02872 14.8986 10.4446 7.42983 11.5713 6.54123C12.5893 5.7379 13.0169 5.69937 13.0901 5.69937C13.0977 5.69937 13.1015 5.69937 13.1015 5.69937C13.1186 5.69937 13.1356 5.69937 13.1527 5.69937C16.6256 5.69937 17.9803 9.18492 17.9803 9.18492C19.6684 8.65758 23.6946 5.35265 23.6946 5.35265C23.6548 6.57597 22.7832 7.56751 22.4283 7.92244C22.3772 7.96855 22.3273 8.01528 22.2799 8.06265C22.2799 8.06265 22.3367 8.01339 22.4283 7.92244C23.7401 6.7427 26.2726 5.91978 26.2726 5.91978C24.7265 6.92838 24.4986 8.98472 24.4986 8.98472C25.6474 8.17949 31.625 7.17468 31.625 7.17468C32.3305 5.18908 34.791 3.6765 36.2322 3.6765M36.2322 2.66602C35.2887 2.66602 34.1361 3.09989 33.0687 3.8565C32.1138 4.53352 31.3667 5.37602 30.9151 6.27282C30.3297 6.37766 29.3407 6.56208 28.2809 6.78943C27.4719 6.96311 26.8145 7.121 26.2783 7.26373C26.4305 7.07742 26.6111 6.90564 26.8258 6.76544C27.2502 6.48882 27.4037 5.93999 27.1852 5.48338C27.0134 5.12403 26.6534 4.90867 26.2739 4.90867C26.1703 4.90867 26.0648 4.92445 25.9619 4.95856C25.9139 4.97435 25.3947 5.14487 24.7032 5.43854C24.7038 5.42086 24.7044 5.40317 24.7051 5.38549C24.7177 4.98887 24.4979 4.62194 24.1417 4.44637C24.0003 4.37627 23.8468 4.34216 23.6952 4.34216C23.466 4.34216 23.2386 4.42047 23.0542 4.57142C21.8321 5.57433 19.7543 7.14184 18.4369 7.87066C18.2354 7.54099 17.9683 7.15763 17.6253 6.77175C16.4172 5.40949 14.8705 4.68889 13.1533 4.68889C13.1413 4.68889 13.1293 4.68889 13.1173 4.68889C13.1085 4.68889 13.0996 4.68889 13.0908 4.68889C12.5584 4.68889 11.8371 5.04508 10.946 5.748C10.3751 6.1983 7.7333 8.29254 5.23992 10.3104C3.80945 11.468 2.67202 12.4027 1.85858 13.0892C1.37607 13.4959 1.00093 13.8218 0.742622 14.0574C0.34348 14.4218 0.0277029 14.7091 0.00180916 15.1834C-0.00450639 15.2927 -0.02219 15.6243 0.508947 16.9758C0.781779 17.6692 1.2485 18.7328 1.923 19.8614C2.66065 21.0948 3.47662 22.1223 4.34943 22.9156C5.17108 23.6627 6.04263 24.2014 6.94954 24.5241C6.8226 25.2397 6.72976 26.2495 6.90028 27.3301C6.94386 27.6093 7.10238 27.8568 7.33732 28.0135C7.50468 28.1252 7.70046 28.1834 7.89814 28.1834C7.97771 28.1834 8.05729 28.1739 8.1356 28.1549C8.14507 28.1524 8.17476 28.1455 8.22086 28.1328C8.20444 28.3545 8.18423 28.5875 8.15897 28.8237C7.93287 30.9489 7.53373 31.3809 7.51541 31.3999C7.22679 31.6392 7.0948 32.0194 7.17248 32.3863C7.25016 32.7545 7.52615 33.0489 7.88803 33.1505C7.96698 33.1726 8.13434 33.2099 8.36864 33.2099C8.55243 33.2099 8.81452 33.1853 9.1164 33.0848C9.11262 33.2017 9.10693 33.3286 9.09809 33.4663C9.04567 34.2715 8.92504 34.8128 8.86126 34.965C8.71852 35.3073 8.77473 35.7007 9.00778 35.9887C9.20166 36.2287 9.49155 36.3645 9.79343 36.3645C9.85469 36.3645 9.91659 36.3588 9.97785 36.3475C10.0221 36.3392 10.4256 36.2622 10.8885 36.0986C10.9915 36.062 11.0894 36.0247 11.1829 35.9849C11.5176 36.583 12.0184 37.3573 12.7226 38.1695C13.5948 39.1756 14.6065 40.0427 15.7294 40.7481C17.1163 41.619 18.6744 42.2411 20.3619 42.598C20.4509 42.6276 20.7825 42.7476 21.1475 43.0034C21.4349 43.2049 22.5388 43.8402 23.944 44.4156C25.8134 45.1804 27.5066 45.5682 28.9763 45.5682C30.4459 45.5682 31.7715 45.1412 32.7315 44.3C32.9854 44.0941 33.7679 43.335 34.6786 41.23C35.8716 40.6199 39.6634 38.496 41.2834 35.3932C41.4697 35.0357 41.6213 34.7679 41.7552 34.5324C42.1638 33.8105 42.3621 33.4246 42.4776 32.603C42.6823 32.555 42.8724 32.4558 43.0322 32.3137C43.0448 32.3024 43.0675 32.284 43.0915 32.2645C43.2772 32.1148 43.6227 31.8356 43.7742 31.2735C43.8911 30.8403 43.8721 30.3287 43.7111 29.6252C43.7003 29.2886 43.6201 28.5149 43.1667 27.5613C43.0277 27.2689 42.8844 26.9986 42.7461 26.7371C42.4284 26.1359 42.1486 25.6079 41.9718 24.934C42.0349 24.7035 42.1095 24.3669 42.1417 23.9778C42.1657 23.681 42.1619 23.3943 42.1303 23.1208C42.8711 22.9553 43.8064 22.5107 44.8251 21.4661C46.0245 20.2365 46.8114 18.4669 47.2598 17.1987C47.7069 15.9356 48.0038 14.6352 48 14.2127C47.9981 13.9557 47.8983 13.7094 47.7208 13.5237C46.7874 12.5448 38.5721 3.93165 37.5218 3.04369C37.4694 2.99948 37.4126 2.96032 37.352 2.92748C37.033 2.75443 36.6566 2.66665 36.2328 2.66665L36.2322 2.66602Z" fill="#231F20"/>
<path d="M31.1675 13.4579C31.1675 13.4579 32.4192 13.3379 33.1828 13.7099C33.1828 13.7099 31.595 13.5918 31.5218 13.6284C31.4428 13.5747 31.2174 13.451 31.1675 13.4573V13.4579Z" fill="#AD3F21"/>
<path d="M31.9556 12.8809C32.1747 12.8689 33.206 12.8095 33.9361 13.2251C33.9361 13.2251 32.488 12.9895 32.4153 13.0268C32.3061 12.9403 32.1116 12.9131 31.9556 12.8809Z" fill="#AD3F21"/>
</svg>
