<svg width="174" height="162" viewBox="0 0 174 162" fill="none" xmlns="http://www.w3.org/2000/svg">
<path d="M0 24C0 10.7452 10.7452 0 24 0H150C163.255 0 174 10.7452 174 24V138C174 151.255 163.255 162 150 162H24C10.7452 162 0 151.255 0 138V24Z" fill="#8BC53F"/>
<path d="M106.997 53.9132C107.015 57.8683 105.859 61.7398 103.676 65.0381C101.493 68.3363 98.3812 70.9132 94.7338 72.4428C91.0864 73.9725 87.0673 74.3862 83.1848 73.6316C79.3023 72.877 75.7307 70.9881 72.9217 68.2036C70.1127 65.4192 68.1926 61.8643 67.404 57.9885C66.6154 54.1128 66.9938 50.0902 68.4914 46.4295C69.989 42.7688 72.5385 39.6344 75.8175 37.4227C79.0965 35.211 82.9577 34.0213 86.9128 34.0041C92.2162 33.981 97.3116 36.0655 101.078 39.7992C104.845 43.5328 106.974 48.6098 106.997 53.9132Z" fill="#8DC63F"/>
<path d="M105.497 53.9187C105.514 57.5767 104.446 61.1574 102.427 64.208C100.409 67.2587 97.5308 69.6423 94.1577 71.0574C90.7845 72.4725 87.0675 72.8555 83.4766 72.1581C79.8857 71.4607 76.5823 69.7141 73.9841 67.1392C71.3859 64.5643 69.6096 61.2767 68.8798 57.6923C68.1501 54.1079 68.4996 50.3875 69.8843 47.0017C71.2689 43.616 73.6265 40.7168 76.6589 38.671C79.6912 36.6251 83.2621 35.5244 86.9201 35.508C91.8248 35.4864 96.5374 37.4139 100.021 40.8664C103.505 44.319 105.475 49.014 105.497 53.9187Z" fill="#F9E988"/>
<path d="M87.3403 36.7073C88.516 36.4986 89.7193 36.4986 90.8949 36.7073C92.082 36.8953 93.2295 37.2797 94.2902 37.8448C95.3451 38.4245 96.2566 39.2113 97.1637 39.9489C98.0709 40.6865 98.9736 41.4415 99.833 42.2675C100.71 43.0806 101.476 44.0064 102.109 45.0207C102.762 46.027 103.297 47.105 103.703 48.2334C104.476 50.5027 104.744 52.9473 104.358 55.2789H104.244C103.857 52.9676 103.333 50.765 102.505 48.6696C102.117 47.6144 101.66 46.5858 101.137 45.5902C100.592 44.5946 99.991 43.6303 99.3374 42.7022C98.6726 41.7639 97.858 40.9414 96.9261 40.2677C95.9871 39.5982 94.9075 39.165 93.8627 38.7534C92.8179 38.3419 91.7818 37.9158 90.6921 37.6028C89.6024 37.2898 88.4952 37.0551 87.3389 36.8276L87.3403 36.7073Z" fill="white"/>
<path d="M96.3812 47.3918C95.0393 47.0035 93.6482 46.4528 92.2397 45.8964C92.1585 45.5428 91.8455 45.1023 91.2123 44.5647C90.2921 43.7662 88.5633 43.7865 87.0693 44.1401C85.4203 43.7517 83.7915 43.614 82.2279 43.9952C69.4396 47.5179 76.6909 56.1125 71.9958 64.752C72.6639 66.1692 79.8644 74.4377 90.2834 72.2192C90.2834 72.2192 86.7201 63.6565 94.7611 59.5468C101.283 56.2009 105.996 50.0103 96.3812 47.3918Z" fill="#8BC53F"/>
<path d="M97.9607 53.017C97.9615 53.1703 97.9169 53.3205 97.8324 53.4484C97.748 53.5764 97.6274 53.6765 97.4861 53.7359C97.3448 53.7954 97.189 53.8116 97.0384 53.7826C96.8879 53.7535 96.7493 53.6804 96.6403 53.5726C96.5313 53.4648 96.4567 53.3271 96.4259 53.1769C96.3952 53.0266 96.4096 52.8707 96.4675 52.7287C96.5254 52.5867 96.6241 52.4651 96.7511 52.3792C96.8781 52.2933 97.0277 52.247 97.1811 52.2461C97.3866 52.2453 97.584 52.326 97.7301 52.4705C97.8762 52.615 97.9591 52.8115 97.9607 53.017Z" fill="white"/>
<path d="M87.0693 44.133C88.0011 44.1997 91.3703 45.2923 92.2397 45.8893C91.5152 43.7882 89.0763 43.5085 87.0693 44.133Z" fill="#009345"/>
<path d="M87.9562 49.4499C87.9565 50.1573 87.747 50.8489 87.3542 51.4372C86.9614 52.0255 86.4029 52.4842 85.7495 52.7551C85.096 53.026 84.3769 53.097 83.683 52.9592C82.9892 52.8213 82.3518 52.4808 81.8515 51.9807C81.3512 51.4806 81.0104 50.8434 80.8723 50.1496C80.7342 49.4558 80.8049 48.7367 81.0756 48.0831C81.3462 47.4295 81.8046 46.8709 82.3928 46.4778C82.9809 46.0848 83.6724 45.875 84.3798 45.875C84.8494 45.8748 85.3144 45.9671 85.7483 46.1467C86.1822 46.3263 86.5765 46.5896 86.9086 46.9216C87.2407 47.2535 87.5042 47.6477 87.6839 48.0815C87.8637 48.5153 87.9562 48.9803 87.9562 49.4499Z" fill="white"/>
<path d="M86.8955 49.4805C86.8955 49.978 86.748 50.4644 86.4716 50.8781C86.1951 51.2918 85.8023 51.6142 85.3426 51.8046C84.8829 51.995 84.3771 52.0448 83.8891 51.9478C83.4011 51.8507 82.9529 51.6111 82.6011 51.2593C82.2493 50.9075 82.0097 50.4592 81.9126 49.9712C81.8155 49.4833 81.8653 48.9774 82.0558 48.5178C82.2462 48.0581 82.5686 47.6652 82.9823 47.3888C83.396 47.1124 83.8823 46.9648 84.3799 46.9648C85.0471 46.9648 85.6869 47.2299 86.1587 47.7017C86.6305 48.1734 86.8955 48.8133 86.8955 49.4805Z" fill="#58595B"/>
<path d="M100.857 54.5918C97.9592 56.6336 94.664 58.1827 89.9892 58.1827C87.8011 58.1827 87.3577 55.8641 85.9115 56.9973C85.1652 57.5856 82.5336 58.9014 80.4455 58.8014C78.3573 58.7014 74.9722 57.4769 74.0289 53.0195C73.655 57.4769 73.4637 60.7606 71.79 64.5239C75.123 69.8609 83.0698 73.9778 90.2834 72.2041C89.5081 66.7917 94.2379 61.4909 96.9028 58.7782C97.9172 57.7508 99.8445 56.0742 100.857 54.5889V54.5918Z" fill="#8BC53F"/>
<path d="M100.744 54.7246C99.8446 55.5448 98.7737 56.152 97.684 56.6881C96.581 57.2118 95.4311 57.6305 94.2496 57.9387C93.0672 58.2445 91.834 58.4749 90.5849 58.3618C89.3358 58.2488 88.0591 57.8242 87.2317 56.8881L87.2708 56.8432C88.2852 57.5011 89.456 57.7329 90.6211 57.7663C91.802 57.8022 92.9833 57.705 94.1424 57.4764C95.3134 57.2313 96.4588 56.8772 97.5637 56.4186C98.6694 55.9621 99.7634 55.4332 100.705 54.6797L100.744 54.7246Z" fill="#58595B"/>
<path d="M33.0711 117C33.0711 115.627 33.3778 114.4 33.9911 113.32C34.6178 112.227 35.4644 111.38 36.5311 110.78C37.6111 110.167 38.8178 109.86 40.1511 109.86C41.7111 109.86 43.0778 110.26 44.2511 111.06C45.4244 111.86 46.2444 112.967 46.7111 114.38H43.4911C43.1711 113.713 42.7178 113.213 42.1311 112.88C41.5578 112.547 40.8911 112.38 40.1311 112.38C39.3178 112.38 38.5911 112.573 37.9511 112.96C37.3244 113.333 36.8311 113.867 36.4711 114.56C36.1244 115.253 35.9511 116.067 35.9511 117C35.9511 117.92 36.1244 118.733 36.4711 119.44C36.8311 120.133 37.3244 120.673 37.9511 121.06C38.5911 121.433 39.3178 121.62 40.1311 121.62C40.8911 121.62 41.5578 121.453 42.1311 121.12C42.7178 120.773 43.1711 120.267 43.4911 119.6H46.7111C46.2444 121.027 45.4244 122.14 44.2511 122.94C43.0911 123.727 41.7244 124.12 40.1511 124.12C38.8178 124.12 37.6111 123.82 36.5311 123.22C35.4644 122.607 34.6178 121.76 33.9911 120.68C33.3778 119.6 33.0711 118.373 33.0711 117ZM54.0227 124.18C52.956 124.18 51.996 123.947 51.1427 123.48C50.2893 123 49.616 122.327 49.1227 121.46C48.6427 120.593 48.4027 119.593 48.4027 118.46C48.4027 117.327 48.6493 116.327 49.1427 115.46C49.6493 114.593 50.336 113.927 51.2027 113.46C52.0693 112.98 53.036 112.74 54.1027 112.74C55.1693 112.74 56.136 112.98 57.0027 113.46C57.8693 113.927 58.5493 114.593 59.0427 115.46C59.5493 116.327 59.8027 117.327 59.8027 118.46C59.8027 119.593 59.5427 120.593 59.0227 121.46C58.516 122.327 57.8227 123 56.9427 123.48C56.076 123.947 55.1027 124.18 54.0227 124.18ZM54.0227 121.74C54.5293 121.74 55.0027 121.62 55.4427 121.38C55.896 121.127 56.256 120.753 56.5227 120.26C56.7893 119.767 56.9227 119.167 56.9227 118.46C56.9227 117.407 56.6427 116.6 56.0827 116.04C55.536 115.467 54.8627 115.18 54.0627 115.18C53.2627 115.18 52.5893 115.467 52.0427 116.04C51.5093 116.6 51.2427 117.407 51.2427 118.46C51.2427 119.513 51.5027 120.327 52.0227 120.9C52.556 121.46 53.2227 121.74 54.0227 121.74ZM63.2766 111.6C62.7832 111.6 62.3699 111.447 62.0366 111.14C61.7166 110.82 61.5566 110.427 61.5566 109.96C61.5566 109.493 61.7166 109.107 62.0366 108.8C62.3699 108.48 62.7832 108.32 63.2766 108.32C63.7699 108.32 64.1766 108.48 64.4966 108.8C64.8299 109.107 64.9966 109.493 64.9966 109.96C64.9966 110.427 64.8299 110.82 64.4966 111.14C64.1766 111.447 63.7699 111.6 63.2766 111.6ZM64.6566 112.92V124H61.8566V112.92H64.6566ZM73.563 112.76C74.883 112.76 75.9496 113.18 76.763 114.02C77.5763 114.847 77.983 116.007 77.983 117.5V124H75.183V117.88C75.183 117 74.963 116.327 74.523 115.86C74.083 115.38 73.483 115.14 72.723 115.14C71.9496 115.14 71.3363 115.38 70.883 115.86C70.443 116.327 70.223 117 70.223 117.88V124H67.423V112.92H70.223V114.3C70.5963 113.82 71.0696 113.447 71.643 113.18C72.2296 112.9 72.8696 112.76 73.563 112.76ZM84.9856 112.74C85.8123 112.74 86.539 112.907 87.1656 113.24C87.7923 113.56 88.2856 113.98 88.6456 114.5V112.92H91.4656V124.08C91.4656 125.107 91.259 126.02 90.8456 126.82C90.4323 127.633 89.8123 128.273 88.9856 128.74C88.159 129.22 87.159 129.46 85.9856 129.46C84.4123 129.46 83.119 129.093 82.1056 128.36C81.1056 127.627 80.539 126.627 80.4056 125.36H83.1856C83.3323 125.867 83.6456 126.267 84.1256 126.56C84.619 126.867 85.2123 127.02 85.9056 127.02C86.719 127.02 87.379 126.773 87.8856 126.28C88.3923 125.8 88.6456 125.067 88.6456 124.08V122.36C88.2856 122.88 87.7856 123.313 87.1456 123.66C86.519 124.007 85.799 124.18 84.9856 124.18C84.0523 124.18 83.199 123.94 82.4256 123.46C81.6523 122.98 81.039 122.307 80.5856 121.44C80.1456 120.56 79.9256 119.553 79.9256 118.42C79.9256 117.3 80.1456 116.307 80.5856 115.44C81.039 114.573 81.6456 113.907 82.4056 113.44C83.179 112.973 84.039 112.74 84.9856 112.74ZM88.6456 118.46C88.6456 117.78 88.5123 117.2 88.2456 116.72C87.979 116.227 87.619 115.853 87.1656 115.6C86.7123 115.333 86.2256 115.2 85.7056 115.2C85.1856 115.2 84.7056 115.327 84.2656 115.58C83.8256 115.833 83.4656 116.207 83.1856 116.7C82.919 117.18 82.7856 117.753 82.7856 118.42C82.7856 119.087 82.919 119.673 83.1856 120.18C83.4656 120.673 83.8256 121.053 84.2656 121.32C84.719 121.587 85.199 121.72 85.7056 121.72C86.2256 121.72 86.7123 121.593 87.1656 121.34C87.619 121.073 87.979 120.7 88.2456 120.22C88.5123 119.727 88.6456 119.14 88.6456 118.46ZM104.5 118.22C104.5 118.62 104.474 118.98 104.42 119.3H96.3203C96.387 120.1 96.667 120.727 97.1603 121.18C97.6536 121.633 98.2603 121.86 98.9803 121.86C100.02 121.86 100.76 121.413 101.2 120.52H104.22C103.9 121.587 103.287 122.467 102.38 123.16C101.474 123.84 100.36 124.18 99.0403 124.18C97.9736 124.18 97.0136 123.947 96.1603 123.48C95.3203 123 94.6603 122.327 94.1803 121.46C93.7136 120.593 93.4803 119.593 93.4803 118.46C93.4803 117.313 93.7136 116.307 94.1803 115.44C94.647 114.573 95.3003 113.907 96.1403 113.44C96.9803 112.973 97.947 112.74 99.0403 112.74C100.094 112.74 101.034 112.967 101.86 113.42C102.7 113.873 103.347 114.52 103.8 115.36C104.267 116.187 104.5 117.14 104.5 118.22ZM101.6 117.42C101.587 116.7 101.327 116.127 100.82 115.7C100.314 115.26 99.6936 115.04 98.9603 115.04C98.267 115.04 97.6803 115.253 97.2003 115.68C96.7336 116.093 96.447 116.673 96.3403 117.42H101.6ZM105.824 118.46C105.824 117.313 106.057 116.313 106.524 115.46C106.991 114.593 107.637 113.927 108.464 113.46C109.291 112.98 110.237 112.74 111.304 112.74C112.677 112.74 113.811 113.087 114.704 113.78C115.611 114.46 116.217 115.42 116.524 116.66H113.504C113.344 116.18 113.071 115.807 112.684 115.54C112.311 115.26 111.844 115.12 111.284 115.12C110.484 115.12 109.851 115.413 109.384 116C108.917 116.573 108.684 117.393 108.684 118.46C108.684 119.513 108.917 120.333 109.384 120.92C109.851 121.493 110.484 121.78 111.284 121.78C112.417 121.78 113.157 121.273 113.504 120.26H116.524C116.217 121.46 115.611 122.413 114.704 123.12C113.797 123.827 112.664 124.18 111.304 124.18C110.237 124.18 109.291 123.947 108.464 123.48C107.637 123 106.991 122.333 106.524 121.48C106.057 120.613 105.824 119.607 105.824 118.46ZM125.135 124L121.375 119.28V124H118.575V109.2H121.375V117.62L125.095 112.92H128.735L123.855 118.48L128.775 124H125.135ZM135.175 124.18C134.108 124.18 133.148 123.947 132.295 123.48C131.442 123 130.768 122.327 130.275 121.46C129.795 120.593 129.555 119.593 129.555 118.46C129.555 117.327 129.802 116.327 130.295 115.46C130.802 114.593 131.488 113.927 132.355 113.46C133.222 112.98 134.188 112.74 135.255 112.74C136.322 112.74 137.288 112.98 138.155 113.46C139.022 113.927 139.702 114.593 140.195 115.46C140.702 116.327 140.955 117.327 140.955 118.46C140.955 119.593 140.695 120.593 140.175 121.46C139.668 122.327 138.975 123 138.095 123.48C137.228 123.947 136.255 124.18 135.175 124.18ZM135.175 121.74C135.682 121.74 136.155 121.62 136.595 121.38C137.048 121.127 137.408 120.753 137.675 120.26C137.942 119.767 138.075 119.167 138.075 118.46C138.075 117.407 137.795 116.6 137.235 116.04C136.688 115.467 136.015 115.18 135.215 115.18C134.415 115.18 133.742 115.467 133.195 116.04C132.662 116.6 132.395 117.407 132.395 118.46C132.395 119.513 132.655 120.327 133.175 120.9C133.708 121.46 134.375 121.74 135.175 121.74Z" fill="white"/>
</svg>
