<svg width="162" height="162" viewBox="0 0 162 162" fill="none" xmlns="http://www.w3.org/2000/svg">
<path d="M0 24C0 10.7452 10.7452 0 24 0H138C151.255 0 162 10.7452 162 24V138C162 151.255 151.255 162 138 162H24C10.7452 162 0 151.255 0 138V24Z" fill="#3661FB"/>
<path fill-rule="evenodd" clip-rule="evenodd" d="M95.2673 57.9024C94.5698 58.3434 93.7483 58.398 93.1239 58.0459C92.3307 57.598 91.8946 56.5493 91.8946 55.0907V50.7268C91.8946 48.6195 91.0615 47.12 89.6683 46.7151C87.3073 46.0273 85.5317 48.9161 84.8644 50.001L80.7005 56.7522V48.5005C80.6537 46.602 80.0371 45.4663 78.8663 45.1239C78.0917 44.8976 76.9327 44.9883 75.8068 46.7112L66.478 61.6907C65.2291 59.3198 64.5781 56.6798 64.5815 54C64.5815 44.9766 71.8127 37.6361 80.7005 37.6361C89.5883 37.6361 96.8185 44.9766 96.8185 54C96.8185 54.0156 96.8224 54.0293 96.8234 54.0439C96.8234 54.0595 96.8205 54.0732 96.8215 54.0888C96.9054 55.8361 96.3395 57.2254 95.2673 57.9024ZM100.4 54.001V53.9551L100.399 53.9102C100.349 42.921 91.5327 34 80.6995 34C69.838 34 61 42.9717 61 54C61 65.0273 69.838 74 80.7005 74C85.6849 74 90.442 72.1054 94.0937 68.6663C94.8195 67.9834 94.8624 66.8332 94.1893 66.0976C94.0308 65.9228 93.8391 65.7815 93.6254 65.6818C93.4116 65.5821 93.1801 65.5261 92.9444 65.517C92.7087 65.5079 92.4736 65.546 92.2528 65.6289C92.032 65.7118 91.83 65.838 91.6585 66C88.6986 68.8029 84.7769 70.3647 80.7005 70.3639C75.9415 70.3639 71.6595 68.2576 68.7063 64.9171L77.119 51.4088V57.6361C77.119 60.6273 78.279 61.5941 79.2517 61.8771C80.2254 62.16 81.7132 61.9668 83.2751 59.4302L87.9024 51.9288C88.0507 51.6868 88.1873 51.478 88.3122 51.2976V55.0907C88.3122 57.8868 89.4322 60.1229 91.3844 61.2244C93.1444 62.2176 95.3571 62.1278 97.16 60.9902C99.3454 59.6098 100.523 57.0663 100.4 54.001Z" fill="white"/>
<path d="M16.1311 114.416C16.1311 113.328 16.3817 112.352 16.8831 111.488C17.3951 110.624 18.0831 109.952 18.9471 109.472C19.8217 108.981 20.7764 108.736 21.8111 108.736C22.9951 108.736 24.0457 109.029 24.9631 109.616C25.8911 110.192 26.5631 111.013 26.9791 112.08H24.7871C24.4991 111.493 24.0991 111.056 23.5871 110.768C23.0751 110.48 22.4831 110.336 21.8111 110.336C21.0751 110.336 20.4191 110.501 19.8431 110.832C19.2671 111.163 18.8137 111.637 18.4831 112.256C18.1631 112.875 18.0031 113.595 18.0031 114.416C18.0031 115.237 18.1631 115.957 18.4831 116.576C18.8137 117.195 19.2671 117.675 19.8431 118.016C20.4191 118.347 21.0751 118.512 21.8111 118.512C22.4831 118.512 23.0751 118.368 23.5871 118.08C24.0991 117.792 24.4991 117.355 24.7871 116.768H26.9791C26.5631 117.835 25.8911 118.656 24.9631 119.232C24.0457 119.808 22.9951 120.096 21.8111 120.096C20.7657 120.096 19.8111 119.856 18.9471 119.376C18.0831 118.885 17.3951 118.208 16.8831 117.344C16.3817 116.48 16.1311 115.504 16.1311 114.416ZM32.9381 120.144C32.1061 120.144 31.3541 119.957 30.6821 119.584C30.0101 119.2 29.4821 118.667 29.0981 117.984C28.7141 117.291 28.5221 116.491 28.5221 115.584C28.5221 114.688 28.7194 113.893 29.1141 113.2C29.5087 112.507 30.0474 111.973 30.7301 111.6C31.4127 111.227 32.1754 111.04 33.0181 111.04C33.8607 111.04 34.6234 111.227 35.3061 111.6C35.9887 111.973 36.5274 112.507 36.9221 113.2C37.3167 113.893 37.5141 114.688 37.5141 115.584C37.5141 116.48 37.3114 117.275 36.9061 117.968C36.5007 118.661 35.9461 119.2 35.2421 119.584C34.5487 119.957 33.7807 120.144 32.9381 120.144ZM32.9381 118.56C33.4074 118.56 33.8447 118.448 34.2501 118.224C34.6661 118 35.0021 117.664 35.2581 117.216C35.5141 116.768 35.6421 116.224 35.6421 115.584C35.6421 114.944 35.5194 114.405 35.2741 113.968C35.0287 113.52 34.7034 113.184 34.2981 112.96C33.8927 112.736 33.4554 112.624 32.9861 112.624C32.5167 112.624 32.0794 112.736 31.6741 112.96C31.2794 113.184 30.9647 113.52 30.7301 113.968C30.4954 114.405 30.3781 114.944 30.3781 115.584C30.3781 116.533 30.6181 117.269 31.0981 117.792C31.5887 118.304 32.2021 118.56 32.9381 118.56ZM40.2452 110.016C39.9145 110.016 39.6372 109.904 39.4132 109.68C39.1892 109.456 39.0772 109.179 39.0772 108.848C39.0772 108.517 39.1892 108.24 39.4132 108.016C39.6372 107.792 39.9145 107.68 40.2452 107.68C40.5652 107.68 40.8372 107.792 41.0612 108.016C41.2852 108.24 41.3972 108.517 41.3972 108.848C41.3972 109.179 41.2852 109.456 41.0612 109.68C40.8372 109.904 40.5652 110.016 40.2452 110.016ZM41.1412 111.184V120H39.3172V111.184H41.1412ZM47.9839 111.04C48.6773 111.04 49.2959 111.184 49.8399 111.472C50.3946 111.76 50.8266 112.187 51.1359 112.752C51.4453 113.317 51.5999 114 51.5999 114.8V120H49.7919V115.072C49.7919 114.283 49.5946 113.68 49.1999 113.264C48.8053 112.837 48.2666 112.624 47.5839 112.624C46.9013 112.624 46.3573 112.837 45.9519 113.264C45.5573 113.68 45.3599 114.283 45.3599 115.072V120H43.5359V111.184H45.3599V112.192C45.6586 111.829 46.0373 111.547 46.4959 111.344C46.9653 111.141 47.4613 111.04 47.9839 111.04ZM64.5986 111.04C65.2919 111.04 65.9106 111.184 66.4546 111.472C67.0092 111.76 67.4412 112.187 67.7506 112.752C68.0706 113.317 68.2306 114 68.2306 114.8V120H66.4226V115.072C66.4226 114.283 66.2252 113.68 65.8306 113.264C65.4359 112.837 64.8972 112.624 64.2146 112.624C63.5319 112.624 62.9879 112.837 62.5826 113.264C62.1879 113.68 61.9906 114.283 61.9906 115.072V120H60.1826V115.072C60.1826 114.283 59.9852 113.68 59.5906 113.264C59.1959 112.837 58.6572 112.624 57.9746 112.624C57.2919 112.624 56.7479 112.837 56.3426 113.264C55.9479 113.68 55.7506 114.283 55.7506 115.072V120H53.9266V111.184H55.7506V112.192C56.0492 111.829 56.4279 111.547 56.8866 111.344C57.3452 111.141 57.8359 111.04 58.3586 111.04C59.0626 111.04 59.6919 111.189 60.2466 111.488C60.8012 111.787 61.2279 112.219 61.5266 112.784C61.7932 112.251 62.2092 111.829 62.7746 111.52C63.3399 111.2 63.9479 111.04 64.5986 111.04ZM69.9436 115.552C69.9436 114.667 70.1249 113.883 70.4876 113.2C70.8609 112.517 71.3622 111.989 71.9916 111.616C72.6316 111.232 73.3356 111.04 74.1036 111.04C74.7969 111.04 75.3996 111.179 75.9116 111.456C76.4342 111.723 76.8502 112.059 77.1596 112.464V111.184H78.9996V120H77.1596V118.688C76.8502 119.104 76.4289 119.451 75.8956 119.728C75.3622 120.005 74.7542 120.144 74.0716 120.144C73.3142 120.144 72.6209 119.952 71.9916 119.568C71.3622 119.173 70.8609 118.629 70.4876 117.936C70.1249 117.232 69.9436 116.437 69.9436 115.552ZM77.1596 115.584C77.1596 114.976 77.0316 114.448 76.7756 114C76.5302 113.552 76.2049 113.211 75.7996 112.976C75.3942 112.741 74.9569 112.624 74.4876 112.624C74.0182 112.624 73.5809 112.741 73.1756 112.976C72.7702 113.2 72.4396 113.536 72.1836 113.984C71.9382 114.421 71.8156 114.944 71.8156 115.552C71.8156 116.16 71.9382 116.693 72.1836 117.152C72.4396 117.611 72.7702 117.963 73.1756 118.208C73.5916 118.443 74.0289 118.56 74.4876 118.56C74.9569 118.56 75.3942 118.443 75.7996 118.208C76.2049 117.973 76.5302 117.632 76.7756 117.184C77.0316 116.725 77.1596 116.192 77.1596 115.584ZM83.2193 112.464C83.486 112.016 83.838 111.669 84.2753 111.424C84.7233 111.168 85.2513 111.04 85.8593 111.04V112.928H85.3953C84.6806 112.928 84.1366 113.109 83.7633 113.472C83.4006 113.835 83.2193 114.464 83.2193 115.36V120H81.3953V111.184H83.2193V112.464ZM91.0239 115.6L95.0879 120H92.6239L89.3599 116.208V120H87.5359V108.16H89.3599V115.04L92.5599 111.184H95.0879L91.0239 115.6ZM104.475 115.376C104.475 115.707 104.454 116.005 104.411 116.272H97.6753C97.7286 116.976 97.99 117.541 98.4593 117.968C98.9286 118.395 99.5046 118.608 100.187 118.608C101.169 118.608 101.862 118.197 102.267 117.376H104.235C103.969 118.187 103.483 118.853 102.779 119.376C102.086 119.888 101.222 120.144 100.187 120.144C99.3446 120.144 98.5873 119.957 97.9153 119.584C97.254 119.2 96.7313 118.667 96.3473 117.984C95.974 117.291 95.7873 116.491 95.7873 115.584C95.7873 114.677 95.9686 113.883 96.3313 113.2C96.7046 112.507 97.222 111.973 97.8833 111.6C98.5553 111.227 99.3233 111.04 100.187 111.04C101.019 111.04 101.761 111.221 102.411 111.584C103.062 111.947 103.569 112.459 103.931 113.12C104.294 113.771 104.475 114.523 104.475 115.376ZM102.571 114.8C102.561 114.128 102.321 113.589 101.851 113.184C101.382 112.779 100.801 112.576 100.107 112.576C99.478 112.576 98.9393 112.779 98.4913 113.184C98.0433 113.579 97.7766 114.117 97.6913 114.8H102.571ZM108.398 112.672V117.552C108.398 117.883 108.473 118.123 108.622 118.272C108.782 118.411 109.049 118.48 109.422 118.48H110.542V120H109.102C108.281 120 107.652 119.808 107.214 119.424C106.777 119.04 106.558 118.416 106.558 117.552V112.672H105.518V111.184H106.558V108.992H108.398V111.184H110.542V112.672H108.398ZM115.772 115.584C115.772 114.677 115.953 113.883 116.316 113.2C116.689 112.507 117.201 111.973 117.852 111.6C118.502 111.227 119.249 111.04 120.092 111.04C121.158 111.04 122.038 111.296 122.732 111.808C123.436 112.309 123.91 113.029 124.156 113.968H122.188C122.028 113.531 121.772 113.189 121.42 112.944C121.068 112.699 120.625 112.576 120.092 112.576C119.345 112.576 118.748 112.843 118.3 113.376C117.862 113.899 117.644 114.635 117.644 115.584C117.644 116.533 117.862 117.275 118.3 117.808C118.748 118.341 119.345 118.608 120.092 118.608C121.148 118.608 121.846 118.144 122.188 117.216H124.156C123.9 118.112 123.42 118.827 122.716 119.36C122.012 119.883 121.137 120.144 120.092 120.144C119.249 120.144 118.502 119.957 117.852 119.584C117.201 119.2 116.689 118.667 116.316 117.984C115.953 117.291 115.772 116.491 115.772 115.584ZM125.365 115.552C125.365 114.667 125.547 113.883 125.909 113.2C126.283 112.517 126.784 111.989 127.413 111.616C128.053 111.232 128.757 111.04 129.525 111.04C130.219 111.04 130.821 111.179 131.333 111.456C131.856 111.723 132.272 112.059 132.581 112.464V111.184H134.421V120H132.581V118.688C132.272 119.104 131.851 119.451 131.317 119.728C130.784 120.005 130.176 120.144 129.493 120.144C128.736 120.144 128.043 119.952 127.413 119.568C126.784 119.173 126.283 118.629 125.909 117.936C125.547 117.232 125.365 116.437 125.365 115.552ZM132.581 115.584C132.581 114.976 132.453 114.448 132.197 114C131.952 113.552 131.627 113.211 131.221 112.976C130.816 112.741 130.379 112.624 129.909 112.624C129.44 112.624 129.003 112.741 128.597 112.976C128.192 113.2 127.861 113.536 127.605 113.984C127.36 114.421 127.237 114.944 127.237 115.552C127.237 116.16 127.36 116.693 127.605 117.152C127.861 117.611 128.192 117.963 128.597 118.208C129.013 118.443 129.451 118.56 129.909 118.56C130.379 118.56 130.816 118.443 131.221 118.208C131.627 117.973 131.952 117.632 132.197 117.184C132.453 116.725 132.581 116.192 132.581 115.584ZM138.641 112.48C138.951 112.075 139.372 111.733 139.905 111.456C140.439 111.179 141.041 111.04 141.713 111.04C142.481 111.04 143.18 111.232 143.809 111.616C144.449 111.989 144.951 112.517 145.313 113.2C145.676 113.883 145.857 114.667 145.857 115.552C145.857 116.437 145.676 117.232 145.313 117.936C144.951 118.629 144.449 119.173 143.809 119.568C143.18 119.952 142.481 120.144 141.713 120.144C141.041 120.144 140.444 120.011 139.921 119.744C139.399 119.467 138.972 119.125 138.641 118.72V124.192H136.817V111.184H138.641V112.48ZM144.001 115.552C144.001 114.944 143.873 114.421 143.617 113.984C143.372 113.536 143.041 113.2 142.625 112.976C142.22 112.741 141.783 112.624 141.313 112.624C140.855 112.624 140.417 112.741 140.001 112.976C139.596 113.211 139.265 113.552 139.009 114C138.764 114.448 138.641 114.976 138.641 115.584C138.641 116.192 138.764 116.725 139.009 117.184C139.265 117.632 139.596 117.973 140.001 118.208C140.417 118.443 140.855 118.56 141.313 118.56C141.783 118.56 142.22 118.443 142.625 118.208C143.041 117.963 143.372 117.611 143.617 117.152C143.873 116.693 144.001 116.16 144.001 115.552Z" fill="white"/>
</svg>
