<svg width="162" height="162" viewBox="0 0 162 162" fill="none" xmlns="http://www.w3.org/2000/svg">
<path d="M0 24C0 10.7452 10.7452 0 24 0H138C151.255 0 162 10.7452 162 24V138C162 151.255 151.255 162 138 162H24C10.7452 162 0 151.255 0 138V24Z" fill="#583AEA"/>
<rect x="57" y="30" width="48" height="48" rx="24" fill="white"/>
<path d="M68.9999 51.1843C70.243 49.665 70.8422 47.459 71.1578 45.8868C71.174 45.8058 71.2902 45.8013 71.3126 45.8808C71.7647 47.4855 72.4843 49.6328 73.5925 51.1843C74.6599 52.6786 77.3293 53.484 78.8955 53.7737C78.9824 53.7897 78.9859 53.9296 78.8998 53.9493C77.4217 54.2892 74.8659 55.1382 73.5925 56.5177C72.302 57.9158 71.5644 60.3142 71.2913 61.6318C71.2742 61.7144 71.1542 61.7177 71.1353 61.6354C70.7515 59.9608 70.5291 58.1748 69.1481 56.5177C67.6934 54.7985 65.373 54.3778 63.7676 53.9912C63.6797 53.97 63.6878 53.7717 63.7762 53.7526C64.8836 53.5127 67.3888 52.7955 68.9999 51.1843Z" fill="black"/>
<path d="M87.9631 51.1843C89.2061 49.665 89.8054 47.459 90.1209 45.8868C90.1371 45.8058 90.2533 45.8013 90.2757 45.8808C90.7278 47.4855 91.4475 49.6328 92.5557 51.1843C93.623 52.6786 96.2924 53.484 97.8587 53.7737C97.9455 53.7897 97.949 53.9296 97.8629 53.9493C96.3849 54.2892 93.829 55.1382 92.5557 56.5177C91.2651 57.9158 90.5276 60.3142 90.2545 61.6318C90.2374 61.7144 90.1173 61.7177 90.0984 61.6354C89.7146 59.9608 89.4922 58.1748 88.1112 56.5177C86.6565 54.7985 84.3361 54.3778 82.7307 53.9912C82.6429 53.97 82.651 53.7717 82.7393 53.7526C83.8467 53.5127 86.3519 52.7955 87.9631 51.1843Z" fill="black"/>
<path d="M65.3262 110.04V112.3H59.5062V115.88H63.9662V118.1H59.5062V124H56.7062V110.04H65.3262ZM70.1116 109.2V124H67.3116V109.2H70.1116ZM77.798 124.18C76.7314 124.18 75.7714 123.947 74.918 123.48C74.0647 123 73.3914 122.327 72.898 121.46C72.418 120.593 72.178 119.593 72.178 118.46C72.178 117.327 72.4247 116.327 72.918 115.46C73.4247 114.593 74.1114 113.927 74.978 113.46C75.8447 112.98 76.8114 112.74 77.878 112.74C78.9447 112.74 79.9114 112.98 80.778 113.46C81.6447 113.927 82.3247 114.593 82.818 115.46C83.3247 116.327 83.578 117.327 83.578 118.46C83.578 119.593 83.318 120.593 82.798 121.46C82.2914 122.327 81.598 123 80.718 123.48C79.8514 123.947 78.878 124.18 77.798 124.18ZM77.798 121.74C78.3047 121.74 78.778 121.62 79.218 121.38C79.6714 121.127 80.0314 120.753 80.298 120.26C80.5647 119.767 80.698 119.167 80.698 118.46C80.698 117.407 80.418 116.6 79.858 116.04C79.3114 115.467 78.638 115.18 77.838 115.18C77.038 115.18 76.3647 115.467 75.818 116.04C75.2847 116.6 75.018 117.407 75.018 118.46C75.018 119.513 75.278 120.327 75.798 120.9C76.3314 121.46 76.998 121.74 77.798 121.74ZM90.552 124.18C89.4853 124.18 88.5253 123.947 87.672 123.48C86.8186 123 86.1453 122.327 85.652 121.46C85.172 120.593 84.932 119.593 84.932 118.46C84.932 117.327 85.1786 116.327 85.672 115.46C86.1786 114.593 86.8653 113.927 87.732 113.46C88.5986 112.98 89.5653 112.74 90.632 112.74C91.6986 112.74 92.6653 112.98 93.532 113.46C94.3986 113.927 95.0786 114.593 95.572 115.46C96.0786 116.327 96.332 117.327 96.332 118.46C96.332 119.593 96.072 120.593 95.552 121.46C95.0453 122.327 94.352 123 93.472 123.48C92.6053 123.947 91.632 124.18 90.552 124.18ZM90.552 121.74C91.0586 121.74 91.532 121.62 91.972 121.38C92.4253 121.127 92.7853 120.753 93.052 120.26C93.3186 119.767 93.452 119.167 93.452 118.46C93.452 117.407 93.172 116.6 92.612 116.04C92.0653 115.467 91.392 115.18 90.592 115.18C89.792 115.18 89.1186 115.467 88.572 116.04C88.0386 116.6 87.772 117.407 87.772 118.46C87.772 119.513 88.032 120.327 88.552 120.9C89.0853 121.46 89.752 121.74 90.552 121.74ZM100.946 121.7H105.886V124H97.7659V121.74L102.606 115.22H97.7859V112.92H105.826V115.18L100.946 121.7Z" fill="white"/>
</svg>
