<svg width="166" height="162" viewBox="0 0 166 162" fill="none" xmlns="http://www.w3.org/2000/svg">
<path d="M0 24C0 10.7452 10.7452 0 24 0H142C155.255 0 166 10.7452 166 24V138C166 151.255 155.255 162 142 162H24C10.7452 162 0 151.255 0 138V24Z" fill="#122A46"/>
<g clip-path="url(#clip0_2362_25675)">
<path d="M100.315 50.7422C92.6931 60.0103 81.7495 66.4436 69.3047 68.2216C72.4903 70.3988 76.3426 71.6721 80.4923 71.6721C91.456 71.6721 100.344 62.7842 100.344 51.8205C100.344 51.4587 100.334 51.0992 100.315 50.7422Z" fill="white"/>
<g opacity="0.5">
<mask id="mask0_2362_25675" style="mask-type:alpha" maskUnits="userSpaceOnUse" x="60" y="31" width="41" height="41">
<circle cx="80.4922" cy="51.8203" r="19.8516" fill="white"/>
</mask>
<g mask="url(#mask0_2362_25675)">
<circle cx="63.5938" cy="13.9219" r="49.2188" fill="white"/>
</g>
<mask id="mask1_2362_25675" style="mask-type:alpha" maskUnits="userSpaceOnUse" x="14" y="-36" width="99" height="100">
<path d="M112.812 13.9219C112.812 41.1046 90.7765 63.1406 63.5938 63.1406C36.411 63.1406 14.375 41.1046 14.375 13.9219C14.375 -13.2609 36.411 -35.2969 63.5938 -35.2969C90.7765 -35.2969 112.812 -13.2609 112.812 13.9219Z" fill="white"/>
</mask>
<g mask="url(#mask1_2362_25675)">
<rect x="68.8438" y="49.0312" width="6.23438" height="21.6562" rx="1.64063" fill="black"/>
<rect x="77.375" y="45.0938" width="6.23438" height="21.6562" rx="1.64063" fill="black"/>
<rect x="85.5781" y="40.8281" width="6.23438" height="19.3594" rx="1.64063" fill="black"/>
</g>
</g>
</g>
<path d="M36.3011 112.3V115.8H41.0011V118.02H36.3011V121.72H41.6011V124H33.5011V110.02H41.6011V112.3H36.3011ZM47.4056 115.22V120.58C47.4056 120.953 47.4923 121.227 47.6656 121.4C47.8523 121.56 48.159 121.64 48.5856 121.64H49.8856V124H48.1256C45.7656 124 44.5856 122.853 44.5856 120.56V115.22H43.2656V112.92H44.5856V110.18H47.4056V112.92H49.8856V115.22H47.4056ZM58.1395 112.76C58.9795 112.76 59.7262 112.947 60.3795 113.32C61.0329 113.68 61.5395 114.22 61.8995 114.94C62.2729 115.647 62.4595 116.5 62.4595 117.5V124H59.6595V117.88C59.6595 117 59.4395 116.327 58.9995 115.86C58.5595 115.38 57.9595 115.14 57.1995 115.14C56.4262 115.14 55.8129 115.38 55.3595 115.86C54.9195 116.327 54.6995 117 54.6995 117.88V124H51.8995V109.2H54.6995V114.3C55.0595 113.82 55.5395 113.447 56.1395 113.18C56.7395 112.9 57.4062 112.76 58.1395 112.76ZM75.4222 118.22C75.4222 118.62 75.3955 118.98 75.3422 119.3H67.2422C67.3089 120.1 67.5889 120.727 68.0822 121.18C68.5755 121.633 69.1822 121.86 69.9022 121.86C70.9422 121.86 71.6822 121.413 72.1222 120.52H75.1422C74.8222 121.587 74.2089 122.467 73.3022 123.16C72.3955 123.84 71.2822 124.18 69.9622 124.18C68.8955 124.18 67.9355 123.947 67.0822 123.48C66.2422 123 65.5822 122.327 65.1022 121.46C64.6355 120.593 64.4022 119.593 64.4022 118.46C64.4022 117.313 64.6355 116.307 65.1022 115.44C65.5689 114.573 66.2222 113.907 67.0622 113.44C67.9022 112.973 68.8689 112.74 69.9622 112.74C71.0155 112.74 71.9555 112.967 72.7822 113.42C73.6222 113.873 74.2689 114.52 74.7222 115.36C75.1889 116.187 75.4222 117.14 75.4222 118.22ZM72.5222 117.42C72.5089 116.7 72.2489 116.127 71.7422 115.7C71.2355 115.26 70.6155 115.04 69.8822 115.04C69.1889 115.04 68.6022 115.253 68.1222 115.68C67.6555 116.093 67.3689 116.673 67.2622 117.42H72.5222ZM80.2659 114.64C80.6259 114.053 81.0926 113.593 81.6659 113.26C82.2526 112.927 82.9193 112.76 83.6659 112.76V115.7H82.9259C82.0459 115.7 81.3793 115.907 80.9259 116.32C80.4859 116.733 80.2659 117.453 80.2659 118.48V124H77.4659V112.92H80.2659V114.64ZM89.7919 124.18C88.8852 124.18 88.0719 124.02 87.3519 123.7C86.6319 123.367 86.0585 122.92 85.6319 122.36C85.2185 121.8 84.9919 121.18 84.9519 120.5H87.7719C87.8252 120.927 88.0319 121.28 88.3919 121.56C88.7652 121.84 89.2252 121.98 89.7719 121.98C90.3052 121.98 90.7185 121.873 91.0119 121.66C91.3185 121.447 91.4719 121.173 91.4719 120.84C91.4719 120.48 91.2852 120.213 90.9119 120.04C90.5519 119.853 89.9719 119.653 89.1719 119.44C88.3452 119.24 87.6652 119.033 87.1319 118.82C86.6119 118.607 86.1585 118.28 85.7719 117.84C85.3985 117.4 85.2119 116.807 85.2119 116.06C85.2119 115.447 85.3852 114.887 85.7319 114.38C86.0919 113.873 86.5985 113.473 87.2519 113.18C87.9185 112.887 88.6985 112.74 89.5919 112.74C90.9119 112.74 91.9652 113.073 92.7519 113.74C93.5385 114.393 93.9719 115.28 94.0519 116.4H91.3719C91.3319 115.96 91.1452 115.613 90.8119 115.36C90.4919 115.093 90.0585 114.96 89.5119 114.96C89.0052 114.96 88.6119 115.053 88.3319 115.24C88.0652 115.427 87.9319 115.687 87.9319 116.02C87.9319 116.393 88.1185 116.68 88.4919 116.88C88.8652 117.067 89.4452 117.26 90.2319 117.46C91.0319 117.66 91.6919 117.867 92.2119 118.08C92.7319 118.293 93.1785 118.627 93.5519 119.08C93.9385 119.52 94.1385 120.107 94.1519 120.84C94.1519 121.48 93.9719 122.053 93.6119 122.56C93.2652 123.067 92.7585 123.467 92.0919 123.76C91.4385 124.04 90.6719 124.18 89.7919 124.18ZM95.7303 118.46C95.7303 117.313 95.9636 116.313 96.4303 115.46C96.897 114.593 97.5436 113.927 98.3703 113.46C99.197 112.98 100.144 112.74 101.21 112.74C102.584 112.74 103.717 113.087 104.61 113.78C105.517 114.46 106.124 115.42 106.43 116.66H103.41C103.25 116.18 102.977 115.807 102.59 115.54C102.217 115.26 101.75 115.12 101.19 115.12C100.39 115.12 99.757 115.413 99.2903 116C98.8236 116.573 98.5903 117.393 98.5903 118.46C98.5903 119.513 98.8236 120.333 99.2903 120.92C99.757 121.493 100.39 121.78 101.19 121.78C102.324 121.78 103.064 121.273 103.41 120.26H106.43C106.124 121.46 105.517 122.413 104.61 123.12C103.704 123.827 102.57 124.18 101.21 124.18C100.144 124.18 99.197 123.947 98.3703 123.48C97.5436 123 96.897 122.333 96.4303 121.48C95.9636 120.613 95.7303 119.607 95.7303 118.46ZM107.762 118.42C107.762 117.3 107.982 116.307 108.422 115.44C108.875 114.573 109.482 113.907 110.242 113.44C111.015 112.973 111.875 112.74 112.822 112.74C113.648 112.74 114.368 112.907 114.982 113.24C115.608 113.573 116.108 113.993 116.482 114.5V112.92H119.302V124H116.482V122.38C116.122 122.9 115.622 123.333 114.982 123.68C114.355 124.013 113.628 124.18 112.802 124.18C111.868 124.18 111.015 123.94 110.242 123.46C109.482 122.98 108.875 122.307 108.422 121.44C107.982 120.56 107.762 119.553 107.762 118.42ZM116.482 118.46C116.482 117.78 116.348 117.2 116.082 116.72C115.815 116.227 115.455 115.853 115.002 115.6C114.548 115.333 114.062 115.2 113.542 115.2C113.022 115.2 112.542 115.327 112.102 115.58C111.662 115.833 111.302 116.207 111.022 116.7C110.755 117.18 110.622 117.753 110.622 118.42C110.622 119.087 110.755 119.673 111.022 120.18C111.302 120.673 111.662 121.053 112.102 121.32C112.555 121.587 113.035 121.72 113.542 121.72C114.062 121.72 114.548 121.593 115.002 121.34C115.455 121.073 115.815 120.7 116.082 120.22C116.348 119.727 116.482 119.14 116.482 118.46ZM128.176 112.76C129.496 112.76 130.563 113.18 131.376 114.02C132.19 114.847 132.596 116.007 132.596 117.5V124H129.796V117.88C129.796 117 129.576 116.327 129.136 115.86C128.696 115.38 128.096 115.14 127.336 115.14C126.563 115.14 125.95 115.38 125.496 115.86C125.056 116.327 124.836 117 124.836 117.88V124H122.036V112.92H124.836V114.3C125.21 113.82 125.683 113.447 126.256 113.18C126.843 112.9 127.483 112.76 128.176 112.76Z" fill="white"/>
<defs>
<clipPath id="clip0_2362_25675">
<rect width="48" height="48" fill="white" transform="translate(59 30)"/>
</clipPath>
</defs>
</svg>
