<svg width="162" height="162" viewBox="0 0 162 162" fill="none" xmlns="http://www.w3.org/2000/svg">
<path d="M0 24C0 10.7452 10.7452 0 24 0H138C151.255 0 162 10.7452 162 24V138C162 151.255 151.255 162 138 162H24C10.7452 162 0 151.255 0 138V24Z" fill="#04ABCF"/>
<path d="M60.9375 40.2839L66.2241 37.6406L77.8857 43.5492L72.1327 46.1925L66.2241 43.0827V48.8358L60.9375 51.1681V40.2839Z" fill="white"/>
<path d="M60.9375 40.2839L66.2241 37.6406L77.8857 43.5492L72.1327 46.1925L66.2241 43.0827V48.8358L60.9375 51.1681V40.2839Z" fill="white"/>
<path d="M95.145 61.5833L89.8584 64.2266L78.3523 58.1625L83.9498 55.6747L89.9069 58.7845V53.2137L95.145 50.8546V61.5833Z" fill="white"/>
<path d="M60.9505 61.7384L60.9504 55.389L88.6146 43.2353L84.5719 40.7475L90.6359 37.9488L95.089 40.2811L95.089 46.6839L67.4677 58.7843L71.5108 61.272L65.2912 63.9152L60.9505 61.7384Z" fill="white"/>
<path d="M78.1966 31.5742L69.3337 36.0834L75.3978 39.0376L78.1966 37.4828L80.9954 39.0376L87.0594 36.2389L78.1966 31.5742Z" fill="white"/>
<path d="M78.1967 70.4453L87.0596 65.9362L80.9955 62.9819L78.1967 64.5368L75.3979 62.9819L69.3339 65.7807L78.1967 70.4453Z" fill="white"/>
<path d="M43.051 110.04C44.5177 110.04 45.8043 110.327 46.911 110.9C48.031 111.473 48.891 112.293 49.491 113.36C50.1044 114.413 50.411 115.64 50.411 117.04C50.411 118.44 50.1044 119.667 49.491 120.72C48.891 121.76 48.031 122.567 46.911 123.14C45.8043 123.713 44.5177 124 43.051 124H38.171V110.04H43.051ZM42.951 121.62C44.4177 121.62 45.551 121.22 46.351 120.42C47.151 119.62 47.551 118.493 47.551 117.04C47.551 115.587 47.151 114.453 46.351 113.64C45.551 112.813 44.4177 112.4 42.951 112.4H40.971V121.62H42.951ZM55.307 112.3V115.8H60.007V118.02H55.307V121.72H60.607V124H52.507V110.02H60.607V112.3H55.307ZM71.5115 124L68.4915 119.3L65.7515 124H62.5915L66.9915 116.96L62.5315 110.04H65.7515L68.7715 114.72L71.4915 110.04H74.6515L70.2715 117.06L74.7315 124H71.5115ZM80.1224 115.22V120.58C80.1224 120.953 80.2091 121.227 80.3824 121.4C80.5691 121.56 80.8758 121.64 81.3024 121.64H82.6024V124H80.8424C78.4824 124 77.3024 122.853 77.3024 120.56V115.22H75.9824V112.92H77.3024V110.18H80.1224V112.92H82.6024V115.22H80.1224ZM89.5363 124.18C88.4697 124.18 87.5097 123.947 86.6563 123.48C85.803 123 85.1297 122.327 84.6363 121.46C84.1563 120.593 83.9163 119.593 83.9163 118.46C83.9163 117.327 84.163 116.327 84.6563 115.46C85.163 114.593 85.8497 113.927 86.7163 113.46C87.583 112.98 88.5497 112.74 89.6163 112.74C90.683 112.74 91.6497 112.98 92.5163 113.46C93.383 113.927 94.063 114.593 94.5563 115.46C95.063 116.327 95.3163 117.327 95.3163 118.46C95.3163 119.593 95.0563 120.593 94.5363 121.46C94.0297 122.327 93.3363 123 92.4563 123.48C91.5897 123.947 90.6163 124.18 89.5363 124.18ZM89.5363 121.74C90.043 121.74 90.5163 121.62 90.9563 121.38C91.4097 121.127 91.7697 120.753 92.0363 120.26C92.303 119.767 92.4363 119.167 92.4363 118.46C92.4363 117.407 92.1563 116.6 91.5963 116.04C91.0497 115.467 90.3763 115.18 89.5763 115.18C88.7763 115.18 88.103 115.467 87.5563 116.04C87.023 116.6 86.7563 117.407 86.7563 118.46C86.7563 119.513 87.0163 120.327 87.5363 120.9C88.0697 121.46 88.7363 121.74 89.5363 121.74ZM102.29 124.18C101.224 124.18 100.264 123.947 99.4102 123.48C98.5569 123 97.8836 122.327 97.3902 121.46C96.9102 120.593 96.6702 119.593 96.6702 118.46C96.6702 117.327 96.9169 116.327 97.4102 115.46C97.9169 114.593 98.6036 113.927 99.4702 113.46C100.337 112.98 101.304 112.74 102.37 112.74C103.437 112.74 104.404 112.98 105.27 113.46C106.137 113.927 106.817 114.593 107.31 115.46C107.817 116.327 108.07 117.327 108.07 118.46C108.07 119.593 107.81 120.593 107.29 121.46C106.784 122.327 106.09 123 105.21 123.48C104.344 123.947 103.37 124.18 102.29 124.18ZM102.29 121.74C102.797 121.74 103.27 121.62 103.71 121.38C104.164 121.127 104.524 120.753 104.79 120.26C105.057 119.767 105.19 119.167 105.19 118.46C105.19 117.407 104.91 116.6 104.35 116.04C103.804 115.467 103.13 115.18 102.33 115.18C101.53 115.18 100.857 115.467 100.31 116.04C99.7769 116.6 99.5102 117.407 99.5102 118.46C99.5102 119.513 99.7702 120.327 100.29 120.9C100.824 121.46 101.49 121.74 102.29 121.74ZM112.924 109.2V124H110.124V109.2H112.924ZM119.931 124.18C119.024 124.18 118.211 124.02 117.491 123.7C116.771 123.367 116.197 122.92 115.771 122.36C115.357 121.8 115.131 121.18 115.091 120.5H117.911C117.964 120.927 118.171 121.28 118.531 121.56C118.904 121.84 119.364 121.98 119.911 121.98C120.444 121.98 120.857 121.873 121.151 121.66C121.457 121.447 121.611 121.173 121.611 120.84C121.611 120.48 121.424 120.213 121.051 120.04C120.691 119.853 120.111 119.653 119.311 119.44C118.484 119.24 117.804 119.033 117.271 118.82C116.751 118.607 116.297 118.28 115.911 117.84C115.537 117.4 115.351 116.807 115.351 116.06C115.351 115.447 115.524 114.887 115.871 114.38C116.231 113.873 116.737 113.473 117.391 113.18C118.057 112.887 118.837 112.74 119.731 112.74C121.051 112.74 122.104 113.073 122.891 113.74C123.677 114.393 124.111 115.28 124.191 116.4H121.511C121.471 115.96 121.284 115.613 120.951 115.36C120.631 115.093 120.197 114.96 119.651 114.96C119.144 114.96 118.751 115.053 118.471 115.24C118.204 115.427 118.071 115.687 118.071 116.02C118.071 116.393 118.257 116.68 118.631 116.88C119.004 117.067 119.584 117.26 120.371 117.46C121.171 117.66 121.831 117.867 122.351 118.08C122.871 118.293 123.317 118.627 123.691 119.08C124.077 119.52 124.277 120.107 124.291 120.84C124.291 121.48 124.111 122.053 123.751 122.56C123.404 123.067 122.897 123.467 122.231 123.76C121.577 124.04 120.811 124.18 119.931 124.18Z" fill="white"/>
</svg>
