<svg width="162" height="162" viewBox="0 0 162 162" fill="none" xmlns="http://www.w3.org/2000/svg">
<path d="M0 24C0 10.7452 10.7452 0 24 0H138C151.255 0 162 10.7452 162 24V138C162 151.255 151.255 162 138 162H24C10.7452 162 0 151.255 0 138V24Z" fill="#826BFF"/>
<path fill-rule="evenodd" clip-rule="evenodd" d="M59.4866 44.9968C56.1711 48.3123 56.1711 53.6877 59.4866 57.0032L71.9968 69.5134C75.3123 72.8289 80.6877 72.8289 84.0032 69.5134L96.5134 57.0032C99.8289 53.6877 99.8289 48.3123 96.5134 44.9968L84.0032 32.4866C80.6877 29.1711 75.3123 29.1711 71.9968 32.4866L59.4866 44.9968ZM78 38.3622L65.3622 51L78 63.6378L90.6378 51L78 38.3622Z" fill="white"/>
<path d="M68.7009 54.3562C69.7955 53.5286 72.0488 51.0084 72.3051 47.5484C72.6254 43.2234 72.9458 42.1822 74.0671 40.7406C75.1884 39.2989 78.9527 36.6559 83.5981 36.5758C84.1587 34.1731 88.9642 34.2531 89.6851 37.2966C91.5806 37.7772 95.4197 39.1067 95.6119 40.5804C95.8522 42.4225 93.7698 44.0244 90.1656 45.2258C86.5615 46.4271 83.4379 48.4294 82.8772 53.5553C82.4287 57.6561 82.717 58.6011 82.8772 58.7613" stroke="black" stroke-width="1.28147"/>
<path d="M74.0669 40.7406C72.9456 42.1822 72.6252 43.2234 72.3048 47.5484C72.0554 50.9159 70.3027 53.235 68.6207 54.4364L77.9114 64.1275L82.9572 59.0016C82.8771 58.8414 82.4285 57.6561 82.877 53.5553C83.4377 48.4294 86.5612 46.4271 90.1654 45.2258C93.7695 44.0244 95.8519 42.4225 95.6117 40.5804C95.4194 39.1067 91.5804 37.7772 89.6848 37.2966C88.964 34.2531 84.1585 34.1731 83.5978 36.5758C78.9525 36.6559 75.1882 39.2989 74.0669 40.7406Z" fill="white"/>
<ellipse cx="86.4814" cy="38.1762" rx="2.40276" ry="2.40276" fill="black"/>
<path d="M87.2822 36.2541C87.2822 37.0503 86.6368 37.6957 85.8406 37.6957C85.0444 37.6957 84.3989 37.0503 84.3989 36.2541C84.3989 35.4579 85.8406 36.0939 86.241 35.293C87.0373 35.293 87.2822 35.4579 87.2822 36.2541Z" fill="white"/>
<path d="M28.5839 112.08C28.2959 111.525 27.8959 111.109 27.3839 110.832C26.8719 110.544 26.2799 110.4 25.6079 110.4C24.8719 110.4 24.2159 110.565 23.6399 110.896C23.0639 111.227 22.6106 111.696 22.2799 112.304C21.9599 112.912 21.7999 113.616 21.7999 114.416C21.7999 115.216 21.9599 115.925 22.2799 116.544C22.6106 117.152 23.0639 117.621 23.6399 117.952C24.2159 118.283 24.8719 118.448 25.6079 118.448C26.5999 118.448 27.4053 118.171 28.0239 117.616C28.6426 117.061 29.0213 116.309 29.1599 115.36H24.9839V113.904H31.1119V115.328C30.9946 116.192 30.6853 116.987 30.1839 117.712C29.6933 118.437 29.0479 119.019 28.2479 119.456C27.4586 119.883 26.5786 120.096 25.6079 120.096C24.5626 120.096 23.6079 119.856 22.7439 119.376C21.8799 118.885 21.1919 118.208 20.6799 117.344C20.1786 116.48 19.9279 115.504 19.9279 114.416C19.9279 113.328 20.1786 112.352 20.6799 111.488C21.1919 110.624 21.8799 109.952 22.7439 109.472C23.6186 108.981 24.5733 108.736 25.6079 108.736C26.7919 108.736 27.8426 109.029 28.7599 109.616C29.6879 110.192 30.3599 111.013 30.7759 112.08H28.5839ZM40.9909 115.376C40.9909 115.707 40.9696 116.005 40.9269 116.272H34.1909C34.2443 116.976 34.5056 117.541 34.9749 117.968C35.4443 118.395 36.0203 118.608 36.7029 118.608C37.6843 118.608 38.3776 118.197 38.7829 117.376H40.7509C40.4843 118.187 39.9989 118.853 39.2949 119.376C38.6016 119.888 37.7376 120.144 36.7029 120.144C35.8603 120.144 35.1029 119.957 34.4309 119.584C33.7696 119.2 33.2469 118.667 32.8629 117.984C32.4896 117.291 32.3029 116.491 32.3029 115.584C32.3029 114.677 32.4843 113.883 32.8469 113.2C33.2203 112.507 33.7376 111.973 34.3989 111.6C35.0709 111.227 35.8389 111.04 36.7029 111.04C37.5349 111.04 38.2763 111.221 38.9269 111.584C39.5776 111.947 40.0843 112.459 40.4469 113.12C40.8096 113.771 40.9909 114.523 40.9909 115.376ZM39.0869 114.8C39.0763 114.128 38.8363 113.589 38.3669 113.184C37.8976 112.779 37.3163 112.576 36.6229 112.576C35.9936 112.576 35.4549 112.779 35.0069 113.184C34.5589 113.579 34.2923 114.117 34.2069 114.8H39.0869ZM42.1779 115.584C42.1779 114.677 42.3593 113.883 42.7219 113.2C43.0953 112.507 43.6073 111.973 44.2579 111.6C44.9086 111.227 45.6553 111.04 46.4979 111.04C47.5646 111.04 48.4446 111.296 49.1379 111.808C49.8419 112.309 50.3166 113.029 50.5619 113.968H48.5939C48.4339 113.531 48.1779 113.189 47.8259 112.944C47.4739 112.699 47.0313 112.576 46.4979 112.576C45.7513 112.576 45.1539 112.843 44.7059 113.376C44.2686 113.899 44.0499 114.635 44.0499 115.584C44.0499 116.533 44.2686 117.275 44.7059 117.808C45.1539 118.341 45.7513 118.608 46.4979 118.608C47.5539 118.608 48.2526 118.144 48.5939 117.216H50.5619C50.3059 118.112 49.8259 118.827 49.1219 119.36C48.4179 119.883 47.5433 120.144 46.4979 120.144C45.6553 120.144 44.9086 119.957 44.2579 119.584C43.6073 119.2 43.0953 118.667 42.7219 117.984C42.3593 117.291 42.1779 116.491 42.1779 115.584ZM55.8677 115.6L59.9317 120H57.4677L54.2037 116.208V120H52.3797V108.16H54.2037V115.04L57.4037 111.184H59.9317L55.8677 115.6ZM65.0631 120.144C64.2311 120.144 63.4791 119.957 62.8071 119.584C62.1351 119.2 61.6071 118.667 61.2231 117.984C60.8391 117.291 60.6471 116.491 60.6471 115.584C60.6471 114.688 60.8444 113.893 61.2391 113.2C61.6337 112.507 62.1724 111.973 62.8551 111.6C63.5377 111.227 64.3004 111.04 65.1431 111.04C65.9857 111.04 66.7484 111.227 67.4311 111.6C68.1137 111.973 68.6524 112.507 69.0471 113.2C69.4417 113.893 69.6391 114.688 69.6391 115.584C69.6391 116.48 69.4364 117.275 69.0311 117.968C68.6257 118.661 68.0711 119.2 67.3671 119.584C66.6737 119.957 65.9057 120.144 65.0631 120.144ZM65.0631 118.56C65.5324 118.56 65.9697 118.448 66.3751 118.224C66.7911 118 67.1271 117.664 67.3831 117.216C67.6391 116.768 67.7671 116.224 67.7671 115.584C67.7671 114.944 67.6444 114.405 67.3991 113.968C67.1537 113.52 66.8284 113.184 66.4231 112.96C66.0177 112.736 65.5804 112.624 65.1111 112.624C64.6417 112.624 64.2044 112.736 63.7991 112.96C63.4044 113.184 63.0897 113.52 62.8551 113.968C62.6204 114.405 62.5031 114.944 62.5031 115.584C62.5031 116.533 62.7431 117.269 63.2231 117.792C63.7137 118.304 64.3271 118.56 65.0631 118.56ZM77.7264 112.672V117.552C77.7264 117.883 77.8011 118.123 77.9504 118.272C78.1104 118.411 78.3771 118.48 78.7504 118.48H79.8704V120H78.4304C77.6091 120 76.9798 119.808 76.5424 119.424C76.1051 119.04 75.8864 118.416 75.8864 117.552V112.672H74.8464V111.184H75.8864V108.992H77.7264V111.184H79.8704V112.672H77.7264ZM89.6316 115.376C89.6316 115.707 89.6102 116.005 89.5676 116.272H82.8316C82.8849 116.976 83.1462 117.541 83.6156 117.968C84.0849 118.395 84.6609 118.608 85.3436 118.608C86.3249 118.608 87.0182 118.197 87.4236 117.376H89.3916C89.1249 118.187 88.6396 118.853 87.9356 119.376C87.2422 119.888 86.3782 120.144 85.3436 120.144C84.5009 120.144 83.7436 119.957 83.0716 119.584C82.4102 119.2 81.8876 118.667 81.5036 117.984C81.1302 117.291 80.9436 116.491 80.9436 115.584C80.9436 114.677 81.1249 113.883 81.4876 113.2C81.8609 112.507 82.3782 111.973 83.0396 111.6C83.7116 111.227 84.4796 111.04 85.3436 111.04C86.1756 111.04 86.9169 111.221 87.5676 111.584C88.2182 111.947 88.7249 112.459 89.0876 113.12C89.4502 113.771 89.6316 114.523 89.6316 115.376ZM87.7276 114.8C87.7169 114.128 87.4769 113.589 87.0076 113.184C86.5382 112.779 85.9569 112.576 85.2636 112.576C84.6342 112.576 84.0956 112.779 83.6476 113.184C83.1996 113.579 82.9329 114.117 82.8476 114.8H87.7276ZM93.2506 112.464C93.5172 112.016 93.8692 111.669 94.3066 111.424C94.7546 111.168 95.2826 111.04 95.8906 111.04V112.928H95.4266C94.7119 112.928 94.1679 113.109 93.7946 113.472C93.4319 113.835 93.2506 114.464 93.2506 115.36V120H91.4266V111.184H93.2506V112.464ZM108.239 111.04C108.933 111.04 109.551 111.184 110.095 111.472C110.65 111.76 111.082 112.187 111.391 112.752C111.711 113.317 111.871 114 111.871 114.8V120H110.063V115.072C110.063 114.283 109.866 113.68 109.471 113.264C109.077 112.837 108.538 112.624 107.855 112.624C107.173 112.624 106.629 112.837 106.223 113.264C105.829 113.68 105.631 114.283 105.631 115.072V120H103.823V115.072C103.823 114.283 103.626 113.68 103.231 113.264C102.837 112.837 102.298 112.624 101.615 112.624C100.933 112.624 100.389 112.837 99.9832 113.264C99.5885 113.68 99.3912 114.283 99.3912 115.072V120H97.5672V111.184H99.3912V112.192C99.6899 111.829 100.069 111.547 100.527 111.344C100.986 111.141 101.477 111.04 101.999 111.04C102.703 111.04 103.333 111.189 103.887 111.488C104.442 111.787 104.869 112.219 105.167 112.784C105.434 112.251 105.85 111.829 106.415 111.52C106.981 111.2 107.589 111.04 108.239 111.04ZM115.12 110.016C114.79 110.016 114.512 109.904 114.288 109.68C114.064 109.456 113.952 109.179 113.952 108.848C113.952 108.517 114.064 108.24 114.288 108.016C114.512 107.792 114.79 107.68 115.12 107.68C115.44 107.68 115.712 107.792 115.936 108.016C116.16 108.24 116.272 108.517 116.272 108.848C116.272 109.179 116.16 109.456 115.936 109.68C115.712 109.904 115.44 110.016 115.12 110.016ZM116.016 111.184V120H114.192V111.184H116.016ZM122.859 111.04C123.552 111.04 124.171 111.184 124.715 111.472C125.27 111.76 125.702 112.187 126.011 112.752C126.32 113.317 126.475 114 126.475 114.8V120H124.667V115.072C124.667 114.283 124.47 113.68 124.075 113.264C123.68 112.837 123.142 112.624 122.459 112.624C121.776 112.624 121.232 112.837 120.827 113.264C120.432 113.68 120.235 114.283 120.235 115.072V120H118.411V111.184H120.235V112.192C120.534 111.829 120.912 111.547 121.371 111.344C121.84 111.141 122.336 111.04 122.859 111.04ZM128.194 115.552C128.194 114.667 128.375 113.883 128.738 113.2C129.111 112.517 129.612 111.989 130.242 111.616C130.882 111.232 131.586 111.04 132.354 111.04C133.047 111.04 133.65 111.179 134.162 111.456C134.684 111.723 135.1 112.059 135.41 112.464V111.184H137.25V120H135.41V118.688C135.1 119.104 134.679 119.451 134.146 119.728C133.612 120.005 133.004 120.144 132.322 120.144C131.564 120.144 130.871 119.952 130.242 119.568C129.612 119.173 129.111 118.629 128.738 117.936C128.375 117.232 128.194 116.437 128.194 115.552ZM135.41 115.584C135.41 114.976 135.282 114.448 135.026 114C134.78 113.552 134.455 113.211 134.05 112.976C133.644 112.741 133.207 112.624 132.738 112.624C132.268 112.624 131.831 112.741 131.426 112.976C131.02 113.2 130.69 113.536 130.434 113.984C130.188 114.421 130.066 114.944 130.066 115.552C130.066 116.16 130.188 116.693 130.434 117.152C130.69 117.611 131.02 117.963 131.426 118.208C131.842 118.443 132.279 118.56 132.738 118.56C133.207 118.56 133.644 118.443 134.05 118.208C134.455 117.973 134.78 117.632 135.026 117.184C135.282 116.725 135.41 116.192 135.41 115.584ZM141.469 108.16V120H139.645V108.16H141.469Z" fill="white"/>
</svg>
