<svg width="162" height="162" viewBox="0 0 162 162" fill="none" xmlns="http://www.w3.org/2000/svg">
<path d="M0 24C0 10.7452 10.7452 0 24 0H138C151.255 0 162 10.7452 162 24V138C162 151.255 151.255 162 138 162H24C10.7452 162 0 151.255 0 138V24Z" fill="#1F1F1F"/>
<path d="M70.8914 37.3203L73.5143 45.1938C74.8828 45.0778 76.3151 45.0162 77.7899 45.0162C79.2344 45.0162 80.6381 45.0753 81.9811 45.1868L84.7544 37.3237L87.0193 45.9035C92.0048 46.9497 95.3249 48.818 95.3249 50.9487C95.3249 53.9686 88.6558 56.4614 80.0287 56.8333C80.0545 59.7717 82.0148 68.9804 83.2954 71.4582C81.5549 71.9174 79.7272 72.162 77.8424 72.162C75.8944 72.162 74.0074 71.9007 72.2145 71.4113C73.6964 68.4723 75.1716 60.9535 75.5455 56.8331C66.9211 56.4603 60.2549 53.9679 60.2549 50.9487C60.2549 48.8327 63.5296 46.9753 68.4579 45.9252L70.8914 37.3203Z" fill="white"/>
<circle cx="69.81" cy="50.8969" r="2.1" fill="black"/>
<circle cx="84.9301" cy="50.8969" r="2.1" fill="black"/>
<path d="M44.5354 110.04C46.0021 110.04 47.2887 110.327 48.3954 110.9C49.5154 111.473 50.3754 112.293 50.9754 113.36C51.5887 114.413 51.8954 115.64 51.8954 117.04C51.8954 118.44 51.5887 119.667 50.9754 120.72C50.3754 121.76 49.5154 122.567 48.3954 123.14C47.2887 123.713 46.0021 124 44.5354 124H39.6554V110.04H44.5354ZM44.4354 121.62C45.9021 121.62 47.0354 121.22 47.8354 120.42C48.6354 119.62 49.0354 118.493 49.0354 117.04C49.0354 115.587 48.6354 114.453 47.8354 113.64C47.0354 112.813 45.9021 112.4 44.4354 112.4H42.4554V121.62H44.4354ZM56.7913 112.3V115.8H61.4913V118.02H56.7913V121.72H62.0913V124H53.9913V110.02H62.0913V112.3H56.7913ZM72.9959 124L69.9759 119.3L67.2359 124H64.0759L68.4759 116.96L64.0159 110.04H67.2359L70.2559 114.72L72.9759 110.04H76.1359L71.7559 117.06L76.2159 124H72.9959ZM82.9668 121.42L85.7668 112.92H88.7468L84.6468 124H81.2468L77.1668 112.92H80.1668L82.9668 121.42ZM91.7395 111.6C91.2461 111.6 90.8328 111.447 90.4995 111.14C90.1795 110.82 90.0195 110.427 90.0195 109.96C90.0195 109.493 90.1795 109.107 90.4995 108.8C90.8328 108.48 91.2461 108.32 91.7395 108.32C92.2328 108.32 92.6395 108.48 92.9595 108.8C93.2928 109.107 93.4595 109.493 93.4595 109.96C93.4595 110.427 93.2928 110.82 92.9595 111.14C92.6395 111.447 92.2328 111.6 91.7395 111.6ZM93.1195 112.92V124H90.3195V112.92H93.1195ZM106.186 118.22C106.186 118.62 106.159 118.98 106.106 119.3H98.0059C98.0725 120.1 98.3525 120.727 98.8459 121.18C99.3392 121.633 99.9459 121.86 100.666 121.86C101.706 121.86 102.446 121.413 102.886 120.52H105.906C105.586 121.587 104.973 122.467 104.066 123.16C103.159 123.84 102.046 124.18 100.726 124.18C99.6592 124.18 98.6992 123.947 97.8459 123.48C97.0059 123 96.3459 122.327 95.8659 121.46C95.3992 120.593 95.1659 119.593 95.1659 118.46C95.1659 117.313 95.3992 116.307 95.8659 115.44C96.3325 114.573 96.9859 113.907 97.8259 113.44C98.6659 112.973 99.6325 112.74 100.726 112.74C101.779 112.74 102.719 112.967 103.546 113.42C104.386 113.873 105.033 114.52 105.486 115.36C105.953 116.187 106.186 117.14 106.186 118.22ZM103.286 117.42C103.273 116.7 103.013 116.127 102.506 115.7C101.999 115.26 101.379 115.04 100.646 115.04C99.9525 115.04 99.3659 115.253 98.8859 115.68C98.4192 116.093 98.1325 116.673 98.0259 117.42H103.286ZM123.59 112.92L120.35 124H117.33L115.31 116.26L113.29 124H110.25L106.99 112.92H109.83L111.79 121.36L113.91 112.92H116.87L118.95 121.34L120.91 112.92H123.59Z" fill="white"/>
</svg>
