<svg width="234" height="234" viewBox="0 0 234 234" fill="none" xmlns="http://www.w3.org/2000/svg">
<mask id="path-1-inside-1_2305_16904" fill="white">
<path d="M117 17.2059C117 7.70335 124.744 -0.129659 134.144 1.2628C152.718 4.01414 170.445 11.21 185.771 22.345C205.76 36.868 220.638 57.3463 228.274 80.845C235.909 104.344 235.909 129.656 228.274 153.155C222.42 171.172 212.308 187.413 198.899 200.556C192.113 207.208 181.243 205.423 175.657 197.735L163.626 181.176C158.041 173.488 159.997 162.83 165.864 155.356C170.34 149.653 173.812 143.175 176.079 136.196C180.133 123.72 180.133 110.28 176.079 97.804C172.025 85.3277 164.126 74.455 153.513 66.7442C147.576 62.4308 140.96 59.2307 133.987 57.2481C124.847 54.6496 117 47.1771 117 37.6745L117 17.2059Z"/>
</mask>
<path d="M117 17.2059C117 7.70335 124.744 -0.129659 134.144 1.2628C152.718 4.01414 170.445 11.21 185.771 22.345C205.76 36.868 220.638 57.3463 228.274 80.845C235.909 104.344 235.909 129.656 228.274 153.155C222.42 171.172 212.308 187.413 198.899 200.556C192.113 207.208 181.243 205.423 175.657 197.735L163.626 181.176C158.041 173.488 159.997 162.83 165.864 155.356C170.34 149.653 173.812 143.175 176.079 136.196C180.133 123.72 180.133 110.28 176.079 97.804C172.025 85.3277 164.126 74.455 153.513 66.7442C147.576 62.4308 140.96 59.2307 133.987 57.2481C124.847 54.6496 117 47.1771 117 37.6745L117 17.2059Z" fill="#D25600" stroke="#292929" stroke-width="6" mask="url(#path-1-inside-1_2305_16904)"/>
<mask id="path-2-inside-2_2305_16904" fill="white">
<path d="M175.703 197.702C181.293 205.386 179.638 216.276 171.217 220.68C154.579 229.38 136.01 233.989 117.066 234C98.1223 234.011 79.5485 229.423 62.9004 220.741C54.4747 216.347 52.8072 205.459 58.3883 197.768L70.4101 181.202C75.9911 173.511 86.7306 172.072 95.6546 175.337C102.463 177.828 109.697 179.124 117.035 179.12C124.374 179.115 131.606 177.812 138.412 175.313C147.332 172.038 158.073 173.465 163.663 181.149L175.703 197.702Z"/>
</mask>
<path d="M175.703 197.702C181.293 205.386 179.638 216.276 171.217 220.68C154.579 229.38 136.01 233.989 117.066 234C98.1223 234.011 79.5485 229.423 62.9004 220.741C54.4747 216.347 52.8072 205.459 58.3883 197.768L70.4101 181.202C75.9911 173.511 86.7306 172.072 95.6546 175.337C102.463 177.828 109.697 179.124 117.035 179.12C124.374 179.115 131.606 177.812 138.412 175.313C147.332 172.038 158.073 173.465 163.663 181.149L175.703 197.702Z" fill="#E36914" stroke="#292929" stroke-width="6" mask="url(#path-2-inside-2_2305_16904)"/>
<mask id="path-3-inside-3_2305_16904" fill="white">
<path d="M58.2801 197.69C52.6887 205.373 41.8178 207.15 35.0367 200.493C25.7147 191.342 17.9898 180.692 12.1851 168.989C7.96263 160.476 13.0266 150.694 22.0664 147.765L41.5381 141.455C50.5778 138.525 60.1053 143.686 65.3951 151.58C66.2523 152.859 67.1566 154.106 68.1064 155.318C73.9679 162.797 75.9155 173.456 70.3241 181.14L58.2801 197.69Z"/>
</mask>
<path d="M58.2801 197.69C52.6887 205.373 41.8178 207.15 35.0367 200.493C25.7147 191.342 17.9898 180.692 12.1851 168.989C7.96263 160.476 13.0266 150.694 22.0664 147.765L41.5381 141.455C50.5778 138.525 60.1053 143.686 65.3951 151.58C66.2523 152.859 67.1566 154.106 68.1064 155.318C73.9679 162.797 75.9155 173.456 70.3241 181.14L58.2801 197.69Z" fill="#EE7929" stroke="#292929" stroke-width="6" mask="url(#path-3-inside-3_2305_16904)"/>
<mask id="path-4-inside-4_2305_16904" fill="white">
<path d="M22.0663 147.765C13.0266 150.694 3.18759 145.741 1.61442 136.37C-0.548219 123.487 -0.538028 110.331 1.64456 97.4512C3.23226 88.0822 13.0789 83.145 22.1141 86.0884L41.576 92.4286C50.6112 95.3721 55.2856 105.147 54.9251 114.643C54.8667 116.182 54.8655 117.722 54.9216 119.261C55.2673 128.757 50.5778 138.525 41.538 141.454L22.0663 147.765Z"/>
</mask>
<path d="M22.0663 147.765C13.0266 150.694 3.18759 145.741 1.61442 136.37C-0.548219 123.487 -0.538028 110.331 1.64456 97.4512C3.23226 88.0822 13.0789 83.145 22.1141 86.0884L41.576 92.4286C50.6112 95.3721 55.2856 105.147 54.9251 114.643C54.8667 116.182 54.8655 117.722 54.9216 119.261C55.2673 128.757 50.5778 138.525 41.538 141.454L22.0663 147.765Z" fill="#FE9750" stroke="#292929" stroke-width="6" mask="url(#path-4-inside-4_2305_16904)"/>
<mask id="path-5-inside-5_2305_16904" fill="white">
<path d="M22.1124 86.0936C13.077 83.1507 8.02762 73.3611 12.2628 64.8545C18.0849 53.1606 25.8257 42.5223 35.1614 33.385C41.9524 26.7382 52.8207 28.5309 58.4006 36.2227L70.4198 52.7908C75.9998 60.4826 74.0362 71.1387 68.1636 78.6093C67.212 79.8197 66.3058 81.0652 65.4468 82.343C60.1452 90.2291 50.61 95.3757 41.5747 92.4328L22.1124 86.0936Z"/>
</mask>
<path d="M22.1124 86.0936C13.077 83.1507 8.02762 73.3611 12.2628 64.8545C18.0849 53.1606 25.8257 42.5223 35.1614 33.385C41.9524 26.7382 52.8207 28.5309 58.4006 36.2227L70.4198 52.7908C75.9998 60.4826 74.0362 71.1387 68.1636 78.6093C67.212 79.8197 66.3058 81.0652 65.4468 82.343C60.1452 90.2291 50.61 95.3757 41.5747 92.4328L22.1124 86.0936Z" fill="#FFAE76" stroke="#292929" stroke-width="6" mask="url(#path-5-inside-5_2305_16904)"/>
<mask id="path-6-inside-6_2305_16904" fill="white">
<path d="M58.3775 36.2394C52.7954 28.5493 54.4614 17.6609 62.8865 13.2659C74.4685 7.22413 86.9829 3.16398 99.9058 1.25537C109.306 -0.133016 117.047 7.70335 117.043 17.2059L117.034 37.6745C117.03 47.1771 109.18 54.6462 100.039 57.2408C98.5577 57.6612 97.0927 58.1365 95.6468 58.6658C86.7233 61.9321 75.9836 60.4943 70.4015 52.8041L58.3775 36.2394Z"/>
</mask>
<path d="M58.3775 36.2394C52.7954 28.5493 54.4614 17.6609 62.8865 13.2659C74.4685 7.22413 86.9829 3.16398 99.9058 1.25537C109.306 -0.133016 117.047 7.70335 117.043 17.2059L117.034 37.6745C117.03 47.1771 109.18 54.6462 100.039 57.2408C98.5577 57.6612 97.0927 58.1365 95.6468 58.6658C86.7233 61.9321 75.9836 60.4943 70.4015 52.8041L58.3775 36.2394Z" fill="#FFC8A3" stroke="#292929" stroke-width="6" mask="url(#path-6-inside-6_2305_16904)"/>
<circle cx="84.9546" cy="183.955" r="3.09706" transform="rotate(-70.4598 84.9546 183.955)" fill="white"/>
<circle cx="22.9546" cy="162.955" r="3.09706" transform="rotate(-70.4598 22.9546 162.955)" fill="white"/>
<circle cx="66.9546" cy="24.9551" r="3.09706" transform="rotate(-70.4598 66.9546 24.9551)" fill="white"/>
<circle cx="12.9546" cy="97.9551" r="3.09706" transform="rotate(-70.4598 12.9546 97.9551)" fill="white"/>
<ellipse cx="31.0836" cy="54.0446" rx="16.3299" ry="3.09706" transform="rotate(-54.1028 31.0836 54.0446)" fill="white"/>
<circle cx="130.955" cy="13.9551" r="3.09706" transform="rotate(-70.4598 130.955 13.9551)" fill="white"/>
<path d="M108.285 95.472C108.199 95.0773 108.05 94.784 107.837 94.592C107.623 94.3893 107.319 94.288 106.925 94.288C106.317 94.288 105.879 94.5547 105.613 95.088C105.346 95.6107 105.207 96.4427 105.197 97.584C105.431 97.2107 105.767 96.9173 106.205 96.704C106.653 96.4907 107.143 96.384 107.677 96.384C108.722 96.384 109.559 96.7147 110.189 97.376C110.829 98.0373 111.149 98.96 111.149 100.144C111.149 100.923 110.989 101.605 110.669 102.192C110.359 102.779 109.901 103.237 109.293 103.568C108.695 103.899 107.986 104.064 107.165 104.064C105.522 104.064 104.381 103.552 103.741 102.528C103.101 101.493 102.781 100.011 102.781 98.08C102.781 96.0533 103.117 94.5493 103.789 93.568C104.471 92.576 105.559 92.08 107.053 92.08C107.853 92.08 108.525 92.24 109.069 92.56C109.623 92.8693 110.039 93.28 110.317 93.792C110.605 94.304 110.775 94.864 110.829 95.472H108.285ZM107.021 98.544C106.562 98.544 106.178 98.6827 105.869 98.96C105.57 99.2267 105.421 99.6107 105.421 100.112C105.421 100.624 105.559 101.024 105.837 101.312C106.125 101.6 106.53 101.744 107.053 101.744C107.522 101.744 107.89 101.605 108.157 101.328C108.434 101.04 108.573 100.651 108.573 100.16C108.573 99.6587 108.439 99.264 108.173 98.976C107.906 98.688 107.522 98.544 107.021 98.544ZM112.376 98C112.376 96.1653 112.728 94.72 113.432 93.664C114.147 92.608 115.294 92.08 116.872 92.08C118.451 92.08 119.592 92.608 120.296 93.664C121.011 94.72 121.368 96.1653 121.368 98C121.368 99.856 121.011 101.312 120.296 102.368C119.592 103.424 118.451 103.952 116.872 103.952C115.294 103.952 114.147 103.424 113.432 102.368C112.728 101.312 112.376 99.856 112.376 98ZM118.68 98C118.68 96.9227 118.563 96.096 118.328 95.52C118.094 94.9333 117.608 94.64 116.872 94.64C116.136 94.64 115.651 94.9333 115.416 95.52C115.182 96.096 115.064 96.9227 115.064 98C115.064 98.7253 115.107 99.328 115.192 99.808C115.278 100.277 115.448 100.661 115.704 100.96C115.971 101.248 116.36 101.392 116.872 101.392C117.384 101.392 117.768 101.248 118.024 100.96C118.291 100.661 118.467 100.277 118.552 99.808C118.638 99.328 118.68 98.7253 118.68 98ZM122.494 98C122.494 96.1653 122.846 94.72 123.55 93.664C124.264 92.608 125.411 92.08 126.99 92.08C128.568 92.08 129.71 92.608 130.414 93.664C131.128 94.72 131.486 96.1653 131.486 98C131.486 99.856 131.128 101.312 130.414 102.368C129.71 103.424 128.568 103.952 126.99 103.952C125.411 103.952 124.264 103.424 123.55 102.368C122.846 101.312 122.494 99.856 122.494 98ZM128.798 98C128.798 96.9227 128.68 96.096 128.446 95.52C128.211 94.9333 127.726 94.64 126.99 94.64C126.254 94.64 125.768 94.9333 125.534 95.52C125.299 96.096 125.182 96.9227 125.182 98C125.182 98.7253 125.224 99.328 125.31 99.808C125.395 100.277 125.566 100.661 125.822 100.96C126.088 101.248 126.478 101.392 126.99 101.392C127.502 101.392 127.886 101.248 128.142 100.96C128.408 100.661 128.584 100.277 128.67 99.808C128.755 99.328 128.798 98.7253 128.798 98ZM100.557 117.24C101.207 117.379 101.73 117.704 102.125 118.216C102.519 118.717 102.717 119.293 102.717 119.944C102.717 120.883 102.386 121.629 101.725 122.184C101.074 122.728 100.162 123 98.9887 123H93.7567V111.768H98.8127C99.954 111.768 100.845 112.029 101.485 112.552C102.135 113.075 102.461 113.784 102.461 114.68C102.461 115.341 102.285 115.891 101.933 116.328C101.591 116.765 101.133 117.069 100.557 117.24ZM96.4927 116.312H98.2847C98.7327 116.312 99.074 116.216 99.3087 116.024C99.554 115.821 99.6767 115.528 99.6767 115.144C99.6767 114.76 99.554 114.467 99.3087 114.264C99.074 114.061 98.7327 113.96 98.2847 113.96H96.4927V116.312ZM98.5087 120.792C98.9674 120.792 99.3194 120.691 99.5647 120.488C99.8207 120.275 99.9487 119.971 99.9487 119.576C99.9487 119.181 99.8154 118.872 99.5487 118.648C99.2927 118.424 98.9354 118.312 98.4767 118.312H96.4927V120.792H98.5087ZM105.36 113.144C104.88 113.144 104.485 113.005 104.176 112.728C103.877 112.44 103.728 112.088 103.728 111.672C103.728 111.245 103.877 110.893 104.176 110.616C104.485 110.328 104.88 110.184 105.36 110.184C105.829 110.184 106.213 110.328 106.512 110.616C106.821 110.893 106.976 111.245 106.976 111.672C106.976 112.088 106.821 112.44 106.512 112.728C106.213 113.005 105.829 113.144 105.36 113.144ZM106.72 114.072V123H103.984V114.072H106.72ZM111.118 111.16V123H108.382V111.16H111.118ZM115.517 111.16V123H112.781V111.16H115.517ZM118.556 113.144C118.076 113.144 117.681 113.005 117.372 112.728C117.073 112.44 116.924 112.088 116.924 111.672C116.924 111.245 117.073 110.893 117.372 110.616C117.681 110.328 118.076 110.184 118.556 110.184C119.025 110.184 119.409 110.328 119.708 110.616C120.017 110.893 120.172 111.245 120.172 111.672C120.172 112.088 120.017 112.44 119.708 112.728C119.409 113.005 119.025 113.144 118.556 113.144ZM119.916 114.072V123H117.18V114.072H119.916ZM125.643 123.128C124.768 123.128 123.979 122.941 123.275 122.568C122.581 122.195 122.032 121.661 121.627 120.968C121.232 120.275 121.035 119.464 121.035 118.536C121.035 117.619 121.237 116.813 121.643 116.12C122.048 115.416 122.603 114.877 123.307 114.504C124.011 114.131 124.8 113.944 125.675 113.944C126.549 113.944 127.339 114.131 128.043 114.504C128.747 114.877 129.301 115.416 129.707 116.12C130.112 116.813 130.315 117.619 130.315 118.536C130.315 119.453 130.107 120.264 129.691 120.968C129.285 121.661 128.725 122.195 128.011 122.568C127.307 122.941 126.517 123.128 125.643 123.128ZM125.643 120.76C126.165 120.76 126.608 120.568 126.971 120.184C127.344 119.8 127.531 119.251 127.531 118.536C127.531 117.821 127.349 117.272 126.987 116.888C126.635 116.504 126.197 116.312 125.675 116.312C125.141 116.312 124.699 116.504 124.347 116.888C123.995 117.261 123.819 117.811 123.819 118.536C123.819 119.251 123.989 119.8 124.331 120.184C124.683 120.568 125.12 120.76 125.643 120.76ZM136.886 113.976C137.931 113.976 138.763 114.317 139.382 115C140.011 115.672 140.326 116.6 140.326 117.784V123H137.606V118.152C137.606 117.555 137.451 117.091 137.142 116.76C136.833 116.429 136.417 116.264 135.894 116.264C135.371 116.264 134.955 116.429 134.646 116.76C134.337 117.091 134.182 117.555 134.182 118.152V123H131.446V114.072H134.182V115.256C134.459 114.861 134.833 114.552 135.302 114.328C135.771 114.093 136.299 113.976 136.886 113.976ZM82.7914 138.736C82.7914 139.323 82.6368 139.867 82.3274 140.368C82.0288 140.859 81.5808 141.264 80.9834 141.584C80.3968 141.893 79.6981 142.064 78.8874 142.096V143.392H77.8634V142.08C76.7328 141.984 75.8208 141.648 75.1274 141.072C74.4341 140.485 74.0661 139.691 74.0234 138.688H76.9354C76.9994 139.328 77.3088 139.739 77.8634 139.92V137.392C77.0314 137.179 76.3648 136.971 75.8634 136.768C75.3728 136.565 74.9408 136.24 74.5674 135.792C74.1941 135.344 74.0074 134.731 74.0074 133.952C74.0074 132.981 74.3648 132.203 75.0794 131.616C75.8048 131.029 76.7328 130.699 77.8634 130.624V129.328H78.8874V130.624C80.0074 130.709 80.8928 131.035 81.5434 131.6C82.1941 132.165 82.5568 132.949 82.6314 133.952H79.7034C79.6394 133.376 79.3674 133.003 78.8874 132.832V135.312C79.7728 135.557 80.4554 135.776 80.9354 135.968C81.4154 136.16 81.8421 136.48 82.2154 136.928C82.5994 137.365 82.7914 137.968 82.7914 138.736ZM76.9034 133.824C76.9034 134.091 76.9834 134.315 77.1434 134.496C77.3141 134.677 77.5541 134.837 77.8634 134.976V132.752C77.5648 132.805 77.3301 132.923 77.1594 133.104C76.9888 133.275 76.9034 133.515 76.9034 133.824ZM78.8874 139.968C79.2074 139.915 79.4581 139.787 79.6394 139.584C79.8314 139.381 79.9274 139.131 79.9274 138.832C79.9274 138.555 79.8368 138.331 79.6554 138.16C79.4848 137.979 79.2288 137.824 78.8874 137.696V139.968ZM93.0667 134.384C93.0667 135.035 92.9174 135.632 92.6187 136.176C92.32 136.709 91.8614 137.141 91.2427 137.472C90.624 137.803 89.856 137.968 88.9387 137.968H87.2427V142H84.5067V130.768H88.9387C89.8347 130.768 90.592 130.923 91.2107 131.232C91.8294 131.541 92.2934 131.968 92.6027 132.512C92.912 133.056 93.0667 133.68 93.0667 134.384ZM88.7307 135.792C89.2534 135.792 89.6427 135.669 89.8987 135.424C90.1547 135.179 90.2827 134.832 90.2827 134.384C90.2827 133.936 90.1547 133.589 89.8987 133.344C89.6427 133.099 89.2534 132.976 88.7307 132.976H87.2427V135.792H88.7307ZM102.987 133.072V142H100.251V140.784C99.9737 141.179 99.5951 141.499 99.1151 141.744C98.6457 141.979 98.1231 142.096 97.5471 142.096C96.8644 142.096 96.2617 141.947 95.7391 141.648C95.2164 141.339 94.8111 140.896 94.5231 140.32C94.2351 139.744 94.0911 139.067 94.0911 138.288V133.072H96.8111V137.92C96.8111 138.517 96.9657 138.981 97.2751 139.312C97.5844 139.643 98.0004 139.808 98.5231 139.808C99.0564 139.808 99.4777 139.643 99.7871 139.312C100.096 138.981 100.251 138.517 100.251 137.92V133.072H102.987ZM107.368 134.336C107.635 133.92 108.003 133.584 108.472 133.328C108.942 133.072 109.491 132.944 110.12 132.944C110.856 132.944 111.523 133.131 112.12 133.504C112.718 133.877 113.187 134.411 113.528 135.104C113.88 135.797 114.056 136.603 114.056 137.52C114.056 138.437 113.88 139.248 113.528 139.952C113.187 140.645 112.718 141.184 112.12 141.568C111.523 141.941 110.856 142.128 110.12 142.128C109.502 142.128 108.952 142 108.472 141.744C108.003 141.488 107.635 141.157 107.368 140.752V146.256H104.632V133.072H107.368V134.336ZM111.272 137.52C111.272 136.837 111.08 136.304 110.696 135.92C110.323 135.525 109.859 135.328 109.304 135.328C108.76 135.328 108.296 135.525 107.912 135.92C107.539 136.315 107.352 136.853 107.352 137.536C107.352 138.219 107.539 138.757 107.912 139.152C108.296 139.547 108.76 139.744 109.304 139.744C109.848 139.744 110.312 139.547 110.696 139.152C111.08 138.747 111.272 138.203 111.272 137.52ZM124.292 133.072L118.692 146.24H115.748L117.796 141.696L114.164 133.072H117.22L119.284 138.656L121.332 133.072H124.292ZM127.697 139.888H131.281V142H124.961V130.768H127.697V139.888ZM136.33 142.128C135.455 142.128 134.666 141.941 133.962 141.568C133.269 141.195 132.719 140.661 132.314 139.968C131.919 139.275 131.722 138.464 131.722 137.536C131.722 136.619 131.925 135.813 132.33 135.12C132.735 134.416 133.29 133.877 133.994 133.504C134.698 133.131 135.487 132.944 136.362 132.944C137.237 132.944 138.026 133.131 138.73 133.504C139.434 133.877 139.989 134.416 140.394 135.12C140.799 135.813 141.002 136.619 141.002 137.536C141.002 138.453 140.794 139.264 140.378 139.968C139.973 140.661 139.413 141.195 138.698 141.568C137.994 141.941 137.205 142.128 136.33 142.128ZM136.33 139.76C136.853 139.76 137.295 139.568 137.658 139.184C138.031 138.8 138.218 138.251 138.218 137.536C138.218 136.821 138.037 136.272 137.674 135.888C137.322 135.504 136.885 135.312 136.362 135.312C135.829 135.312 135.386 135.504 135.034 135.888C134.682 136.261 134.506 136.811 134.506 137.536C134.506 138.251 134.677 138.8 135.018 139.184C135.37 139.568 135.807 139.76 136.33 139.76ZM146.15 139.44L148.086 133.072H150.998L147.83 142H144.454L141.286 133.072H144.214L146.15 139.44ZM160.245 137.392C160.245 137.648 160.229 137.915 160.197 138.192H154.005C154.048 138.747 154.224 139.173 154.533 139.472C154.853 139.76 155.243 139.904 155.701 139.904C156.384 139.904 156.859 139.616 157.125 139.04H160.037C159.888 139.627 159.616 140.155 159.221 140.624C158.837 141.093 158.352 141.461 157.765 141.728C157.179 141.995 156.523 142.128 155.797 142.128C154.923 142.128 154.144 141.941 153.461 141.568C152.779 141.195 152.245 140.661 151.861 139.968C151.477 139.275 151.285 138.464 151.285 137.536C151.285 136.608 151.472 135.797 151.845 135.104C152.229 134.411 152.763 133.877 153.445 133.504C154.128 133.131 154.912 132.944 155.797 132.944C156.661 132.944 157.429 133.125 158.101 133.488C158.773 133.851 159.296 134.368 159.669 135.04C160.053 135.712 160.245 136.496 160.245 137.392ZM157.445 136.672C157.445 136.203 157.285 135.829 156.965 135.552C156.645 135.275 156.245 135.136 155.765 135.136C155.307 135.136 154.917 135.269 154.597 135.536C154.288 135.803 154.096 136.181 154.021 136.672H157.445Z" fill="#E6E6E6"/>
</svg>
