<svg width="274" height="275" viewBox="0 0 274 275" fill="none" xmlns="http://www.w3.org/2000/svg">
<g filter="url(#filter0_d_2601_21579)">
<path d="M246.587 100.299C249.773 99.2904 253.188 101.052 254.036 104.284C258.325 120.625 259.15 137.706 256.431 154.425C253.387 173.137 245.989 190.873 234.833 206.201C223.677 221.53 209.076 234.023 192.206 242.672C175.335 251.322 156.669 255.887 137.711 255.998C118.753 256.109 100.034 251.764 83.0633 243.314C66.0926 234.863 51.3452 222.542 40.01 207.346C28.6748 192.15 21.069 174.502 17.8059 155.827C14.8903 139.141 15.5144 122.051 19.6107 105.661C20.4209 102.42 23.8156 100.618 27.0127 101.589C30.2097 102.56 31.9968 105.936 31.2046 109.182C27.6486 123.754 27.1361 138.926 29.7253 153.744C32.6621 170.552 39.5073 186.435 49.709 200.111C59.9107 213.788 73.1834 224.876 88.457 232.482C103.731 240.088 120.578 243.998 137.64 243.898C154.702 243.798 171.502 239.69 186.685 231.905C201.868 224.12 215.01 212.877 225.05 199.081C235.09 185.286 241.748 169.324 244.488 152.482C246.902 137.635 246.212 122.47 242.485 107.941C241.654 104.705 243.402 101.308 246.587 100.299Z" fill="#F59332"/>
</g>
<g filter="url(#filter1_d_2601_21579)">
<path d="M29.1538 95.2169C26.0189 94.0605 24.401 90.5744 25.7126 87.5012C34.6125 66.6487 49.2121 48.675 67.8889 35.679C88.2242 21.529 112.413 13.9619 137.187 14.0001C161.961 14.0384 186.126 21.6801 206.417 35.8929C225.054 48.9465 239.598 66.9652 248.434 87.8451C249.736 90.9223 248.107 94.4034 244.969 95.5502C241.83 96.6969 238.372 95.0742 237.053 92.0043C229.079 73.4486 216.083 57.4358 199.476 45.8036C181.213 33.0121 159.465 26.1346 137.168 26.1001C114.872 26.0657 93.1018 32.8761 74.8 45.6111C58.157 57.1919 45.1113 73.1646 37.0803 91.6955C35.7517 94.7613 32.2886 96.3733 29.1538 95.2169Z" fill="#D00C1A"/>
</g>
<circle cx="80.9268" cy="180.744" r="3.68902" fill="#F59332"/>
<circle cx="103.799" cy="67.8609" r="3.68902" fill="#D50101"/>
<path d="M92.818 180.032C92.818 179.23 93.003 178.51 93.3728 177.872C93.7506 177.235 94.2582 176.739 94.8957 176.385C95.541 176.023 96.2454 175.842 97.0087 175.842C97.8823 175.842 98.6575 176.058 99.3343 176.491C100.019 176.916 100.515 177.522 100.822 178.309H99.2045C98.992 177.876 98.6968 177.553 98.3191 177.341C97.9413 177.128 97.5046 177.022 97.0087 177.022C96.4657 177.022 95.9817 177.144 95.5567 177.388C95.1318 177.632 94.7973 177.982 94.5533 178.439C94.3172 178.895 94.1992 179.426 94.1992 180.032C94.1992 180.638 94.3172 181.17 94.5533 181.626C94.7973 182.083 95.1318 182.437 95.5567 182.689C95.9817 182.933 96.4657 183.054 97.0087 183.054C97.5046 183.054 97.9413 182.948 98.3191 182.736C98.6968 182.523 98.992 182.201 99.2045 181.768H100.822C100.515 182.555 100.019 183.161 99.3343 183.586C98.6575 184.011 97.8823 184.223 97.0087 184.223C96.2375 184.223 95.5331 184.046 94.8957 183.692C94.2582 183.33 93.7506 182.83 93.3728 182.193C93.003 181.555 92.818 180.835 92.818 180.032ZM108.288 177.648V184.152H106.942V183.385C106.729 183.653 106.45 183.865 106.104 184.022C105.765 184.172 105.403 184.247 105.018 184.247C104.506 184.247 104.046 184.141 103.636 183.928C103.235 183.716 102.916 183.401 102.68 182.984C102.452 182.567 102.338 182.063 102.338 181.473V177.648H103.672V181.272C103.672 181.854 103.817 182.303 104.109 182.618C104.4 182.925 104.797 183.078 105.301 183.078C105.805 183.078 106.202 182.925 106.493 182.618C106.792 182.303 106.942 181.854 106.942 181.272V177.648H108.288ZM111.409 178.592C111.606 178.262 111.865 178.006 112.188 177.825C112.519 177.636 112.908 177.542 113.357 177.542V178.935H113.014C112.487 178.935 112.086 179.068 111.81 179.336C111.543 179.604 111.409 180.068 111.409 180.729V184.152H110.063V177.648H111.409V178.592ZM115.94 178.592C116.136 178.262 116.396 178.006 116.719 177.825C117.049 177.636 117.439 177.542 117.887 177.542V178.935H117.545C117.018 178.935 116.616 179.068 116.341 179.336C116.073 179.604 115.94 180.068 115.94 180.729V184.152H114.594V177.648H115.94V178.592ZM125.086 180.741C125.086 180.985 125.07 181.205 125.039 181.402H120.069C120.108 181.921 120.301 182.338 120.647 182.653C120.993 182.968 121.418 183.125 121.922 183.125C122.646 183.125 123.158 182.822 123.457 182.216H124.909C124.712 182.814 124.354 183.306 123.835 183.692C123.323 184.07 122.685 184.259 121.922 184.259C121.3 184.259 120.742 184.121 120.246 183.845C119.758 183.562 119.372 183.169 119.089 182.665C118.813 182.153 118.676 181.563 118.676 180.894C118.676 180.225 118.81 179.639 119.077 179.135C119.353 178.624 119.734 178.23 120.222 177.955C120.718 177.679 121.285 177.542 121.922 177.542C122.536 177.542 123.083 177.675 123.563 177.943C124.043 178.211 124.417 178.588 124.684 179.076C124.952 179.556 125.086 180.111 125.086 180.741ZM123.681 180.316C123.673 179.82 123.496 179.423 123.15 179.123C122.804 178.824 122.375 178.675 121.863 178.675C121.399 178.675 121.001 178.824 120.671 179.123C120.34 179.415 120.144 179.812 120.081 180.316H123.681ZM129.692 177.542C130.203 177.542 130.66 177.648 131.061 177.86C131.471 178.073 131.789 178.388 132.017 178.805C132.246 179.222 132.36 179.726 132.36 180.316V184.152H131.026V180.516C131.026 179.934 130.88 179.489 130.589 179.182C130.298 178.868 129.9 178.71 129.397 178.71C128.893 178.71 128.492 178.868 128.193 179.182C127.902 179.489 127.756 179.934 127.756 180.516V184.152H126.41V177.648H127.756V178.392C127.976 178.124 128.256 177.915 128.594 177.766C128.94 177.616 129.306 177.542 129.692 177.542ZM135.646 178.746V182.346C135.646 182.59 135.702 182.767 135.812 182.877C135.93 182.98 136.127 183.031 136.402 183.031H137.228V184.152H136.166C135.56 184.152 135.096 184.011 134.773 183.727C134.45 183.444 134.289 182.984 134.289 182.346V178.746H133.522V177.648H134.289V176.031H135.646V177.648H137.228V178.746H135.646ZM143.896 184.259C143.385 184.259 142.924 184.168 142.515 183.987C142.114 183.798 141.795 183.546 141.559 183.232C141.323 182.909 141.197 182.551 141.181 182.157H142.574C142.598 182.433 142.727 182.665 142.964 182.854C143.208 183.035 143.511 183.125 143.873 183.125C144.25 183.125 144.541 183.054 144.746 182.913C144.959 182.763 145.065 182.574 145.065 182.346C145.065 182.102 144.947 181.921 144.711 181.803C144.482 181.685 144.117 181.555 143.613 181.414C143.125 181.28 142.727 181.15 142.421 181.024C142.114 180.898 141.846 180.705 141.618 180.446C141.397 180.186 141.287 179.844 141.287 179.419C141.287 179.072 141.39 178.758 141.594 178.474C141.799 178.183 142.09 177.955 142.468 177.79C142.853 177.624 143.294 177.542 143.79 177.542C144.53 177.542 145.124 177.73 145.572 178.108C146.029 178.478 146.273 178.986 146.304 179.631H144.959C144.935 179.34 144.817 179.108 144.604 178.935C144.392 178.761 144.105 178.675 143.743 178.675C143.389 178.675 143.117 178.742 142.928 178.876C142.739 179.009 142.645 179.186 142.645 179.407C142.645 179.58 142.708 179.726 142.834 179.844C142.96 179.962 143.113 180.056 143.294 180.127C143.475 180.19 143.743 180.272 144.097 180.375C144.569 180.501 144.955 180.631 145.254 180.764C145.561 180.89 145.824 181.079 146.045 181.331C146.265 181.583 146.379 181.917 146.387 182.334C146.387 182.704 146.285 183.035 146.08 183.326C145.875 183.617 145.584 183.845 145.206 184.011C144.837 184.176 144.4 184.259 143.896 184.259ZM153.732 177.648V184.152H152.386V183.385C152.173 183.653 151.894 183.865 151.548 184.022C151.209 184.172 150.847 184.247 150.462 184.247C149.95 184.247 149.49 184.141 149.081 183.928C148.679 183.716 148.361 183.401 148.124 182.984C147.896 182.567 147.782 182.063 147.782 181.473V177.648H149.116V181.272C149.116 181.854 149.262 182.303 149.553 182.618C149.844 182.925 150.241 183.078 150.745 183.078C151.249 183.078 151.646 182.925 151.937 182.618C152.236 182.303 152.386 181.854 152.386 181.272V177.648H153.732ZM156.853 178.604C157.081 178.305 157.392 178.053 157.786 177.849C158.179 177.644 158.624 177.542 159.12 177.542C159.686 177.542 160.202 177.683 160.666 177.967C161.138 178.242 161.508 178.632 161.776 179.135C162.043 179.639 162.177 180.217 162.177 180.871C162.177 181.524 162.043 182.11 161.776 182.63C161.508 183.141 161.138 183.542 160.666 183.834C160.202 184.117 159.686 184.259 159.12 184.259C158.624 184.259 158.183 184.16 157.798 183.963C157.412 183.759 157.097 183.507 156.853 183.208V187.245H155.507V177.648H156.853V178.604ZM160.808 180.871C160.808 180.422 160.713 180.036 160.524 179.714C160.343 179.383 160.099 179.135 159.793 178.97C159.493 178.797 159.171 178.71 158.825 178.71C158.486 178.71 158.163 178.797 157.857 178.97C157.557 179.143 157.314 179.395 157.125 179.726C156.944 180.056 156.853 180.446 156.853 180.894C156.853 181.343 156.944 181.736 157.125 182.075C157.314 182.405 157.557 182.657 157.857 182.83C158.163 183.003 158.486 183.09 158.825 183.09C159.171 183.09 159.493 183.003 159.793 182.83C160.099 182.649 160.343 182.389 160.524 182.051C160.713 181.713 160.808 181.319 160.808 180.871ZM164.854 178.604C165.082 178.305 165.393 178.053 165.786 177.849C166.18 177.644 166.624 177.542 167.12 177.542C167.687 177.542 168.202 177.683 168.667 177.967C169.139 178.242 169.509 178.632 169.776 179.135C170.044 179.639 170.178 180.217 170.178 180.871C170.178 181.524 170.044 182.11 169.776 182.63C169.509 183.141 169.139 183.542 168.667 183.834C168.202 184.117 167.687 184.259 167.12 184.259C166.624 184.259 166.184 184.16 165.798 183.963C165.412 183.759 165.098 183.507 164.854 183.208V187.245H163.508V177.648H164.854V178.604ZM168.808 180.871C168.808 180.422 168.714 180.036 168.525 179.714C168.344 179.383 168.1 179.135 167.793 178.97C167.494 178.797 167.171 178.71 166.825 178.71C166.487 178.71 166.164 178.797 165.857 178.97C165.558 179.143 165.314 179.395 165.125 179.726C164.944 180.056 164.854 180.446 164.854 180.894C164.854 181.343 164.944 181.736 165.125 182.075C165.314 182.405 165.558 182.657 165.857 182.83C166.164 183.003 166.487 183.09 166.825 183.09C167.171 183.09 167.494 183.003 167.793 182.83C168.1 182.649 168.344 182.389 168.525 182.051C168.714 181.713 168.808 181.319 168.808 180.871ZM172.854 175.417V184.152H171.509V175.417H172.854ZM180.476 177.648L176.486 187.21H175.093L176.415 184.046L173.854 177.648H175.353L177.183 182.606L179.083 177.648H180.476Z" fill="#959595"/>
<path d="M118.901 67.0532C119.341 67.1319 119.715 67.3641 120.022 67.7497C120.329 68.1354 120.482 68.5721 120.482 69.0601C120.482 69.4772 120.372 69.8549 120.152 70.1933C119.939 70.5239 119.628 70.7875 119.219 70.9843C118.81 71.1731 118.334 71.2676 117.791 71.2676H114.509V63.0632H117.637C118.196 63.0632 118.676 63.1576 119.078 63.3465C119.479 63.5354 119.782 63.7912 119.987 64.1138C120.191 64.4286 120.294 64.7828 120.294 65.1763C120.294 65.6485 120.168 66.042 119.916 66.3567C119.664 66.6715 119.326 66.9037 118.901 67.0532ZM115.855 66.5102H117.519C117.96 66.5102 118.302 66.4118 118.546 66.2151C118.798 66.0105 118.924 65.7193 118.924 65.3415C118.924 64.9716 118.798 64.6844 118.546 64.4798C118.302 64.2673 117.96 64.161 117.519 64.161H115.855V66.5102ZM117.673 70.1697C118.129 70.1697 118.487 70.0595 118.747 69.8392C119.007 69.6188 119.137 69.3119 119.137 68.9184C119.137 68.517 118.999 68.1983 118.723 67.9622C118.448 67.7261 118.082 67.6081 117.626 67.6081H115.855V70.1697H117.673ZM127.835 64.7631V71.2676H126.49V70.5003C126.277 70.7678 125.998 70.9803 125.652 71.1377C125.313 71.2873 124.951 71.362 124.565 71.362C124.054 71.362 123.594 71.2558 123.184 71.0433C122.783 70.8308 122.464 70.516 122.228 70.0989C122 69.6818 121.886 69.1781 121.886 68.5879V64.7631H123.22V68.3872C123.22 68.9696 123.365 69.4181 123.657 69.7329C123.948 70.0399 124.345 70.1933 124.849 70.1933C125.352 70.1933 125.75 70.0399 126.041 69.7329C126.34 69.4181 126.49 68.9696 126.49 68.3872V64.7631H127.835ZM130.957 65.7075C131.154 65.3769 131.413 65.1212 131.736 64.9402C132.066 64.7513 132.456 64.6568 132.905 64.6568V66.0498H132.562C132.035 66.0498 131.634 66.1836 131.358 66.4512C131.091 66.7188 130.957 67.1831 130.957 67.8442V71.2676H129.611V64.7631H130.957V65.7075ZM137.423 64.6568C137.935 64.6568 138.391 64.7631 138.793 64.9756C139.202 65.1881 139.521 65.5029 139.749 65.92C139.977 66.3371 140.091 66.8407 140.091 67.431V71.2676H138.757V67.6317C138.757 67.0493 138.612 66.6047 138.321 66.2977C138.029 65.9829 137.632 65.8255 137.128 65.8255C136.625 65.8255 136.223 65.9829 135.924 66.2977C135.633 66.6047 135.487 67.0493 135.487 67.6317V71.2676H134.142V64.7631H135.487V65.5068C135.708 65.2392 135.987 65.0307 136.326 64.8811C136.672 64.7316 137.038 64.6568 137.423 64.6568ZM143.378 65.8609V69.4614C143.378 69.7054 143.433 69.8825 143.543 69.9927C143.661 70.095 143.858 70.1461 144.133 70.1461H144.96V71.2676H143.897C143.291 71.2676 142.827 71.1259 142.504 70.8426C142.182 70.5593 142.02 70.0989 142.02 69.4614V65.8609H141.253V64.7631H142.02V63.1458H143.378V64.7631H144.96V65.8609H143.378ZM151.97 71.3502C151.419 71.3502 150.923 71.2558 150.483 71.0669C150.042 70.8701 149.696 70.5947 149.444 70.2406C149.192 69.8864 149.066 69.4732 149.066 69.001H150.506C150.538 69.3552 150.675 69.6464 150.919 69.8746C151.171 70.1028 151.521 70.2169 151.97 70.2169C152.434 70.2169 152.796 70.1068 153.056 69.8864C153.316 69.6582 153.446 69.367 153.446 69.0128C153.446 68.7374 153.363 68.5131 153.198 68.34C153.04 68.1668 152.84 68.033 152.596 67.9386C152.36 67.8442 152.029 67.7419 151.604 67.6317C151.069 67.49 150.632 67.3484 150.294 67.2067C149.963 67.0572 149.68 66.8289 149.444 66.522C149.208 66.2151 149.09 65.8059 149.09 65.2943C149.09 64.8221 149.208 64.4089 149.444 64.0548C149.68 63.7007 150.01 63.4291 150.435 63.2403C150.86 63.0514 151.352 62.9569 151.911 62.9569C152.706 62.9569 153.355 63.1576 153.859 63.559C154.37 63.9525 154.654 64.4955 154.709 65.1881H153.221C153.198 64.889 153.056 64.6332 152.796 64.4207C152.537 64.2083 152.194 64.102 151.769 64.102C151.384 64.102 151.069 64.2004 150.825 64.3971C150.581 64.5939 150.459 64.8772 150.459 65.2471C150.459 65.4989 150.534 65.7075 150.683 65.8727C150.841 66.0301 151.037 66.1561 151.273 66.2505C151.51 66.3449 151.832 66.4473 152.241 66.5574C152.784 66.707 153.225 66.8565 153.564 67.006C153.91 67.1555 154.201 67.3877 154.437 67.7025C154.681 68.0094 154.803 68.4226 154.803 68.942C154.803 69.3591 154.689 69.7526 154.461 70.1225C154.24 70.4924 153.914 70.7914 153.481 71.0197C153.056 71.24 152.552 71.3502 151.97 71.3502ZM162.282 64.7631V71.2676H160.936V70.5003C160.723 70.7678 160.444 70.9803 160.098 71.1377C159.759 71.2873 159.397 71.362 159.012 71.362C158.5 71.362 158.04 71.2558 157.631 71.0433C157.229 70.8308 156.91 70.516 156.674 70.0989C156.446 69.6818 156.332 69.1781 156.332 68.5879V64.7631H157.666V68.3872C157.666 68.9696 157.812 69.4181 158.103 69.7329C158.394 70.0399 158.791 70.1933 159.295 70.1933C159.799 70.1933 160.196 70.0399 160.487 69.7329C160.786 69.4181 160.936 68.9696 160.936 68.3872V64.7631H162.282ZM165.403 65.7193C165.631 65.4202 165.942 65.1684 166.336 64.9638C166.729 64.7592 167.174 64.6568 167.67 64.6568C168.236 64.6568 168.752 64.7985 169.216 65.0818C169.688 65.3573 170.058 65.7468 170.326 66.2505C170.593 66.7542 170.727 67.3326 170.727 67.9858C170.727 68.639 170.593 69.2253 170.326 69.7447C170.058 70.2563 169.688 70.6577 169.216 70.9488C168.752 71.2322 168.236 71.3738 167.67 71.3738C167.174 71.3738 166.733 71.2754 166.347 71.0787C165.962 70.8741 165.647 70.6222 165.403 70.3232V74.3605H164.057V64.7631H165.403V65.7193ZM169.358 67.9858C169.358 67.5372 169.263 67.1516 169.074 66.8289C168.893 66.4984 168.649 66.2505 168.342 66.0852C168.043 65.9121 167.721 65.8255 167.374 65.8255C167.036 65.8255 166.713 65.9121 166.406 66.0852C166.107 66.2584 165.863 66.5102 165.675 66.8407C165.494 67.1713 165.403 67.5608 165.403 68.0094C165.403 68.458 165.494 68.8515 165.675 69.1899C165.863 69.5205 166.107 69.7723 166.406 69.9454C166.713 70.1186 167.036 70.2051 167.374 70.2051C167.721 70.2051 168.043 70.1186 168.342 69.9454C168.649 69.7644 168.893 69.5047 169.074 69.1663C169.263 68.8279 169.358 68.4344 169.358 67.9858ZM173.404 65.7193C173.632 65.4202 173.943 65.1684 174.336 64.9638C174.73 64.7592 175.174 64.6568 175.67 64.6568C176.237 64.6568 176.752 64.7985 177.217 65.0818C177.689 65.3573 178.059 65.7468 178.326 66.2505C178.594 66.7542 178.728 67.3326 178.728 67.9858C178.728 68.639 178.594 69.2253 178.326 69.7447C178.059 70.2563 177.689 70.6577 177.217 70.9488C176.752 71.2322 176.237 71.3738 175.67 71.3738C175.174 71.3738 174.734 71.2754 174.348 71.0787C173.962 70.8741 173.648 70.6222 173.404 70.3232V74.3605H172.058V64.7631H173.404V65.7193ZM177.358 67.9858C177.358 67.5372 177.264 67.1516 177.075 66.8289C176.894 66.4984 176.65 66.2505 176.343 66.0852C176.044 65.9121 175.721 65.8255 175.375 65.8255C175.037 65.8255 174.714 65.9121 174.407 66.0852C174.108 66.2584 173.864 66.5102 173.675 66.8407C173.494 67.1713 173.404 67.5608 173.404 68.0094C173.404 68.458 173.494 68.8515 173.675 69.1899C173.864 69.5205 174.108 69.7723 174.407 69.9454C174.714 70.1186 175.037 70.2051 175.375 70.2051C175.721 70.2051 176.044 70.1186 176.343 69.9454C176.65 69.7644 176.894 69.5047 177.075 69.1663C177.264 68.8279 177.358 68.4344 177.358 67.9858ZM181.404 62.532V71.2676H180.058V62.532H181.404ZM189.026 64.7631L185.036 74.325H183.643L184.965 71.1613L182.404 64.7631H183.903L185.733 69.7211L187.633 64.7631H189.026Z" fill="#959595"/>
<path d="M120.306 199.546C120.218 199.174 120.063 198.895 119.841 198.709C119.629 198.524 119.319 198.431 118.912 198.431C118.301 198.431 117.849 198.678 117.557 199.174C117.274 199.661 117.128 200.458 117.119 201.565C117.331 201.211 117.641 200.936 118.048 200.741C118.456 200.538 118.898 200.436 119.377 200.436C119.952 200.436 120.461 200.56 120.904 200.808C121.346 201.056 121.692 201.419 121.94 201.897C122.188 202.366 122.312 202.933 122.312 203.597C122.312 204.225 122.183 204.787 121.926 205.283C121.678 205.77 121.311 206.151 120.824 206.425C120.337 206.7 119.757 206.837 119.084 206.837C118.164 206.837 117.438 206.633 116.906 206.226C116.384 205.819 116.017 205.252 115.804 204.526C115.6 203.791 115.499 202.888 115.499 201.817C115.499 200.197 115.778 198.975 116.335 198.152C116.893 197.319 117.774 196.903 118.978 196.903C119.908 196.903 120.629 197.156 121.143 197.66C121.656 198.165 121.953 198.794 122.033 199.546H120.306ZM118.952 201.963C118.482 201.963 118.088 202.1 117.77 202.375C117.451 202.649 117.291 203.048 117.291 203.57C117.291 204.092 117.438 204.504 117.73 204.805C118.031 205.106 118.451 205.257 118.991 205.257C119.469 205.257 119.846 205.111 120.12 204.818C120.404 204.526 120.545 204.132 120.545 203.637C120.545 203.123 120.408 202.716 120.134 202.415C119.868 202.114 119.474 201.963 118.952 201.963ZM123.781 201.844C123.781 200.312 124.055 199.112 124.604 198.245C125.162 197.377 126.083 196.943 127.367 196.943C128.65 196.943 129.567 197.377 130.116 198.245C130.674 199.112 130.952 200.312 130.952 201.844C130.952 203.384 130.674 204.593 130.116 205.469C129.567 206.346 128.65 206.784 127.367 206.784C126.083 206.784 125.162 206.346 124.604 205.469C124.055 204.593 123.781 203.384 123.781 201.844ZM129.12 201.844C129.12 201.188 129.075 200.64 128.987 200.197C128.907 199.745 128.739 199.378 128.482 199.095C128.234 198.811 127.863 198.67 127.367 198.67C126.871 198.67 126.495 198.811 126.238 199.095C125.99 199.378 125.822 199.745 125.733 200.197C125.654 200.64 125.614 201.188 125.614 201.844C125.614 202.517 125.654 203.083 125.733 203.544C125.813 203.995 125.981 204.363 126.238 204.646C126.495 204.92 126.871 205.058 127.367 205.058C127.863 205.058 128.239 204.92 128.496 204.646C128.752 204.363 128.921 203.995 129 203.544C129.08 203.083 129.12 202.517 129.12 201.844ZM132.154 199.506C132.154 198.833 132.349 198.307 132.738 197.926C133.137 197.545 133.646 197.355 134.266 197.355C134.885 197.355 135.39 197.545 135.78 197.926C136.178 198.307 136.377 198.833 136.377 199.506C136.377 200.188 136.178 200.719 135.78 201.1C135.39 201.481 134.885 201.671 134.266 201.671C133.646 201.671 133.137 201.481 132.738 201.1C132.349 200.719 132.154 200.188 132.154 199.506ZM140.68 197.514L135.461 206.811H133.655L138.861 197.514H140.68ZM134.252 198.47C133.765 198.47 133.522 198.816 133.522 199.506C133.522 200.206 133.765 200.555 134.252 200.555C134.491 200.555 134.677 200.471 134.81 200.303C134.943 200.126 135.009 199.86 135.009 199.506C135.009 198.816 134.757 198.47 134.252 198.47ZM137.984 204.805C137.984 204.123 138.179 203.597 138.569 203.225C138.967 202.844 139.476 202.654 140.096 202.654C140.716 202.654 141.216 202.844 141.597 203.225C141.986 203.597 142.181 204.123 142.181 204.805C142.181 205.487 141.986 206.018 141.597 206.399C141.216 206.78 140.716 206.97 140.096 206.97C139.467 206.97 138.958 206.78 138.569 206.399C138.179 206.018 137.984 205.487 137.984 204.805ZM140.083 203.769C139.578 203.769 139.326 204.115 139.326 204.805C139.326 205.505 139.578 205.854 140.083 205.854C140.578 205.854 140.826 205.505 140.826 204.805C140.826 204.115 140.578 203.769 140.083 203.769Z" fill="#DDDDDD"/>
<path d="M129.082 92.04V90.5791L133.425 84.3638H135.59V90.4197H136.758V92.04H135.59V93.9258H133.731V92.04H129.082ZM133.85 86.3559L131.128 90.4197H133.85V86.3559ZM137.942 88.9589C137.942 87.4272 138.217 86.2275 138.766 85.3599C139.323 84.4922 140.244 84.0584 141.528 84.0584C142.812 84.0584 143.728 84.4922 144.277 85.3599C144.835 86.2275 145.114 87.4272 145.114 88.9589C145.114 90.4994 144.835 91.7079 144.277 92.5845C143.728 93.461 142.812 93.8992 141.528 93.8992C140.244 93.8992 139.323 93.461 138.766 92.5845C138.217 91.7079 137.942 90.4994 137.942 88.9589ZM143.281 88.9589C143.281 88.3037 143.237 87.7548 143.148 87.3121C143.068 86.8606 142.9 86.4931 142.643 86.2098C142.396 85.9265 142.024 85.7848 141.528 85.7848C141.032 85.7848 140.656 85.9265 140.399 86.2098C140.151 86.4931 139.983 86.8606 139.894 87.3121C139.815 87.7548 139.775 88.3037 139.775 88.9589C139.775 89.6318 139.815 90.1984 139.894 90.6588C139.974 91.1103 140.142 91.4777 140.399 91.7611C140.656 92.0355 141.032 92.1728 141.528 92.1728C142.024 92.1728 142.4 92.0355 142.657 91.7611C142.914 91.4777 143.082 91.1103 143.161 90.6588C143.241 90.1984 143.281 89.6318 143.281 88.9589ZM146.315 86.6215C146.315 85.9486 146.51 85.4218 146.9 85.0411C147.298 84.6604 147.807 84.4701 148.427 84.4701C149.047 84.4701 149.551 84.6604 149.941 85.0411C150.339 85.4218 150.539 85.9486 150.539 86.6215C150.539 87.3032 150.339 87.8345 149.941 88.2152C149.551 88.5959 149.047 88.7862 148.427 88.7862C147.807 88.7862 147.298 88.5959 146.9 88.2152C146.51 87.8345 146.315 87.3032 146.315 86.6215ZM154.841 84.6294L149.622 93.9258H147.816L153.022 84.6294H154.841ZM148.414 85.5856C147.927 85.5856 147.683 85.9309 147.683 86.6215C147.683 87.321 147.927 87.6707 148.414 87.6707C148.653 87.6707 148.839 87.5866 148.971 87.4183C149.104 87.2413 149.171 86.9757 149.171 86.6215C149.171 85.9309 148.918 85.5856 148.414 85.5856ZM152.145 91.9204C152.145 91.2387 152.34 90.7119 152.73 90.34C153.128 89.9593 153.637 89.769 154.257 89.769C154.877 89.769 155.377 89.9593 155.758 90.34C156.147 90.7119 156.342 91.2387 156.342 91.9204C156.342 92.6022 156.147 93.1334 155.758 93.5141C155.377 93.8948 154.877 94.0851 154.257 94.0851C153.628 94.0851 153.119 93.8948 152.73 93.5141C152.34 93.1334 152.145 92.6022 152.145 91.9204ZM154.244 90.8845C153.739 90.8845 153.487 91.2298 153.487 91.9204C153.487 92.6199 153.739 92.9696 154.244 92.9696C154.74 92.9696 154.987 92.6199 154.987 91.9204C154.987 91.2298 154.74 90.8845 154.244 90.8845Z" fill="#DDDDDD"/>
<path d="M78.3087 120.006V117.78H82.1867V128H79.6947V120.006H78.3087ZM94.0991 118.172V120.09H91.4951V128H89.1011V120.09H86.4971V118.172H94.0991ZM97.6946 121.49C97.9746 121.061 98.3246 120.725 98.7446 120.482C99.1646 120.23 99.6313 120.104 100.145 120.104V122.638H99.4866C98.8893 122.638 98.4413 122.769 98.1426 123.03C97.844 123.282 97.6946 123.73 97.6946 124.374V128H95.3006V120.188H97.6946V121.49ZM102.493 119.376C102.073 119.376 101.728 119.255 101.457 119.012C101.196 118.76 101.065 118.452 101.065 118.088C101.065 117.715 101.196 117.407 101.457 117.164C101.728 116.912 102.073 116.786 102.493 116.786C102.904 116.786 103.24 116.912 103.501 117.164C103.772 117.407 103.907 117.715 103.907 118.088C103.907 118.452 103.772 118.76 103.501 119.012C103.24 119.255 102.904 119.376 102.493 119.376ZM103.683 120.188V128H101.289V120.188H103.683ZM107.812 117.64V128H105.418V117.64H107.812ZM111.941 117.64V128H109.547V117.64H111.941ZM114.88 119.376C114.46 119.376 114.114 119.255 113.844 119.012C113.582 118.76 113.452 118.452 113.452 118.088C113.452 117.715 113.582 117.407 113.844 117.164C114.114 116.912 114.46 116.786 114.88 116.786C115.29 116.786 115.626 116.912 115.888 117.164C116.158 117.407 116.294 117.715 116.294 118.088C116.294 118.452 116.158 118.76 115.888 119.012C115.626 119.255 115.29 119.376 114.88 119.376ZM116.07 120.188V128H113.676V120.188H116.07ZM121.361 128.112C120.595 128.112 119.905 127.949 119.289 127.622C118.682 127.295 118.201 126.829 117.847 126.222C117.501 125.615 117.329 124.906 117.329 124.094C117.329 123.291 117.506 122.587 117.861 121.98C118.215 121.364 118.701 120.893 119.317 120.566C119.933 120.239 120.623 120.076 121.389 120.076C122.154 120.076 122.845 120.239 123.461 120.566C124.077 120.893 124.562 121.364 124.917 121.98C125.271 122.587 125.449 123.291 125.449 124.094C125.449 124.897 125.267 125.606 124.903 126.222C124.548 126.829 124.058 127.295 123.433 127.622C122.817 127.949 122.126 128.112 121.361 128.112ZM121.361 126.04C121.818 126.04 122.205 125.872 122.523 125.536C122.849 125.2 123.013 124.719 123.013 124.094C123.013 123.469 122.854 122.988 122.537 122.652C122.229 122.316 121.846 122.148 121.389 122.148C120.922 122.148 120.535 122.316 120.227 122.652C119.919 122.979 119.765 123.459 119.765 124.094C119.765 124.719 119.914 125.2 120.213 125.536C120.521 125.872 120.903 126.04 121.361 126.04ZM131.479 120.104C132.393 120.104 133.121 120.403 133.663 121C134.213 121.588 134.489 122.4 134.489 123.436V128H132.109V123.758C132.109 123.235 131.973 122.829 131.703 122.54C131.432 122.251 131.068 122.106 130.611 122.106C130.153 122.106 129.789 122.251 129.519 122.54C129.248 122.829 129.113 123.235 129.113 123.758V128H126.719V120.188H129.113V121.224C129.355 120.879 129.682 120.608 130.093 120.412C130.503 120.207 130.965 120.104 131.479 120.104ZM143.767 128.098C142.843 128.098 141.994 127.883 141.219 127.454C140.454 127.025 139.842 126.427 139.385 125.662C138.937 124.887 138.713 124.019 138.713 123.058C138.713 122.097 138.937 121.233 139.385 120.468C139.842 119.703 140.454 119.105 141.219 118.676C141.994 118.247 142.843 118.032 143.767 118.032C144.691 118.032 145.536 118.247 146.301 118.676C147.076 119.105 147.682 119.703 148.121 120.468C148.569 121.233 148.793 122.097 148.793 123.058C148.793 124.019 148.569 124.887 148.121 125.662C147.673 126.427 147.066 127.025 146.301 127.454C145.536 127.883 144.691 128.098 143.767 128.098ZM143.767 125.914C144.551 125.914 145.176 125.653 145.643 125.13C146.119 124.607 146.357 123.917 146.357 123.058C146.357 122.19 146.119 121.499 145.643 120.986C145.176 120.463 144.551 120.202 143.767 120.202C142.974 120.202 142.339 120.459 141.863 120.972C141.396 121.485 141.163 122.181 141.163 123.058C141.163 123.926 141.396 124.621 141.863 125.144C142.339 125.657 142.974 125.914 143.767 125.914ZM152.519 121.49C152.799 121.061 153.149 120.725 153.569 120.482C153.989 120.23 154.456 120.104 154.969 120.104V122.638H154.311C153.714 122.638 153.266 122.769 152.967 123.03C152.668 123.282 152.519 123.73 152.519 124.374V128H150.125V120.188H152.519V121.49ZM157.317 119.376C156.897 119.376 156.552 119.255 156.281 119.012C156.02 118.76 155.889 118.452 155.889 118.088C155.889 117.715 156.02 117.407 156.281 117.164C156.552 116.912 156.897 116.786 157.317 116.786C157.728 116.786 158.064 116.912 158.325 117.164C158.596 117.407 158.731 117.715 158.731 118.088C158.731 118.452 158.596 118.76 158.325 119.012C158.064 119.255 157.728 119.376 157.317 119.376ZM158.507 120.188V128H156.113V120.188H158.507ZM163.21 120.076C163.761 120.076 164.241 120.188 164.652 120.412C165.072 120.636 165.394 120.93 165.618 121.294V120.188H168.012V127.986C168.012 128.705 167.867 129.353 167.578 129.932C167.298 130.52 166.864 130.987 166.276 131.332C165.697 131.677 164.974 131.85 164.106 131.85C162.949 131.85 162.011 131.575 161.292 131.024C160.573 130.483 160.163 129.745 160.06 128.812H162.426C162.501 129.111 162.678 129.344 162.958 129.512C163.238 129.689 163.583 129.778 163.994 129.778C164.489 129.778 164.881 129.633 165.17 129.344C165.469 129.064 165.618 128.611 165.618 127.986V126.88C165.385 127.244 165.063 127.543 164.652 127.776C164.241 128 163.761 128.112 163.21 128.112C162.566 128.112 161.983 127.949 161.46 127.622C160.937 127.286 160.522 126.815 160.214 126.208C159.915 125.592 159.766 124.883 159.766 124.08C159.766 123.277 159.915 122.573 160.214 121.966C160.522 121.359 160.937 120.893 161.46 120.566C161.983 120.239 162.566 120.076 163.21 120.076ZM165.618 124.094C165.618 123.497 165.45 123.025 165.114 122.68C164.787 122.335 164.386 122.162 163.91 122.162C163.434 122.162 163.028 122.335 162.692 122.68C162.365 123.016 162.202 123.483 162.202 124.08C162.202 124.677 162.365 125.153 162.692 125.508C163.028 125.853 163.434 126.026 163.91 126.026C164.386 126.026 164.787 125.853 165.114 125.508C165.45 125.163 165.618 124.691 165.618 124.094ZM170.948 119.376C170.528 119.376 170.183 119.255 169.912 119.012C169.651 118.76 169.52 118.452 169.52 118.088C169.52 117.715 169.651 117.407 169.912 117.164C170.183 116.912 170.528 116.786 170.948 116.786C171.359 116.786 171.695 116.912 171.956 117.164C172.227 117.407 172.362 117.715 172.362 118.088C172.362 118.452 172.227 118.76 171.956 119.012C171.695 119.255 171.359 119.376 170.948 119.376ZM172.138 120.188V128H169.744V120.188H172.138ZM178.633 120.104C179.548 120.104 180.276 120.403 180.817 121C181.368 121.588 181.643 122.4 181.643 123.436V128H179.263V123.758C179.263 123.235 179.128 122.829 178.857 122.54C178.586 122.251 178.222 122.106 177.765 122.106C177.308 122.106 176.944 122.251 176.673 122.54C176.402 122.829 176.267 123.235 176.267 123.758V128H173.873V120.188H176.267V121.224C176.51 120.879 176.836 120.608 177.247 120.412C177.658 120.207 178.12 120.104 178.633 120.104ZM182.83 124.08C182.83 123.277 182.98 122.573 183.278 121.966C183.586 121.359 184.002 120.893 184.524 120.566C185.047 120.239 185.63 120.076 186.274 120.076C186.825 120.076 187.306 120.188 187.716 120.412C188.136 120.636 188.458 120.93 188.682 121.294V120.188H191.076V128H188.682V126.894C188.449 127.258 188.122 127.552 187.702 127.776C187.292 128 186.811 128.112 186.26 128.112C185.626 128.112 185.047 127.949 184.524 127.622C184.002 127.286 183.586 126.815 183.278 126.208C182.98 125.592 182.83 124.883 182.83 124.08ZM188.682 124.094C188.682 123.497 188.514 123.025 188.178 122.68C187.852 122.335 187.45 122.162 186.974 122.162C186.498 122.162 186.092 122.335 185.756 122.68C185.43 123.016 185.266 123.483 185.266 124.08C185.266 124.677 185.43 125.153 185.756 125.508C186.092 125.853 186.498 126.026 186.974 126.026C187.45 126.026 187.852 125.853 188.178 125.508C188.514 125.163 188.682 124.691 188.682 124.094ZM195.202 117.64V128H192.808V117.64H195.202ZM116.437 148.112C115.755 148.112 115.149 147.995 114.617 147.762C114.085 147.529 113.665 147.211 113.357 146.81C113.049 146.399 112.876 145.942 112.839 145.438H115.205C115.233 145.709 115.359 145.928 115.583 146.096C115.807 146.264 116.082 146.348 116.409 146.348C116.707 146.348 116.936 146.292 117.095 146.18C117.263 146.059 117.347 145.905 117.347 145.718C117.347 145.494 117.23 145.331 116.997 145.228C116.763 145.116 116.385 144.995 115.863 144.864C115.303 144.733 114.836 144.598 114.463 144.458C114.089 144.309 113.767 144.08 113.497 143.772C113.226 143.455 113.091 143.03 113.091 142.498C113.091 142.05 113.212 141.644 113.455 141.28C113.707 140.907 114.071 140.613 114.547 140.398C115.032 140.183 115.606 140.076 116.269 140.076C117.249 140.076 118.019 140.319 118.579 140.804C119.148 141.289 119.475 141.933 119.559 142.736H117.347C117.309 142.465 117.188 142.251 116.983 142.092C116.787 141.933 116.525 141.854 116.199 141.854C115.919 141.854 115.704 141.91 115.555 142.022C115.405 142.125 115.331 142.269 115.331 142.456C115.331 142.68 115.447 142.848 115.681 142.96C115.923 143.072 116.297 143.184 116.801 143.296C117.379 143.445 117.851 143.595 118.215 143.744C118.579 143.884 118.896 144.117 119.167 144.444C119.447 144.761 119.591 145.191 119.601 145.732C119.601 146.189 119.47 146.6 119.209 146.964C118.957 147.319 118.588 147.599 118.103 147.804C117.627 148.009 117.071 148.112 116.437 148.112ZM128.779 140.188V148H126.385V146.936C126.143 147.281 125.811 147.561 125.391 147.776C124.981 147.981 124.523 148.084 124.019 148.084C123.422 148.084 122.895 147.953 122.437 147.692C121.98 147.421 121.625 147.034 121.373 146.53C121.121 146.026 120.995 145.433 120.995 144.752V140.188H123.375V144.43C123.375 144.953 123.511 145.359 123.781 145.648C124.052 145.937 124.416 146.082 124.873 146.082C125.34 146.082 125.709 145.937 125.979 145.648C126.25 145.359 126.385 144.953 126.385 144.43V140.188H128.779ZM132.893 141.294C133.126 140.93 133.448 140.636 133.859 140.412C134.27 140.188 134.75 140.076 135.301 140.076C135.945 140.076 136.528 140.239 137.051 140.566C137.574 140.893 137.984 141.359 138.283 141.966C138.591 142.573 138.745 143.277 138.745 144.08C138.745 144.883 138.591 145.592 138.283 146.208C137.984 146.815 137.574 147.286 137.051 147.622C136.528 147.949 135.945 148.112 135.301 148.112C134.76 148.112 134.279 148 133.859 147.776C133.448 147.552 133.126 147.263 132.893 146.908V151.724H130.499V140.188H132.893V141.294ZM136.309 144.08C136.309 143.483 136.141 143.016 135.805 142.68C135.478 142.335 135.072 142.162 134.587 142.162C134.111 142.162 133.705 142.335 133.369 142.68C133.042 143.025 132.879 143.497 132.879 144.094C132.879 144.691 133.042 145.163 133.369 145.508C133.705 145.853 134.111 146.026 134.587 146.026C135.063 146.026 135.469 145.853 135.805 145.508C136.141 145.153 136.309 144.677 136.309 144.08ZM142.395 141.294C142.628 140.93 142.95 140.636 143.361 140.412C143.771 140.188 144.252 140.076 144.803 140.076C145.447 140.076 146.03 140.239 146.553 140.566C147.075 140.893 147.486 141.359 147.785 141.966C148.093 142.573 148.247 143.277 148.247 144.08C148.247 144.883 148.093 145.592 147.785 146.208C147.486 146.815 147.075 147.286 146.553 147.622C146.03 147.949 145.447 148.112 144.803 148.112C144.261 148.112 143.781 148 143.361 147.776C142.95 147.552 142.628 147.263 142.395 146.908V151.724H140.001V140.188H142.395V141.294ZM145.811 144.08C145.811 143.483 145.643 143.016 145.307 142.68C144.98 142.335 144.574 142.162 144.089 142.162C143.613 142.162 143.207 142.335 142.871 142.68C142.544 143.025 142.381 143.497 142.381 144.094C142.381 144.691 142.544 145.163 142.871 145.508C143.207 145.853 143.613 146.026 144.089 146.026C144.565 146.026 144.971 145.853 145.307 145.508C145.643 145.153 145.811 144.677 145.811 144.08ZM151.897 137.64V148H149.503V137.64H151.897ZM161.612 140.188L156.712 151.71H154.136L155.928 147.734L152.75 140.188H155.424L157.23 145.074L159.022 140.188H161.612Z" fill="white"/>
<defs>
<filter id="filter0_d_2601_21579" x="0.326425" y="86.8498" width="273.347" height="187.332" filterUnits="userSpaceOnUse" color-interpolation-filters="sRGB">
<feFlood flood-opacity="0" result="BackgroundImageFix"/>
<feColorMatrix in="SourceAlpha" type="matrix" values="0 0 0 0 0 0 0 0 0 0 0 0 0 0 0 0 0 0 127 0" result="hardAlpha"/>
<feMorphology radius="0.626943" operator="dilate" in="SourceAlpha" result="effect1_dropShadow_2601_21579"/>
<feOffset dy="2.50777"/>
<feGaussianBlur stdDeviation="7.52332"/>
<feComposite in2="hardAlpha" operator="out"/>
<feColorMatrix type="matrix" values="0 0 0 0 0 0 0 0 0 0 0 0 0 0 0 0 0 0 0.29 0"/>
<feBlend mode="normal" in2="BackgroundImageFix" result="effect1_dropShadow_2601_21579"/>
<feBlend mode="normal" in="SourceGraphic" in2="effect1_dropShadow_2601_21579" result="shape"/>
</filter>
<filter id="filter1_d_2601_21579" x="9.58131" y="0.834197" width="254.977" height="113.267" filterUnits="userSpaceOnUse" color-interpolation-filters="sRGB">
<feFlood flood-opacity="0" result="BackgroundImageFix"/>
<feColorMatrix in="SourceAlpha" type="matrix" values="0 0 0 0 0 0 0 0 0 0 0 0 0 0 0 0 0 0 127 0" result="hardAlpha"/>
<feMorphology radius="0.626943" operator="dilate" in="SourceAlpha" result="effect1_dropShadow_2601_21579"/>
<feOffset dy="2.50777"/>
<feGaussianBlur stdDeviation="7.52332"/>
<feComposite in2="hardAlpha" operator="out"/>
<feColorMatrix type="matrix" values="0 0 0 0 0 0 0 0 0 0 0 0 0 0 0 0 0 0 0.29 0"/>
<feBlend mode="normal" in2="BackgroundImageFix" result="effect1_dropShadow_2601_21579"/>
<feBlend mode="normal" in="SourceGraphic" in2="effect1_dropShadow_2601_21579" result="shape"/>
</filter>
</defs>
</svg>
