<svg width="82" height="80" viewBox="0 0 82 80" fill="none" xmlns="http://www.w3.org/2000/svg">
<rect x="0.5" width="80" height="80" rx="34" fill="#292929"/>
<path d="M40.4263 25.0207L41.4849 24.7021C42.4697 24.4057 43.3109 23.838 44.0355 22.9214C44.6996 22.0812 45.0404 21.1133 45.0404 19.9208C45.0404 18.4877 44.5822 17.3572 43.6604 16.3953L45.2849 14.8385L43.6604 16.3953C42.7421 15.4371 41.7029 14.9958 40.4143 14.9958C39.1257 14.9958 38.0865 15.4371 37.1683 16.3953C36.2469 17.3567 35.7887 18.4866 35.7883 19.9188L40.4263 25.0207ZM40.4263 25.0207L39.3306 24.6982C38.3057 24.3966 37.4702 23.8283 36.7793 22.9364C36.1278 22.0954 35.7894 21.1213 35.7883 19.919L40.4263 25.0207ZM28.5057 56.0948L29.6776 56.6506L30.3222 57.5679C30.6104 57.978 30.8504 58.4504 31.035 58.9976C31.2038 59.4978 31.2894 60.0199 31.2883 60.5748V60.5792C31.2883 62.0123 30.8301 63.1428 29.9083 64.1047C28.99 65.0628 27.9508 65.5042 26.6622 65.5042C25.3736 65.5042 24.3344 65.0628 23.4162 64.1047C22.4944 63.1428 22.0362 62.0123 22.0362 60.5792C22.0362 59.146 22.4944 58.0155 23.4162 57.0536C24.3344 56.0955 25.3736 55.6542 26.6622 55.6542C27.0296 55.6542 27.3332 55.6952 27.5841 55.7607C27.9087 55.8454 28.2152 55.957 28.5057 56.0948ZM36.5077 50.0867L35.3695 49.421L34.4373 48.3441C33.5858 47.3604 33.0039 46.2669 32.6734 45.0441C32.3318 43.7801 32.2578 42.537 32.4408 41.2957L32.6498 39.8784L33.2896 38.6765C33.9053 37.5202 34.7218 36.5494 35.7522 35.7475C36.7409 34.978 37.8404 34.4912 39.0812 34.2752L40.4137 34.0432L41.7478 34.2753C42.9904 34.4914 44.0904 34.9783 45.0788 35.7475C46.1087 36.5491 46.9242 37.5194 47.5381 38.6749L48.1794 39.8817L48.3878 41.2957C48.571 42.5382 48.4962 43.7693 48.1571 45.0086C47.8265 46.2168 47.2398 47.3332 46.3694 48.3699L45.57 49.3219L44.2628 50.0872C43.0334 50.8068 41.7537 51.1542 40.3868 51.1542C39.0199 51.1542 37.7391 50.8068 36.5077 50.0867ZM53.1509 55.7543C53.4351 55.693 53.7719 55.6556 54.1694 55.6542C55.4566 55.6548 56.4949 56.0962 57.4125 57.0536C58.3343 58.0155 58.7924 59.146 58.7924 60.5792C58.7924 62.0123 58.3343 63.1428 57.4125 64.1047C56.4942 65.0628 55.455 65.5042 54.1664 65.5042C52.8778 65.5042 51.8386 65.0628 50.9203 64.1047C49.9986 63.1428 49.5404 62.0123 49.5404 60.5792C49.5404 60.0207 49.6268 59.4977 49.7954 58.999C49.9806 58.4514 50.2211 57.9765 50.5103 57.5624L51.2075 56.564L52.3229 56.035C52.5855 55.9105 52.8603 55.8169 53.1509 55.7543ZM57.1744 38.1789L56.4164 36.9399V35.945V35.4667C56.4164 34.0335 56.8746 32.903 57.7964 31.9411C58.7146 30.983 59.7538 30.5417 61.0424 30.5417C62.331 30.5417 63.3703 30.983 64.2885 31.9411C65.2103 32.903 65.6685 34.0335 65.6685 35.4667C65.6685 36.8998 65.2103 38.0303 64.2885 38.9922C63.3703 39.9503 62.331 40.3917 61.0424 40.3917C60.2059 40.3917 59.4856 40.1923 58.8329 39.8071C58.1346 39.395 57.5905 38.859 57.1744 38.1789ZM24.4122 37.014L23.6885 38.1247C23.2197 38.844 22.6434 39.3992 21.9492 39.8171C21.3257 40.1925 20.6229 40.3917 19.7862 40.3917C18.4976 40.3917 17.4584 39.9503 16.5401 38.9922C15.6183 38.0303 15.1602 36.8998 15.1602 35.4667C15.1602 34.0335 15.6183 32.903 16.5401 31.9411L14.9157 30.3844L16.5401 31.9411C17.4584 30.983 18.4976 30.5417 19.7862 30.5417C21.0748 30.5417 22.114 30.983 23.0323 31.9411C23.954 32.903 24.4122 34.0335 24.4122 35.4667V35.945V37.014Z" fill="black" stroke="url(#paint0_linear_3061_4302)" stroke-width="4.5"/>
<circle cx="73.5" cy="8" r="8" fill="#D50101"/>
<defs>
<linearGradient id="paint0_linear_3061_4302" x1="40.4143" y1="12.7458" x2="40.4143" y2="67.7542" gradientUnits="userSpaceOnUse">
<stop stop-color="#F42222"/>
<stop offset="1" stop-color="#F59331"/>
</linearGradient>
</defs>
</svg>
