<svg width="81" height="80" viewBox="0 0 81 80" fill="none" xmlns="http://www.w3.org/2000/svg">
<rect x="0.5" width="80" height="80" rx="34" fill="#292929"/>
<path d="M40.4143 63.1701V37.879M40.4143 39.4597V48.9438M40.4143 39.4597C40.4143 36.1058 39.0344 32.8894 36.5782 30.5179C34.122 28.1464 30.7907 26.8141 27.3171 26.8141H17.4941V36.2983C17.4941 39.6521 18.874 42.8685 21.3302 45.24C23.7864 47.6115 27.1178 48.9438 30.5914 48.9438H40.4143M40.4143 39.4597H50.2372C53.7108 39.4597 57.0421 38.1274 59.4983 35.7558C61.9545 33.3843 63.3344 30.1679 63.3344 26.8141V17.3299H53.5115C50.0379 17.3299 46.7066 18.6622 44.2504 21.0337C41.7942 23.4052 40.4143 26.6216 40.4143 29.9755V39.4597ZM40.4143 39.4597L53.5115 26.8141M40.4143 48.9438L27.3171 36.2983" stroke="url(#paint0_linear_3061_13050)" stroke-width="4.58403"/>
<defs>
<linearGradient id="paint0_linear_3061_13050" x1="40.4143" y1="17.3299" x2="40.4143" y2="63.1701" gradientUnits="userSpaceOnUse">
<stop stop-color="#F42222"/>
<stop offset="1" stop-color="#F59331"/>
</linearGradient>
</defs>
</svg>
