<svg width="82" height="80" viewBox="0 0 82 80" fill="none" xmlns="http://www.w3.org/2000/svg">
<rect x="0.5" width="80" height="80" rx="34" fill="#292929"/>
<mask id="path-2-inside-1_3061_14726" fill="white">
<path d="M37.8356 40.25C37.8356 40.9338 38.1073 41.5897 38.5908 42.0733C39.0744 42.5568 39.7302 42.8285 40.4141 42.8285C41.098 42.8285 41.7538 42.5568 42.2374 42.0733C42.721 41.5897 42.9926 40.9338 42.9926 40.25C42.9926 39.5661 42.721 38.9103 42.2374 38.4267C41.7538 37.9431 41.098 37.6715 40.4141 37.6715C39.7302 37.6715 39.0744 37.9431 38.5908 38.4267C38.1073 38.9103 37.8356 39.5661 37.8356 40.25ZM48.5794 40.25C48.5794 40.9338 48.8511 41.5897 49.3346 42.0733C49.8182 42.5568 50.4741 42.8285 51.1579 42.8285C51.8418 42.8285 52.4976 42.5568 52.9812 42.0733C53.4648 41.5897 53.7364 40.9338 53.7364 40.25C53.7364 39.5661 53.4648 38.9103 52.9812 38.4267C52.4976 37.9431 51.8418 37.6715 51.1579 37.6715C50.4741 37.6715 49.8182 37.9431 49.3346 38.4267C48.8511 38.9103 48.5794 39.5661 48.5794 40.25ZM27.0918 40.25C27.0918 40.9338 27.3634 41.5897 27.847 42.0733C28.3306 42.5568 28.9864 42.8285 29.6703 42.8285C30.3542 42.8285 31.01 42.5568 31.4936 42.0733C31.9771 41.5897 32.2488 40.9338 32.2488 40.25C32.2488 39.5661 31.9771 38.9103 31.4936 38.4267C31.01 37.9431 30.3542 37.6715 29.6703 37.6715C28.9864 37.6715 28.3306 37.9431 27.847 38.4267C27.3634 38.9103 27.0918 39.5661 27.0918 40.25ZM62.6108 30.9244C61.3968 28.0396 59.6563 25.4504 57.4377 23.2264C55.2346 21.0153 52.6193 19.2578 49.7397 18.0533C46.7852 16.8124 43.648 16.1838 40.4141 16.1838H40.3067C37.0513 16.2 33.898 16.8446 30.9327 18.1124C28.0778 19.3292 25.487 21.0899 23.3046 23.2962C21.1075 25.5148 19.3831 28.0934 18.1905 30.9673C16.955 33.9434 16.3318 37.1074 16.348 40.3628C16.3662 44.0934 17.2488 47.7691 18.9265 51.1012V59.2665C18.9265 59.9219 19.1868 60.5504 19.6502 61.0139C20.1137 61.4773 20.7422 61.7376 21.3976 61.7376H29.5682C32.9004 63.4153 36.576 64.2979 40.3067 64.3161H40.4195C43.6372 64.3161 46.7583 63.693 49.6968 62.4736C52.5617 61.2834 55.1673 59.5464 57.3678 57.3595C59.5864 55.1624 61.3323 52.5946 62.5517 49.7314C63.8195 46.7661 64.4641 43.6128 64.4803 40.3574C64.4964 37.0859 63.8625 33.9111 62.6108 30.9244ZM54.4939 54.4533C50.7282 58.1814 45.7323 60.2335 40.4141 60.2335H40.3228C37.0835 60.2174 33.8658 59.4116 31.024 57.8967L30.5728 57.655H23.0091V50.0913L22.7674 49.6401C21.2525 46.7983 20.4467 43.5806 20.4306 40.3413C20.4091 34.9855 22.4558 29.9574 26.2108 26.1702C29.9604 22.383 34.9724 20.288 40.3282 20.2665H40.4195C43.1054 20.2665 45.7108 20.7876 48.1658 21.819C50.5616 22.8235 52.7104 24.2686 54.5583 26.1165C56.4009 27.9591 57.8513 30.1132 58.8559 32.5091C59.898 34.9909 60.4191 37.6231 60.4083 40.3413C60.3761 45.6917 58.2757 50.7037 54.4939 54.4533Z"/>
</mask>
<path d="M37.8356 40.25H33.3356H37.8356ZM40.4141 37.6715V33.1715V37.6715ZM51.1579 37.6715V33.1715V37.6715ZM27.0918 40.25H22.5918H27.0918ZM32.2488 40.25H36.7488H32.2488ZM29.6703 37.6715V33.1715V37.6715ZM62.6108 30.9244L66.7611 29.1851L66.7585 29.1788L62.6108 30.9244ZM57.4377 23.2264L54.2499 26.4026L54.2519 26.4045L57.4377 23.2264ZM49.7397 18.0533L47.9972 22.2022L48.0032 22.2047L49.7397 18.0533ZM40.3067 16.1838V11.6838H40.2955L40.2844 11.6839L40.3067 16.1838ZM30.9327 18.1124L32.6972 22.252L32.7017 22.2501L30.9327 18.1124ZM23.3046 23.2962L26.502 26.4627L26.5039 26.4608L23.3046 23.2962ZM18.1905 30.9673L22.3466 32.6928L22.3469 32.692L18.1905 30.9673ZM16.348 40.3628L20.8479 40.3408L20.8479 40.3405L16.348 40.3628ZM18.9265 51.1012H23.4265V50.0323L22.9458 49.0776L18.9265 51.1012ZM18.9265 59.2665H14.4265H18.9265ZM29.5682 61.7376L31.5919 57.7183L30.6371 57.2376H29.5682V61.7376ZM40.3067 64.3161L40.2847 68.8161L40.2957 68.8161H40.3067V64.3161ZM49.6968 62.4736L51.4216 66.6299L51.4231 66.6293L49.6968 62.4736ZM57.3678 57.3595L54.2014 54.1621L54.1958 54.1676L57.3678 57.3595ZM62.5517 49.7314L58.414 47.9624L58.4116 47.9681L62.5517 49.7314ZM64.4803 40.3574L68.9802 40.3797L68.9802 40.3796L64.4803 40.3574ZM54.4939 54.4533L57.6598 57.6512L57.6622 57.6489L54.4939 54.4533ZM40.3228 60.2335L40.3004 64.7334L40.3116 64.7335H40.3228V60.2335ZM31.024 57.8967L28.899 61.8634L28.9071 61.8677L31.024 57.8967ZM30.5728 57.655L32.6978 53.6883L31.7022 53.155H30.5728V57.655ZM23.0091 57.655H18.5091V62.155H23.0091V57.655ZM23.0091 50.0913H27.5091V48.9619L26.9758 47.9663L23.0091 50.0913ZM22.7674 49.6401L18.7964 51.757L18.8007 51.7651L22.7674 49.6401ZM20.4306 40.3413L15.9306 40.3594L15.9307 40.3637L20.4306 40.3413ZM26.2108 26.1702L29.4063 29.3386L29.4086 29.3363L26.2108 26.1702ZM40.3282 20.2665V15.7665H40.3191L40.3101 15.7665L40.3282 20.2665ZM48.1658 21.819L46.4228 25.9677L46.4258 25.969L48.1658 21.819ZM58.8559 32.5091L54.7059 34.2491L54.7068 34.2513L58.8559 32.5091ZM60.4083 40.3413L64.9083 40.3684L64.9083 40.3591L60.4083 40.3413ZM33.3356 40.25C33.3356 42.1273 34.0814 43.9278 35.4088 45.2552L41.7728 38.8913C42.1331 39.2516 42.3356 39.7404 42.3356 40.25H33.3356ZM35.4088 45.2552C36.7363 46.5827 38.5368 47.3285 40.4141 47.3285V38.3285C40.9237 38.3285 41.4125 38.5309 41.7728 38.8913L35.4088 45.2552ZM40.4141 47.3285C42.2915 47.3285 44.0919 46.5827 45.4194 45.2552L39.0554 38.8913C39.4158 38.5309 39.9045 38.3285 40.4141 38.3285V47.3285ZM45.4194 45.2552C46.7468 43.9278 47.4926 42.1273 47.4926 40.25H38.4926C38.4926 39.7404 38.6951 39.2516 39.0554 38.8913L45.4194 45.2552ZM47.4926 40.25C47.4926 38.3726 46.7468 36.5722 45.4194 35.2447L39.0554 41.6087C38.6951 41.2483 38.4926 40.7596 38.4926 40.25H47.4926ZM45.4194 35.2447C44.0919 33.9172 42.2914 33.1715 40.4141 33.1715V42.1715C39.9045 42.1715 39.4158 41.969 39.0554 41.6087L45.4194 35.2447ZM40.4141 33.1715C38.5368 33.1715 36.7363 33.9172 35.4088 35.2447L41.7728 41.6087C41.4125 41.969 40.9237 42.1715 40.4141 42.1715V33.1715ZM35.4088 35.2447C34.0814 36.5722 33.3356 38.3726 33.3356 40.25H42.3356C42.3356 40.7596 42.1332 41.2483 41.7728 41.6087L35.4088 35.2447ZM44.0794 40.25C44.0794 42.1273 44.8252 43.9278 46.1527 45.2552L52.5166 38.8913C52.877 39.2516 53.0794 39.7404 53.0794 40.25H44.0794ZM46.1527 45.2552C47.4801 46.5827 49.2806 47.3285 51.1579 47.3285V38.3285C51.6675 38.3285 52.1563 38.5309 52.5166 38.8913L46.1527 45.2552ZM51.1579 47.3285C53.0353 47.3285 54.8357 46.5827 56.1632 45.2552L49.7992 38.8913C50.1596 38.5309 50.6483 38.3285 51.1579 38.3285V47.3285ZM56.1632 45.2552C57.4907 43.9278 58.2364 42.1273 58.2364 40.25H49.2364C49.2364 39.7404 49.4389 39.2516 49.7992 38.8913L56.1632 45.2552ZM58.2364 40.25C58.2364 38.3726 57.4907 36.5722 56.1632 35.2447L49.7992 41.6087C49.4389 41.2483 49.2364 40.7596 49.2364 40.25H58.2364ZM56.1632 35.2447C54.8357 33.9172 53.0353 33.1715 51.1579 33.1715V42.1715C50.6483 42.1715 50.1596 41.969 49.7992 41.6087L56.1632 35.2447ZM51.1579 33.1715C49.2806 33.1715 47.4801 33.9172 46.1527 35.2447L52.5166 41.6087C52.1563 41.969 51.6675 42.1715 51.1579 42.1715V33.1715ZM46.1527 35.2447C44.8252 36.5722 44.0794 38.3726 44.0794 40.25H53.0794C53.0794 40.7596 52.877 41.2483 52.5166 41.6087L46.1527 35.2447ZM22.5918 40.25C22.5918 42.1273 23.3375 43.9278 24.665 45.2552L31.029 38.8913C31.3893 39.2516 31.5918 39.7404 31.5918 40.25H22.5918ZM24.665 45.2552C25.9925 46.5827 27.7929 47.3285 29.6703 47.3285V38.3285C30.1799 38.3285 30.6686 38.5309 31.029 38.8913L24.665 45.2552ZM29.6703 47.3285C31.5476 47.3285 33.3481 46.5827 34.6756 45.2552L28.3116 38.8913C28.6719 38.5309 29.1607 38.3285 29.6703 38.3285V47.3285ZM34.6756 45.2552C36.003 43.9278 36.7488 42.1273 36.7488 40.25H27.7488C27.7488 39.7404 27.9512 39.2516 28.3116 38.8913L34.6756 45.2552ZM36.7488 40.25C36.7488 38.3726 36.003 36.5722 34.6756 35.2447L28.3116 41.6087C27.9512 41.2483 27.7488 40.7596 27.7488 40.25H36.7488ZM34.6756 35.2447C33.3481 33.9172 31.5476 33.1715 29.6703 33.1715V42.1715C29.1607 42.1715 28.6719 41.969 28.3116 41.6087L34.6756 35.2447ZM29.6703 33.1715C27.793 33.1715 25.9925 33.9172 24.665 35.2447L31.029 41.6087C30.6686 41.969 30.1799 42.1715 29.6703 42.1715V33.1715ZM24.665 35.2447C23.3375 36.5722 22.5918 38.3726 22.5918 40.25H31.5918C31.5918 40.7596 31.3893 41.2483 31.029 41.6087L24.665 35.2447ZM66.7585 29.1788C65.3181 25.7564 63.2501 22.6813 60.6235 20.0483L54.2519 26.4045C56.0624 28.2195 57.4754 30.3229 58.4632 32.6699L66.7585 29.1788ZM60.6254 20.0502C58.007 17.4223 54.8986 15.3334 51.4763 13.9018L48.0032 22.2047C50.3399 23.1821 52.4622 24.6083 54.2499 26.4026L60.6254 20.0502ZM51.4823 13.9043C47.9704 12.4293 44.2402 11.6838 40.4141 11.6838V20.6838C43.0557 20.6838 45.6 21.1954 47.9972 22.2022L51.4823 13.9043ZM40.4141 11.6838H40.3067V20.6838H40.4141V11.6838ZM40.2844 11.6839C36.4401 11.7029 32.6918 12.4662 29.1637 13.9747L32.7017 22.2501C35.1041 21.2229 37.6625 20.697 40.3289 20.6838L40.2844 11.6839ZM29.1682 13.9727C25.7764 15.4184 22.6982 17.5103 20.1053 20.1317L26.5039 26.4608C28.2758 24.6695 30.3793 23.24 32.6972 22.252L29.1682 13.9727ZM20.1072 20.1298C17.5063 22.7561 15.4534 25.8225 14.0342 29.2426L22.3469 32.692C23.3128 30.3643 24.7087 28.2736 26.502 26.4627L20.1072 20.1298ZM14.0345 29.2419C12.568 32.7742 11.8289 36.5326 11.848 40.3851L20.8479 40.3405C20.8347 37.6822 21.342 35.1126 22.3466 32.6928L14.0345 29.2419ZM11.848 40.3848C11.8696 44.8108 12.9168 49.1716 14.9072 53.1249L22.9458 49.0776C21.5808 46.3665 20.8627 43.376 20.8479 40.3408L11.848 40.3848ZM14.4265 51.1012V59.2665H23.4265V51.1012H14.4265ZM14.4265 59.2665C14.4265 61.1154 15.1609 62.8885 16.4683 64.1958L22.8322 57.8319C23.2127 58.2124 23.4265 58.7284 23.4265 59.2665H14.4265ZM16.4683 64.1958C17.7756 65.5032 19.5487 66.2376 21.3976 66.2376V57.2376C21.9357 57.2376 22.4517 57.4514 22.8322 57.8319L16.4683 64.1958ZM21.3976 66.2376H29.5682V57.2376H21.3976V66.2376ZM27.5446 65.7569C31.4979 67.7473 35.8587 68.7945 40.2847 68.8161L40.3287 59.8162C37.2934 59.8014 34.3029 59.0833 31.5919 57.7183L27.5446 65.7569ZM40.3067 68.8161H40.4195V59.8161H40.3067V68.8161ZM40.4195 68.8161C44.2269 68.8161 47.9343 68.0771 51.4216 66.6299L47.9719 58.3173C45.5823 59.3089 43.0476 59.8161 40.4195 59.8161V68.8161ZM51.4231 66.6293C54.828 65.2148 57.9247 63.1504 60.5399 60.5514L54.1958 54.1676C52.41 55.9423 50.2955 57.352 47.9704 58.3179L51.4231 66.6293ZM60.5343 60.5569C63.1652 57.9516 65.2427 54.8973 66.6919 51.4947L58.4116 47.9681C57.4219 50.2919 56.0077 52.3732 54.2014 54.1621L60.5343 60.5569ZM66.6894 51.5004C68.1979 47.9723 68.9612 44.224 68.9802 40.3797L59.9803 40.3351C59.9671 43.0016 59.4412 45.56 58.414 47.9624L66.6894 51.5004ZM68.9802 40.3796C68.9993 36.5031 68.2464 32.7293 66.7611 29.1851L58.4605 32.6636C59.4786 35.093 59.9934 37.6687 59.9803 40.3353L68.9802 40.3796ZM51.3279 51.2554C48.4075 54.1467 44.5505 55.7335 40.4141 55.7335V64.7335C46.9141 64.7335 53.0488 62.2162 57.6598 57.6512L51.3279 51.2554ZM40.4141 55.7335H40.3228V64.7335H40.4141V55.7335ZM40.3452 55.7335C37.8281 55.721 35.3303 55.0928 33.1409 53.9257L28.9071 61.8677C32.4012 63.7303 36.3389 64.7137 40.3004 64.7334L40.3452 55.7335ZM33.149 53.93L32.6978 53.6883L28.4478 61.6216L28.899 61.8634L33.149 53.93ZM30.5728 53.155H23.0091V62.155H30.5728V53.155ZM27.5091 57.655V50.0913H18.5091V57.655H27.5091ZM26.9758 47.9663L26.7341 47.5151L18.8007 51.7651L19.0425 52.2163L26.9758 47.9663ZM26.7384 47.5232C25.5713 45.3338 24.9431 42.836 24.9306 40.3189L15.9307 40.3637C15.9504 44.3252 16.9337 48.2628 18.7964 51.7569L26.7384 47.5232ZM24.9306 40.3233C24.9138 36.151 26.498 32.2718 29.4063 29.3386L23.0152 23.0019C18.4136 27.643 15.9044 33.82 15.9306 40.3594L24.9306 40.3233ZM29.4086 29.3363C32.3122 26.4036 36.1779 24.7832 40.3462 24.7665L40.3101 15.7665C33.7668 15.7928 27.6086 18.3624 23.013 23.0041L29.4086 29.3363ZM40.3282 24.7665H40.4195V15.7665H40.3282V24.7665ZM40.4195 24.7665C42.5141 24.7665 44.5263 25.1709 46.4228 25.9677L49.9088 17.6702C46.8953 16.4042 43.6968 15.7665 40.4195 15.7665V24.7665ZM46.4258 25.969C48.2787 26.7459 49.9386 27.8607 51.3764 29.2985L57.7403 22.9345C55.4822 20.6764 52.8446 18.9012 49.9058 17.669L46.4258 25.969ZM51.3764 29.2985C52.8093 30.7315 53.9293 32.3969 54.7059 34.2491L63.0058 30.7691C61.7733 27.8295 59.9925 25.1867 57.7403 22.9345L51.3764 29.2985ZM54.7068 34.2513C55.5122 36.1693 55.9168 38.2024 55.9084 40.3235L64.9083 40.3591C64.9214 37.0439 64.2838 33.8125 63.0049 30.7668L54.7068 34.2513ZM55.9084 40.3142C55.8833 44.4803 54.2572 48.351 51.3255 51.2577L57.6622 57.6489C62.2942 53.0564 64.8689 46.9032 64.9083 40.3684L55.9084 40.3142Z" fill="url(#paint0_linear_3061_14726)" mask="url(#path-2-inside-1_3061_14726)"/>
<circle cx="73.5" cy="8" r="8" fill="#D50101"/>
<defs>
<linearGradient id="paint0_linear_3061_14726" x1="40.4141" y1="16.1838" x2="40.4141" y2="64.3161" gradientUnits="userSpaceOnUse">
<stop stop-color="#F42222"/>
<stop offset="1" stop-color="#F59331"/>
</linearGradient>
</defs>
</svg>
