<svg width="20" height="20" viewBox="0 0 20 20" fill="none" xmlns="http://www.w3.org/2000/svg">
<mask id="path-1-inside-1_3020_11719" fill="white">
<path d="M6.36364 0.910156H0L7.50909 10.9229L0.409091 19.092H2.81818L8.62545 12.4111L13.6364 19.092H20L12.1745 8.65743L18.9091 0.910156H16.5L11.0582 7.17016L6.36364 0.910156ZM14.5455 17.2738L3.63636 2.72834H5.45455L16.3636 17.2738H14.5455Z"/>
</mask>
<path d="M6.36364 0.910156H0L7.50909 10.9229L0.409091 19.092H2.81818L8.62545 12.4111L13.6364 19.092H20L12.1745 8.65743L18.9091 0.910156H16.5L11.0582 7.17016L6.36364 0.910156ZM14.5455 17.2738L3.63636 2.72834H5.45455L16.3636 17.2738H14.5455Z" fill="black"/>
<path d="M6.36364 0.910156L8.10915 -0.398854L7.45461 -1.27166H6.36364V0.910156ZM0 0.910156V-1.27166H-4.36348L-1.74549 2.2192L0 0.910156ZM7.50909 10.9229L9.15586 12.3541L10.312 11.0239L9.25458 9.61384L7.50909 10.9229ZM0.409091 19.092L-1.23768 17.6607L-4.3779 21.2738H0.409091V19.092ZM2.81818 19.092V21.2738H3.81253L4.46486 20.5233L2.81818 19.092ZM8.62545 12.4111L10.3709 11.1019L8.75047 8.94149L6.97877 10.9797L8.62545 12.4111ZM13.6364 19.092L11.8909 20.4011L12.5455 21.2738H13.6364V19.092ZM20 19.092V21.2738H24.3635L21.7455 17.7829L20 19.092ZM12.1745 8.65743L10.5279 7.22604L9.37151 8.55633L10.4291 9.96647L12.1745 8.65743ZM18.9091 0.910156L20.5557 2.34155L23.6966 -1.27166H18.9091V0.910156ZM16.5 0.910156V-1.27166H15.5057L14.8534 -0.521258L16.5 0.910156ZM11.0582 7.17016L9.31267 8.47917L10.933 10.6398L12.7048 8.60157L11.0582 7.17016ZM14.5455 17.2738L12.8 18.5829L13.4545 19.4556H14.5455V17.2738ZM3.63636 2.72834V0.54652H-0.727273L1.89091 4.03743L3.63636 2.72834ZM5.45455 2.72834L7.2 1.41925L6.54545 0.54652H5.45455V2.72834ZM16.3636 17.2738V19.4556H20.7273L18.1091 15.9647L16.3636 17.2738ZM6.36364 -1.27166H0V3.09197H6.36364V-1.27166ZM-1.74549 2.2192L5.7636 12.2319L9.25458 9.61384L1.74549 -0.398884L-1.74549 2.2192ZM5.86232 9.49163L-1.23768 17.6607L2.05586 20.5232L9.15586 12.3541L5.86232 9.49163ZM0.409091 21.2738H2.81818V16.9102H0.409091V21.2738ZM4.46486 20.5233L10.2721 13.8424L6.97877 10.9797L1.1715 17.6606L4.46486 20.5233ZM6.88003 13.7202L11.8909 20.4011L15.3818 17.7828L10.3709 11.1019L6.88003 13.7202ZM13.6364 21.2738H20V16.9102H13.6364V21.2738ZM21.7455 17.7829L13.92 7.34839L10.4291 9.96647L18.2545 20.401L21.7455 17.7829ZM13.8212 10.0888L20.5557 2.34155L17.2624 -0.521238L10.5279 7.22604L13.8212 10.0888ZM18.9091 -1.27166H16.5V3.09197H18.9091V-1.27166ZM14.8534 -0.521258L9.41155 5.73874L12.7048 8.60157L18.1466 2.34157L14.8534 -0.521258ZM12.8037 5.86115L8.10915 -0.398854L4.61812 2.21917L9.31267 8.47917L12.8037 5.86115ZM16.2909 15.9647L5.38182 1.41925L1.89091 4.03743L12.8 18.5829L16.2909 15.9647ZM3.63636 4.91016H5.45455V0.54652H3.63636V4.91016ZM3.70909 4.03743L14.6182 18.5829L18.1091 15.9647L7.2 1.41925L3.70909 4.03743ZM16.3636 15.092H14.5455V19.4556H16.3636V15.092Z" fill="white" mask="url(#path-1-inside-1_3020_11719)"/>
</svg>
