<svg width="241" height="67" viewBox="0 0 241 67" fill="none" xmlns="http://www.w3.org/2000/svg">
<rect y="23.1426" width="237" height="44" rx="8" transform="rotate(-5.60388 0 23.1426)" fill="#E91C24"/>
<path d="M27.1344 39.7875C27.1965 40.4205 27.1058 41.0323 26.8623 41.6229C26.6188 42.2135 26.1862 42.7201 25.5645 43.1429C24.9416 43.5537 24.1167 43.8094 23.0896 43.9102L20.8325 44.1317L21.3281 49.1834L19.2859 49.3838L18.0643 36.9336L22.3637 36.5117C23.3191 36.418 24.1416 36.5061 24.8313 36.776C25.5317 37.0329 26.0707 37.4261 26.4482 37.9558C26.8377 38.4843 27.0664 39.0949 27.1344 39.7875ZM22.9261 42.2442C23.7024 42.168 24.2646 41.938 24.6128 41.5542C24.9598 41.1584 25.1017 40.6381 25.0384 39.9932C24.9048 38.6317 24.0677 38.0266 22.5271 38.1777L20.27 38.3992L20.669 42.4657L22.9261 42.2442ZM37.9104 37.5907L38.8789 47.4613L36.8367 47.6617L36.7225 46.4973C36.4399 46.935 36.0475 47.2991 35.5455 47.5895C35.0542 47.8668 34.516 48.0341 33.9308 48.0915C33.1545 48.1677 32.4401 48.075 31.7874 47.8135C31.1467 47.5508 30.6162 47.1206 30.1958 46.5228C29.7873 45.9238 29.5392 45.1765 29.4513 44.2808L28.8818 38.4766L30.9061 38.278L31.4457 43.7776C31.5324 44.6614 31.8201 45.3204 32.3089 45.7548C32.7965 46.1772 33.4224 46.3509 34.1867 46.2759C34.9511 46.2009 35.5313 45.9088 35.9275 45.3997C36.3344 44.8775 36.4946 44.1745 36.4078 43.2907L35.8682 37.7911L37.9104 37.5907ZM42.7895 38.577C43.0913 38.0892 43.5256 37.6608 44.0922 37.2917C44.6589 36.9226 45.3184 36.7011 46.0708 36.6273C46.9307 36.5429 47.734 36.6811 48.4808 37.0419C49.2384 37.3896 49.8577 37.9257 50.3387 38.6502C50.8198 39.3747 51.1089 40.2325 51.2062 41.2238C51.3034 42.215 51.1877 43.1247 50.859 43.9527C50.5291 44.7688 50.0276 45.433 49.3544 45.9452C48.692 46.4442 47.9308 46.736 47.0709 46.8203C46.3185 46.8942 45.6351 46.8105 45.0206 46.5693C44.405 46.3163 43.8898 45.981 43.475 45.5635L44.0761 51.69L42.034 51.8904L40.6049 37.3264L42.6471 37.126L42.7895 38.577ZM49.1282 41.4277C49.0614 40.7469 48.8606 40.1758 48.526 39.7143C48.2021 39.2396 47.7949 38.8998 47.3046 38.6947C46.825 38.4765 46.3224 38.3931 45.797 38.4447C45.2834 38.4951 44.8067 38.6745 44.3667 38.9829C43.9386 39.2902 43.6059 39.7087 43.3685 40.2384C43.143 40.767 43.0637 41.3716 43.1305 42.0523C43.1973 42.7331 43.3932 43.3167 43.7183 43.8033C44.0541 44.2768 44.4619 44.6226 44.9415 44.8408C45.433 45.0579 45.9355 45.1412 46.4491 45.0908C46.9745 45.0392 47.4513 44.8598 47.8793 44.5526C48.3182 44.2322 48.6497 43.8017 48.874 43.2613C49.1102 42.7196 49.195 42.1084 49.1282 41.4277ZM54.9304 37.3858C55.2322 36.898 55.6665 36.4695 56.2331 36.1004C56.7998 35.7313 57.4593 35.5098 58.2117 35.436C59.0716 35.3517 59.8749 35.4899 60.6217 35.8507C61.3793 36.1984 61.9986 36.7344 62.4796 37.4589C62.9607 38.1834 63.2498 39.0413 63.3471 40.0325C63.4444 41.0238 63.3286 41.9334 62.9999 42.7615C62.67 43.5776 62.1685 44.2417 61.4953 44.7539C60.8329 45.253 60.0717 45.5447 59.2118 45.6291C58.4595 45.7029 57.776 45.6192 57.1615 45.3781C56.5459 45.125 56.0307 44.7897 55.6159 44.3722L56.2171 50.4988L54.1749 50.6992L52.7459 36.1351L54.788 35.9347L54.9304 37.3858ZM61.2691 40.2364C61.2023 39.5557 61.0016 38.9846 60.6669 38.523C60.343 38.0484 59.9359 37.7085 59.4455 37.5034C58.9659 37.2852 58.4634 37.2019 57.9379 37.2535C57.4243 37.3038 56.9476 37.4833 56.5076 37.7917C56.0796 38.099 55.7468 38.5174 55.5094 39.0472C55.284 39.5757 55.2046 40.1803 55.2714 40.8611C55.3382 41.5418 55.5341 42.1255 55.8592 42.612C56.195 43.0855 56.6028 43.4313 57.0824 43.6496C57.5739 43.8666 58.0764 43.9499 58.59 43.8995C59.1155 43.848 59.5922 43.6686 60.0203 43.3613C60.4591 43.0409 60.7906 42.6105 61.0149 42.07C61.2512 41.5283 61.3359 40.9171 61.2691 40.2364ZM73.7721 34.072L69.1409 49.1765L67.0271 49.3839L68.5624 44.3861L63.7224 35.0581L65.9974 34.8349L69.5123 42.0863L71.6583 34.2794L73.7721 34.072ZM79.8804 43.6011C79.1041 43.6773 78.392 43.6085 77.744 43.3947C77.1068 43.1679 76.5856 42.8332 76.1805 42.3906C75.7742 41.9361 75.5298 41.4115 75.4473 40.8167L77.5611 40.6093C77.638 41.0238 77.8696 41.3567 78.256 41.6082C78.6532 41.8465 79.1264 41.9388 79.6758 41.8849C80.2491 41.8286 80.6804 41.6778 80.9698 41.4323C81.27 41.1738 81.4031 40.8714 81.3691 40.525C81.3328 40.1548 81.1267 39.8977 80.7508 39.7537C80.3869 39.6086 79.8123 39.466 79.0268 39.326C78.2665 39.1956 77.644 39.0578 77.1595 38.9124C76.675 38.767 76.2402 38.5142 75.8552 38.1541C75.4822 37.7928 75.264 37.2897 75.2007 36.6448C75.1492 36.1193 75.2575 35.6264 75.5259 35.166C75.793 34.6937 76.2009 34.304 76.7496 33.9969C77.3101 33.6887 77.9666 33.4977 78.719 33.4239C79.8416 33.3137 80.7714 33.5119 81.5084 34.0183C82.2561 34.5117 82.7019 35.2456 82.8458 36.2202L80.8036 36.4206C80.7244 35.9823 80.5107 35.6475 80.1625 35.4164C79.8143 35.1853 79.3655 35.0967 78.8161 35.1506C78.2787 35.2034 77.8766 35.3453 77.6099 35.5765C77.3432 35.8076 77.2263 36.0904 77.2591 36.4248C77.2849 36.6875 77.4021 36.8991 77.6107 37.0595C77.8194 37.2199 78.0663 37.3403 78.3516 37.4208C78.6356 37.4894 79.054 37.575 79.6066 37.6775C80.3419 37.7983 80.9465 37.9379 81.4202 38.0964C81.9047 38.2418 82.3329 38.4892 82.7048 38.8385C83.0767 39.1879 83.2997 39.6785 83.3737 40.3102C83.4288 40.8715 83.3228 41.3884 83.0556 41.8607C82.7884 42.3331 82.3806 42.7228 81.8319 43.0298C81.2952 43.3357 80.6447 43.5261 79.8804 43.6011ZM84.6817 37.9392C84.5844 36.948 84.7013 36.0502 85.0324 35.2461C85.3754 34.4407 85.8787 33.7945 86.5423 33.3074C87.2166 32.8071 87.9838 32.5148 88.8436 32.4304C89.6199 32.3543 90.3099 32.4433 90.9136 32.6976C91.5281 32.9387 92.0308 33.2692 92.4216 33.6891L92.281 32.256L94.3411 32.0538L95.3096 41.9244L93.2495 42.1266L93.1054 40.6576C92.8047 41.1574 92.3711 41.5918 91.8044 41.9609C91.2378 42.33 90.5723 42.552 89.8079 42.627C88.96 42.7102 88.1626 42.5714 87.4158 42.2106C86.6679 41.8379 86.0468 41.2839 85.5526 40.5486C85.0693 39.8002 84.7789 38.9304 84.6817 37.9392ZM92.7644 37.1823C92.6976 36.5016 92.4963 35.9245 92.1604 35.451C91.8365 34.9764 91.4348 34.6299 90.9552 34.4117C90.4756 34.1935 89.9731 34.1102 89.4476 34.1617C88.9221 34.2133 88.4453 34.3927 88.0173 34.7C87.5881 34.9953 87.2548 35.4078 87.0174 35.9375C86.7907 36.4541 86.7108 37.0528 86.7776 37.7335C86.8444 38.4143 87.0403 38.9979 87.3654 39.4845C87.7024 39.9699 88.1113 40.3277 88.5921 40.5579C89.0836 40.7749 89.5862 40.8582 90.0997 40.8078C90.6252 40.7563 91.1019 40.5769 91.53 40.2696C91.958 39.9623 92.2848 39.5444 92.5102 39.0159C92.7465 38.4742 92.8312 37.863 92.7644 37.1823ZM98.7334 28.2045L100.034 41.4608L97.992 41.6612L96.6913 28.4049L98.7334 28.2045ZM111.254 35.133C111.29 35.5032 111.299 35.8399 111.281 36.1432L103.739 36.8832C103.876 37.6656 104.231 38.2698 104.803 38.696C105.375 39.1221 106.044 39.2977 106.808 39.2227C107.907 39.1149 108.638 38.5789 109.002 37.6148L111.205 37.3986C110.995 38.3355 110.525 39.1353 109.794 39.7978C109.074 40.4472 108.135 40.8288 106.977 40.9424C106.033 41.035 105.165 40.9092 104.371 40.565C103.589 40.2077 102.945 39.668 102.44 38.9459C101.946 38.2106 101.649 37.3354 101.55 36.3203C101.45 35.3052 101.566 34.3955 101.897 33.5914C102.239 32.7741 102.759 32.1201 103.459 31.6295C104.17 31.1376 105.009 30.8443 105.977 30.7494C106.908 30.658 107.758 30.7796 108.526 31.1141C109.295 31.4487 109.918 31.9663 110.397 32.6669C110.875 33.3555 111.16 34.1776 111.254 35.133ZM109.059 34.6973C108.973 33.946 108.645 33.3693 108.075 32.967C107.505 32.5648 106.832 32.4017 106.056 32.4779C105.351 32.547 104.77 32.8331 104.313 33.3362C103.855 33.8273 103.616 34.4596 103.595 35.2334L109.059 34.6973ZM130.713 28.485L128.618 38.6562L126.468 38.8671L123.765 31.7713L122.492 39.2573L120.342 39.4683L116.292 29.9L118.37 29.6961L121.209 37.4299L122.526 29.2883L124.658 29.0791L127.44 36.7823L128.707 28.6819L130.713 28.485ZM133.15 26.9256C132.78 26.962 132.457 26.867 132.181 26.6408C131.906 26.4146 131.75 26.1164 131.714 25.7462C131.677 25.376 131.772 25.0532 131.999 24.7778C132.225 24.5024 132.523 24.3465 132.893 24.3102C133.251 24.275 133.568 24.3706 133.844 24.5967C134.119 24.8229 134.275 25.1211 134.311 25.4914C134.348 25.8616 134.253 26.1844 134.027 26.4598C133.8 26.7352 133.508 26.8905 133.15 26.9256ZM134.281 28.1349L135.25 38.0055L133.208 38.2059L132.239 28.3353L134.281 28.1349ZM138.673 24.2857L139.973 37.5421L137.931 37.7424L136.63 24.4861L138.673 24.2857ZM143.396 23.8223L144.697 37.0786L142.654 37.279L141.354 24.0226L143.396 23.8223ZM153.249 27.7569C153.549 27.2452 153.982 26.8108 154.55 26.4536C155.129 26.0834 155.788 25.8619 156.529 25.7893C157.4 25.7037 158.209 25.8354 158.955 26.1842C159.7 26.5331 160.314 27.0757 160.797 27.8122C161.278 28.5366 161.567 29.3945 161.664 30.3857C161.761 31.377 161.646 32.2866 161.317 33.1147C160.987 33.9308 160.485 34.595 159.812 35.1071C159.15 35.6062 158.389 35.8979 157.529 35.9823C156.764 36.0573 156.069 35.9748 155.443 35.7348C154.828 35.4937 154.325 35.1572 153.933 34.7254L154.073 36.1586L152.031 36.3589L150.731 23.1026L152.773 22.9022L153.249 27.7569ZM159.586 30.5896C159.519 29.9089 159.318 29.3378 158.984 28.8763C158.66 28.4016 158.253 28.0617 157.762 27.8567C157.283 27.6384 156.78 27.5551 156.255 27.6067C155.741 27.6571 155.265 27.8365 154.825 28.1449C154.396 28.4522 154.064 28.8707 153.826 29.4004C153.601 29.9289 153.522 30.5336 153.588 31.2143C153.655 31.895 153.851 32.4787 154.176 32.9653C154.512 33.4387 154.92 33.7846 155.399 34.0028C155.891 34.2198 156.393 34.3031 156.907 34.2528C157.432 34.2012 157.909 34.0218 158.337 33.7145C158.776 33.3941 159.108 32.9637 159.332 32.4232C159.568 31.8816 159.653 31.2704 159.586 30.5896ZM172.711 29.1029C172.747 29.4731 172.756 29.8099 172.738 30.1131L165.196 30.8531C165.333 31.6355 165.688 32.2397 166.26 32.6659C166.832 33.092 167.501 33.2676 168.265 33.1926C169.364 33.0848 170.095 32.5488 170.458 31.5847L172.662 31.3685C172.452 32.3054 171.982 33.1052 171.251 33.7677C170.531 34.4171 169.592 34.7987 168.434 34.9123C167.49 35.0049 166.622 34.8791 165.828 34.5349C165.046 34.1776 164.402 33.6379 163.897 32.9158C163.403 32.1805 163.106 31.3053 163.006 30.2902C162.907 29.2751 163.022 28.3654 163.354 27.5613C163.695 26.744 164.216 26.09 164.915 25.5994C165.627 25.1076 166.466 24.8142 167.433 24.7193C168.365 24.6279 169.215 24.7495 169.983 25.084C170.752 25.4186 171.375 25.9362 171.854 26.6368C172.331 27.3254 172.617 28.1475 172.711 29.1029ZM170.516 28.6672C170.43 27.9159 170.102 27.3392 169.532 26.9369C168.962 26.5347 168.289 26.3716 167.513 26.4478C166.808 26.5169 166.227 26.803 165.77 27.3061C165.312 27.7972 165.073 28.4296 165.052 29.2033L170.516 28.6672ZM178.221 23.6608C178.985 23.5858 179.675 23.6749 180.291 23.9279C180.917 24.1679 181.42 24.4984 181.799 24.9194L181.658 23.4863L183.719 23.2842L184.703 33.316C184.792 34.2236 184.68 35.0485 184.367 35.7906C184.055 36.5447 183.555 37.1605 182.866 37.638C182.189 38.1144 181.349 38.4018 180.346 38.5002C179.009 38.6314 177.867 38.4239 176.921 37.8777C175.976 37.3434 175.392 36.5447 175.167 35.4816L177.191 35.2829C177.397 35.7812 177.766 36.161 178.298 36.4223C178.843 36.6944 179.468 36.7959 180.172 36.7267C180.996 36.6459 181.635 36.33 182.087 35.7792C182.551 35.2272 182.737 34.4735 182.643 33.5181L182.481 31.8701C182.18 32.3698 181.747 32.8102 181.182 33.1912C180.627 33.5592 179.974 33.78 179.221 33.8539C178.361 33.9382 177.552 33.8006 176.793 33.441C176.045 33.0682 175.424 32.5142 174.93 31.779C174.447 31.0306 174.156 30.1608 174.059 29.1696C173.962 28.1783 174.079 27.2806 174.41 26.4764C174.753 25.6711 175.256 25.0249 175.92 24.5377C176.594 24.0375 177.361 23.7452 178.221 23.6608ZM182.142 28.4127C182.075 27.7319 181.874 27.1548 181.538 26.6814C181.214 26.2067 180.812 25.8603 180.333 25.6421C179.853 25.4239 179.35 25.3405 178.825 25.3921C178.3 25.4437 177.823 25.6231 177.395 25.9303C176.966 26.2257 176.632 26.6382 176.395 27.1679C176.168 27.6845 176.088 28.2832 176.155 28.9639C176.222 29.6446 176.418 30.2283 176.743 30.7149C177.08 31.2003 177.489 31.5581 177.97 31.7882C178.461 32.0053 178.964 32.0886 179.477 32.0382C180.003 31.9866 180.479 31.8072 180.907 31.5C181.335 31.1927 181.662 30.7748 181.888 30.2462C182.124 29.7046 182.209 29.0934 182.142 28.4127ZM187.312 21.6113C186.941 21.6476 186.619 21.5527 186.343 21.3265C186.068 21.1003 185.912 20.8021 185.876 20.4319C185.839 20.0617 185.934 19.7389 186.16 19.4635C186.387 19.1881 186.685 19.0322 187.055 18.9959C187.413 18.9607 187.73 19.0562 188.005 19.2824C188.281 19.5086 188.437 19.8068 188.473 20.177C188.509 20.5473 188.414 20.8701 188.188 21.1455C187.962 21.4209 187.67 21.5762 187.312 21.6113ZM188.443 22.8206L189.412 32.6912L187.369 32.8916L186.401 23.021L188.443 22.8206ZM196.089 21.9077C196.865 21.8315 197.573 21.9248 198.214 22.1874C198.867 22.449 199.397 22.8792 199.806 23.4782C200.214 24.0772 200.462 24.8245 200.55 25.7202L201.121 31.5422L199.097 31.7409L198.556 26.2234C198.469 25.3396 198.182 24.6865 197.694 24.2641C197.206 23.8298 196.579 23.6501 195.815 23.7251C195.05 23.8001 194.465 24.0987 194.058 24.6209C193.662 25.1301 193.507 25.8265 193.594 26.7102L194.135 32.2278L192.093 32.4281L191.124 22.5575L193.167 22.3572L193.277 23.4857C193.572 23.0469 193.965 22.6888 194.456 22.4115C194.959 22.133 195.503 21.9651 196.089 21.9077ZM208.322 19.5498C207.952 19.5861 207.629 19.4912 207.354 19.265C207.078 19.0388 206.922 18.7406 206.886 18.3704C206.85 18.0002 206.945 17.6774 207.171 17.4019C207.397 17.1265 207.695 16.9707 208.065 16.9344C208.424 16.8992 208.741 16.9947 209.016 17.2209C209.291 17.4471 209.447 17.7453 209.484 18.1155C209.52 18.4857 209.425 18.8086 209.199 19.084C208.973 19.3594 208.68 19.5146 208.322 19.5498ZM209.454 20.7591L210.422 30.6297L208.38 30.8301L207.411 20.9595L209.454 20.7591ZM217.099 19.8461C217.875 19.77 218.584 19.8632 219.224 20.1259C219.877 20.3874 220.408 20.8177 220.816 21.4167C221.225 22.0156 221.473 22.763 221.561 23.6587L222.132 29.4807L220.108 29.6793L219.566 24.1618C219.48 23.2781 219.192 22.625 218.705 22.2026C218.216 21.7682 217.589 21.5886 216.825 21.6636C216.061 21.7386 215.475 22.0372 215.068 22.5594C214.672 23.0685 214.517 23.765 214.604 24.6487L215.145 30.1662L213.103 30.3666L212.135 20.496L214.177 20.2956L214.288 21.4242C214.582 20.9853 214.975 20.6273 215.466 20.35C215.97 20.0715 216.514 19.9036 217.099 19.8461Z" fill="white"/>
</svg>
